STARTFONT 2.1
FONT -ZhengGeDianHei-16-Book-R-Book--16-16-75-75-c-80-iso10646-1
SIZE 16 75 75
FONTBOUNDINGBOX 16 17 0 -2
STARTPROPERTIES 10
FAMILY_NAME "ZhengGeDianHei-16"
WEIGHT_NAME "Book"
FONT_VERSION "Version 1.0"
COPYRIGHT "Copyright 2026 yzdnn (https://github.com/yzdnn), Copyright 2020 The DotGothic16 Project Authors (https://github.com/fontworks-fonts/DotGothic16/)"
FOUNDRY "Made with Bits'n'Picas by Kreative Software"
FONT_ASCENT 14
FONT_DESCENT 2
POINT_SIZE 16
X_HEIGHT 8
CAP_HEIGHT 12
ENDPROPERTIES
CHARS 13224
STARTCHAR U+000D
ENCODING 13
SWIDTH 625 0
DWIDTH 10 0
BBX 0 0 0 0
BITMAP
ENDCHAR
STARTCHAR U+0020
ENCODING 32
SWIDTH 500 0
DWIDTH 8 0
BBX 0 0 0 0
BITMAP
ENDCHAR
STARTCHAR U+0021
ENCODING 33
SWIDTH 500 0
DWIDTH 8 0
BBX 1 13 3 0
BITMAP
80
80
80
80
80
80
80
80
80
80
00
80
80
ENDCHAR
STARTCHAR U+0022
ENCODING 34
SWIDTH 500 0
DWIDTH 8 0
BBX 3 4 2 10
BITMAP
A0
A0
A0
A0
ENDCHAR
STARTCHAR U+0023
ENCODING 35
SWIDTH 500 0
DWIDTH 8 0
BBX 7 13 0 0
BITMAP
24
24
24
24
7E
24
24
48
48
FC
48
48
48
ENDCHAR
STARTCHAR U+0024
ENCODING 36
SWIDTH 500 0
DWIDTH 8 0
BBX 7 15 0 -1
BITMAP
10
7C
92
92
90
90
70
1C
12
12
92
92
92
7C
10
ENDCHAR
STARTCHAR U+0025
ENCODING 37
SWIDTH 500 0
DWIDTH 8 0
BBX 8 13 0 0
BITMAP
61
92
92
94
94
98
6E
19
29
29
49
49
86
ENDCHAR
STARTCHAR U+0026
ENCODING 38
SWIDTH 500 0
DWIDTH 8 0
BBX 8 13 0 0
BITMAP
3C
42
42
42
44
28
30
50
89
85
82
82
7D
ENDCHAR
STARTCHAR U+0027
ENCODING 39
SWIDTH 500 0
DWIDTH 8 0
BBX 1 4 3 10
BITMAP
80
80
80
80
ENDCHAR
STARTCHAR U+0028
ENCODING 40
SWIDTH 500 0
DWIDTH 8 0
BBX 3 15 3 -1
BITMAP
20
40
40
40
80
80
80
80
80
80
80
40
40
40
20
ENDCHAR
STARTCHAR U+0029
ENCODING 41
SWIDTH 500 0
DWIDTH 8 0
BBX 3 15 1 -1
BITMAP
80
40
40
40
20
20
20
20
20
20
20
40
40
40
80
ENDCHAR
STARTCHAR U+002A
ENCODING 42
SWIDTH 500 0
DWIDTH 8 0
BBX 7 6 0 7
BITMAP
92
54
38
38
54
92
ENDCHAR
STARTCHAR U+002B
ENCODING 43
SWIDTH 500 0
DWIDTH 8 0
BBX 7 9 0 0
BITMAP
10
10
10
10
FE
10
10
10
10
ENDCHAR
STARTCHAR U+002C
ENCODING 44
SWIDTH 500 0
DWIDTH 8 0
BBX 2 4 1 -1
BITMAP
C0
C0
40
80
ENDCHAR
STARTCHAR U+002D
ENCODING 45
SWIDTH 500 0
DWIDTH 8 0
BBX 6 1 1 4
BITMAP
FC
ENDCHAR
STARTCHAR U+002E
ENCODING 46
SWIDTH 500 0
DWIDTH 8 0
BBX 2 2 1 1
BITMAP
C0
C0
ENDCHAR
STARTCHAR U+002F
ENCODING 47
SWIDTH 500 0
DWIDTH 8 0
BBX 7 14 0 0
BITMAP
02
02
04
04
08
08
10
10
20
20
40
40
80
80
ENDCHAR
STARTCHAR U+0030
ENCODING 48
SWIDTH 500 0
DWIDTH 8 0
BBX 7 13 0 0
BITMAP
38
44
82
82
82
82
82
82
82
82
82
44
38
ENDCHAR
STARTCHAR U+0031
ENCODING 49
SWIDTH 500 0
DWIDTH 8 0
BBX 3 13 2 0
BITMAP
E0
20
20
20
20
20
20
20
20
20
20
20
20
ENDCHAR
STARTCHAR U+0032
ENCODING 50
SWIDTH 500 0
DWIDTH 8 0
BBX 7 13 0 0
BITMAP
38
44
82
82
82
04
08
30
40
80
80
80
FE
ENDCHAR
STARTCHAR U+0033
ENCODING 51
SWIDTH 500 0
DWIDTH 8 0
BBX 7 13 0 0
BITMAP
38
44
82
82
02
04
38
04
02
82
82
44
38
ENDCHAR
STARTCHAR U+0034
ENCODING 52
SWIDTH 500 0
DWIDTH 8 0
BBX 7 13 0 0
BITMAP
04
0C
0C
14
14
24
24
44
44
84
FE
04
04
ENDCHAR
STARTCHAR U+0035
ENCODING 53
SWIDTH 500 0
DWIDTH 8 0
BBX 7 13 0 0
BITMAP
FC
80
80
80
80
B8
C4
82
02
02
82
44
38
ENDCHAR
STARTCHAR U+0036
ENCODING 54
SWIDTH 500 0
DWIDTH 8 0
BBX 7 13 0 0
BITMAP
38
44
82
82
80
B8
C4
82
82
82
82
44
38
ENDCHAR
STARTCHAR U+0037
ENCODING 55
SWIDTH 500 0
DWIDTH 8 0
BBX 7 13 0 0
BITMAP
FE
02
04
04
08
08
08
10
10
10
20
20
20
ENDCHAR
STARTCHAR U+0038
ENCODING 56
SWIDTH 500 0
DWIDTH 8 0
BBX 7 13 0 0
BITMAP
38
44
82
82
82
44
38
44
82
82
82
44
38
ENDCHAR
STARTCHAR U+0039
ENCODING 57
SWIDTH 500 0
DWIDTH 8 0
BBX 7 13 0 0
BITMAP
38
44
82
82
82
82
82
46
3A
02
82
44
38
ENDCHAR
STARTCHAR U+003A
ENCODING 58
SWIDTH 500 0
DWIDTH 8 0
BBX 2 8 3 1
BITMAP
C0
C0
00
00
00
00
C0
C0
ENDCHAR
STARTCHAR U+003B
ENCODING 59
SWIDTH 500 0
DWIDTH 8 0
BBX 2 10 3 -1
BITMAP
C0
C0
00
00
00
00
C0
C0
40
80
ENDCHAR
STARTCHAR U+003C
ENCODING 60
SWIDTH 500 0
DWIDTH 8 0
BBX 7 9 0 0
BITMAP
02
0C
10
60
80
60
10
0C
02
ENDCHAR
STARTCHAR U+003D
ENCODING 61
SWIDTH 500 0
DWIDTH 8 0
BBX 6 5 1 2
BITMAP
FC
00
00
00
FC
ENDCHAR
STARTCHAR U+003E
ENCODING 62
SWIDTH 500 0
DWIDTH 8 0
BBX 7 9 0 0
BITMAP
80
60
10
0C
02
0C
10
60
80
ENDCHAR
STARTCHAR U+003F
ENCODING 63
SWIDTH 500 0
DWIDTH 8 0
BBX 8 13 0 0
BITMAP
3C
42
81
81
01
02
0C
10
10
10
00
18
18
ENDCHAR
STARTCHAR U+0040
ENCODING 64
SWIDTH 500 0
DWIDTH 8 0
BBX 8 13 0 0
BITMAP
1C
22
41
5B
A5
A5
A5
A5
A5
9A
80
40
3E
ENDCHAR
STARTCHAR U+0041
ENCODING 65
SWIDTH 500 0
DWIDTH 8 0
BBX 7 13 0 0
BITMAP
10
10
10
28
28
28
44
44
44
7C
82
82
82
ENDCHAR
STARTCHAR U+0042
ENCODING 66
SWIDTH 500 0
DWIDTH 8 0
BBX 7 13 0 0
BITMAP
F8
84
82
82
82
84
F8
84
82
82
82
84
F8
ENDCHAR
STARTCHAR U+0043
ENCODING 67
SWIDTH 500 0
DWIDTH 8 0
BBX 7 13 0 0
BITMAP
38
44
82
82
80
80
80
80
82
82
82
44
38
ENDCHAR
STARTCHAR U+0044
ENCODING 68
SWIDTH 500 0
DWIDTH 8 0
BBX 7 13 0 0
BITMAP
F8
84
82
82
82
82
82
82
82
82
82
84
F8
ENDCHAR
STARTCHAR U+0045
ENCODING 69
SWIDTH 500 0
DWIDTH 8 0
BBX 7 13 0 0
BITMAP
FE
80
80
80
80
80
FC
80
80
80
80
80
FE
ENDCHAR
STARTCHAR U+0046
ENCODING 70
SWIDTH 500 0
DWIDTH 8 0
BBX 7 13 0 0
BITMAP
FE
80
80
80
80
80
FC
80
80
80
80
80
80
ENDCHAR
STARTCHAR U+0047
ENCODING 71
SWIDTH 500 0
DWIDTH 8 0
BBX 7 13 0 0
BITMAP
38
44
82
82
80
80
9E
82
82
82
82
44
38
ENDCHAR
STARTCHAR U+0048
ENCODING 72
SWIDTH 500 0
DWIDTH 8 0
BBX 7 13 0 0
BITMAP
82
82
82
82
82
82
FE
82
82
82
82
82
82
ENDCHAR
STARTCHAR U+0049
ENCODING 73
SWIDTH 500 0
DWIDTH 8 0
BBX 1 13 3 0
BITMAP
80
80
80
80
80
80
80
80
80
80
80
80
80
ENDCHAR
STARTCHAR U+004A
ENCODING 74
SWIDTH 500 0
DWIDTH 8 0
BBX 7 13 0 0
BITMAP
02
02
02
02
02
02
02
02
82
82
82
44
38
ENDCHAR
STARTCHAR U+004B
ENCODING 75
SWIDTH 500 0
DWIDTH 8 0
BBX 7 13 0 0
BITMAP
82
84
88
90
A0
C0
C0
A0
90
88
88
84
82
ENDCHAR
STARTCHAR U+004C
ENCODING 76
SWIDTH 500 0
DWIDTH 8 0
BBX 7 13 0 0
BITMAP
80
80
80
80
80
80
80
80
80
80
80
80
FE
ENDCHAR
STARTCHAR U+004D
ENCODING 77
SWIDTH 500 0
DWIDTH 8 0
BBX 7 13 0 0
BITMAP
82
82
C6
C6
C6
AA
AA
AA
AA
92
92
92
82
ENDCHAR
STARTCHAR U+004E
ENCODING 78
SWIDTH 500 0
DWIDTH 8 0
BBX 7 13 0 0
BITMAP
82
82
C2
C2
A2
A2
92
92
8A
8A
86
86
82
ENDCHAR
STARTCHAR U+004F
ENCODING 79
SWIDTH 500 0
DWIDTH 8 0
BBX 7 13 0 0
BITMAP
38
44
82
82
82
82
82
82
82
82
82
44
38
ENDCHAR
STARTCHAR U+0050
ENCODING 80
SWIDTH 500 0
DWIDTH 8 0
BBX 7 13 0 0
BITMAP
F8
84
82
82
82
82
84
F8
80
80
80
80
80
ENDCHAR
STARTCHAR U+0051
ENCODING 81
SWIDTH 500 0
DWIDTH 8 0
BBX 7 14 0 -1
BITMAP
38
44
82
82
82
82
82
82
82
92
92
4C
3C
06
ENDCHAR
STARTCHAR U+0052
ENCODING 82
SWIDTH 500 0
DWIDTH 8 0
BBX 7 13 0 0
BITMAP
F8
84
82
82
82
84
F8
84
84
84
82
82
82
ENDCHAR
STARTCHAR U+0053
ENCODING 83
SWIDTH 500 0
DWIDTH 8 0
BBX 7 13 0 0
BITMAP
38
44
82
82
80
40
38
04
02
82
82
44
38
ENDCHAR
STARTCHAR U+0054
ENCODING 84
SWIDTH 500 0
DWIDTH 8 0
BBX 7 13 0 0
BITMAP
FE
10
10
10
10
10
10
10
10
10
10
10
10
ENDCHAR
STARTCHAR U+0055
ENCODING 85
SWIDTH 500 0
DWIDTH 8 0
BBX 7 13 0 0
BITMAP
82
82
82
82
82
82
82
82
82
82
82
44
38
ENDCHAR
STARTCHAR U+0056
ENCODING 86
SWIDTH 500 0
DWIDTH 8 0
BBX 7 13 0 0
BITMAP
82
82
82
82
44
44
44
44
28
28
28
10
10
ENDCHAR
STARTCHAR U+0057
ENCODING 87
SWIDTH 500 0
DWIDTH 8 0
BBX 7 13 0 0
BITMAP
82
92
92
92
92
AA
AA
AA
AA
44
44
44
44
ENDCHAR
STARTCHAR U+0058
ENCODING 88
SWIDTH 500 0
DWIDTH 8 0
BBX 7 13 0 0
BITMAP
82
82
44
44
28
28
10
28
28
44
44
82
82
ENDCHAR
STARTCHAR U+0059
ENCODING 89
SWIDTH 500 0
DWIDTH 8 0
BBX 7 13 0 0
BITMAP
82
82
82
44
44
28
28
10
10
10
10
10
10
ENDCHAR
STARTCHAR U+005A
ENCODING 90
SWIDTH 500 0
DWIDTH 8 0
BBX 7 13 0 0
BITMAP
FE
04
04
08
08
10
10
20
20
40
40
80
FE
ENDCHAR
STARTCHAR U+005B
ENCODING 91
SWIDTH 500 0
DWIDTH 8 0
BBX 3 15 3 -1
BITMAP
E0
80
80
80
80
80
80
80
80
80
80
80
80
80
E0
ENDCHAR
STARTCHAR U+005C
ENCODING 92
SWIDTH 500 0
DWIDTH 8 0
BBX 5 13 1 0
BITMAP
80
80
40
40
40
20
20
20
10
10
10
08
08
ENDCHAR
STARTCHAR U+005D
ENCODING 93
SWIDTH 500 0
DWIDTH 8 0
BBX 3 15 1 -1
BITMAP
E0
20
20
20
20
20
20
20
20
20
20
20
20
20
E0
ENDCHAR
STARTCHAR U+005E
ENCODING 94
SWIDTH 500 0
DWIDTH 8 0
BBX 6 6 1 7
BITMAP
30
30
48
48
84
84
ENDCHAR
STARTCHAR U+005F
ENCODING 95
SWIDTH 500 0
DWIDTH 8 0
BBX 8 1 0 -1
BITMAP
FF
ENDCHAR
STARTCHAR U+0060
ENCODING 96
SWIDTH 500 0
DWIDTH 8 0
BBX 3 4 2 10
BITMAP
80
C0
40
20
ENDCHAR
STARTCHAR U+0061
ENCODING 97
SWIDTH 500 0
DWIDTH 8 0
BBX 7 9 0 0
BITMAP
78
84
84
04
7C
84
84
8C
72
ENDCHAR
STARTCHAR U+0062
ENCODING 98
SWIDTH 500 0
DWIDTH 8 0
BBX 7 12 0 0
BITMAP
80
80
80
B8
C4
82
82
82
82
82
C4
B8
ENDCHAR
STARTCHAR U+0063
ENCODING 99
SWIDTH 500 0
DWIDTH 8 0
BBX 7 9 0 0
BITMAP
38
44
82
80
80
80
82
44
38
ENDCHAR
STARTCHAR U+0064
ENCODING 100
SWIDTH 500 0
DWIDTH 8 0
BBX 7 12 0 0
BITMAP
02
02
02
3A
46
82
82
82
82
82
46
3A
ENDCHAR
STARTCHAR U+0065
ENCODING 101
SWIDTH 500 0
DWIDTH 8 0
BBX 7 9 0 0
BITMAP
38
44
82
82
FE
80
82
44
38
ENDCHAR
STARTCHAR U+0066
ENCODING 102
SWIDTH 500 0
DWIDTH 8 0
BBX 6 13 1 0
BITMAP
1C
20
20
20
FC
20
20
20
20
20
20
20
20
ENDCHAR
STARTCHAR U+0067
ENCODING 103
SWIDTH 500 0
DWIDTH 8 0
BBX 7 10 0 -1
BITMAP
7A
84
84
84
78
80
7C
82
82
7C
ENDCHAR
STARTCHAR U+0068
ENCODING 104
SWIDTH 500 0
DWIDTH 8 0
BBX 7 12 0 0
BITMAP
80
80
80
B8
C4
82
82
82
82
82
82
82
ENDCHAR
STARTCHAR U+0069
ENCODING 105
SWIDTH 500 0
DWIDTH 8 0
BBX 1 12 3 0
BITMAP
80
80
00
80
80
80
80
80
80
80
80
80
ENDCHAR
STARTCHAR U+006A
ENCODING 106
SWIDTH 500 0
DWIDTH 8 0
BBX 3 13 2 -1
BITMAP
20
20
00
20
20
20
20
20
20
20
20
20
C0
ENDCHAR
STARTCHAR U+006B
ENCODING 107
SWIDTH 500 0
DWIDTH 8 0
BBX 7 12 0 0
BITMAP
80
80
80
82
84
98
A0
C0
A0
98
84
82
ENDCHAR
STARTCHAR U+006C
ENCODING 108
SWIDTH 500 0
DWIDTH 8 0
BBX 1 12 3 0
BITMAP
80
80
80
80
80
80
80
80
80
80
80
80
ENDCHAR
STARTCHAR U+006D
ENCODING 109
SWIDTH 500 0
DWIDTH 8 0
BBX 7 9 0 0
BITMAP
A4
DA
92
92
92
92
92
92
92
ENDCHAR
STARTCHAR U+006E
ENCODING 110
SWIDTH 500 0
DWIDTH 8 0
BBX 7 9 0 0
BITMAP
B8
C4
82
82
82
82
82
82
82
ENDCHAR
STARTCHAR U+006F
ENCODING 111
SWIDTH 500 0
DWIDTH 8 0
BBX 7 9 0 0
BITMAP
38
44
82
82
82
82
82
44
38
ENDCHAR
STARTCHAR U+0070
ENCODING 112
SWIDTH 500 0
DWIDTH 8 0
BBX 7 10 0 -1
BITMAP
B8
C4
82
82
82
82
C4
B8
80
80
ENDCHAR
STARTCHAR U+0071
ENCODING 113
SWIDTH 500 0
DWIDTH 8 0
BBX 7 10 0 -1
BITMAP
3A
46
82
82
82
82
46
3A
02
02
ENDCHAR
STARTCHAR U+0072
ENCODING 114
SWIDTH 500 0
DWIDTH 8 0
BBX 5 9 1 0
BITMAP
B8
C0
80
80
80
80
80
80
80
ENDCHAR
STARTCHAR U+0073
ENCODING 115
SWIDTH 500 0
DWIDTH 8 0
BBX 7 9 0 0
BITMAP
7C
82
82
80
7C
02
82
82
7C
ENDCHAR
STARTCHAR U+0074
ENCODING 116
SWIDTH 500 0
DWIDTH 8 0
BBX 6 12 1 0
BITMAP
20
20
20
FC
20
20
20
20
20
20
20
1C
ENDCHAR
STARTCHAR U+0075
ENCODING 117
SWIDTH 500 0
DWIDTH 8 0
BBX 7 9 0 0
BITMAP
82
82
82
82
82
82
82
46
3A
ENDCHAR
STARTCHAR U+0076
ENCODING 118
SWIDTH 500 0
DWIDTH 8 0
BBX 7 9 0 0
BITMAP
82
82
82
44
44
28
28
10
10
ENDCHAR
STARTCHAR U+0077
ENCODING 119
SWIDTH 500 0
DWIDTH 8 0
BBX 7 9 0 0
BITMAP
92
92
92
AA
AA
AA
44
44
44
ENDCHAR
STARTCHAR U+0078
ENCODING 120
SWIDTH 500 0
DWIDTH 8 0
BBX 7 9 0 0
BITMAP
82
44
44
28
10
28
44
44
82
ENDCHAR
STARTCHAR U+0079
ENCODING 121
SWIDTH 500 0
DWIDTH 8 0
BBX 7 10 0 -1
BITMAP
82
82
44
44
44
28
28
10
10
E0
ENDCHAR
STARTCHAR U+007A
ENCODING 122
SWIDTH 500 0
DWIDTH 8 0
BBX 7 9 0 0
BITMAP
FE
02
04
08
10
20
40
80
FE
ENDCHAR
STARTCHAR U+007B
ENCODING 123
SWIDTH 500 0
DWIDTH 8 0
BBX 4 15 2 -1
BITMAP
30
40
40
40
40
40
40
80
40
40
40
40
40
40
30
ENDCHAR
STARTCHAR U+007C
ENCODING 124
SWIDTH 500 0
DWIDTH 8 0
BBX 1 14 3 -1
BITMAP
80
80
80
80
80
80
80
80
80
80
80
80
80
80
ENDCHAR
STARTCHAR U+007D
ENCODING 125
SWIDTH 500 0
DWIDTH 8 0
BBX 4 15 1 -1
BITMAP
C0
20
20
20
20
20
20
10
20
20
20
20
20
20
C0
ENDCHAR
STARTCHAR U+007E
ENCODING 126
SWIDTH 500 0
DWIDTH 8 0
BBX 6 2 1 4
BITMAP
64
98
ENDCHAR
STARTCHAR U+00A0
ENCODING 160
SWIDTH 500 0
DWIDTH 8 0
BBX 0 0 0 0
BITMAP
ENDCHAR
STARTCHAR U+00A1
ENCODING 161
SWIDTH 500 0
DWIDTH 8 0
BBX 1 12 3 -1
BITMAP
80
80
00
80
80
80
80
80
80
80
80
80
ENDCHAR
STARTCHAR U+00A2
ENCODING 162
SWIDTH 500 0
DWIDTH 8 0
BBX 7 12 0 0
BITMAP
02
3C
46
8A
8A
90
90
92
A2
64
78
80
ENDCHAR
STARTCHAR U+00A3
ENCODING 163
SWIDTH 500 0
DWIDTH 8 0
BBX 8 13 0 0
BITMAP
1C
22
41
40
40
20
FC
20
20
21
41
41
FE
ENDCHAR
STARTCHAR U+00A4
ENCODING 164
SWIDTH 500 0
DWIDTH 8 0
BBX 8 8 0 0
BITMAP
BD
42
81
81
81
81
42
BD
ENDCHAR
STARTCHAR U+00A5
ENCODING 165
SWIDTH 500 0
DWIDTH 8 0
BBX 7 13 0 0
BITMAP
82
82
44
44
28
28
FE
10
10
FE
10
10
10
ENDCHAR
STARTCHAR U+00A6
ENCODING 166
SWIDTH 500 0
DWIDTH 8 0
BBX 1 14 3 0
BITMAP
80
80
80
80
80
00
00
00
00
80
80
80
80
80
ENDCHAR
STARTCHAR U+00A7
ENCODING 167
SWIDTH 500 0
DWIDTH 8 0
BBX 8 15 0 -1
BITMAP
7C
82
82
80
7C
82
81
81
41
3E
03
81
81
42
3C
ENDCHAR
STARTCHAR U+00A8
ENCODING 168
SWIDTH 500 0
DWIDTH 8 0
BBX 6 2 0 11
BITMAP
CC
CC
ENDCHAR
STARTCHAR U+00A9
ENCODING 169
SWIDTH 500 0
DWIDTH 8 0
BBX 8 8 0 1
BITMAP
3C
42
99
A1
A1
99
42
3C
ENDCHAR
STARTCHAR U+00AA
ENCODING 170
SWIDTH 500 0
DWIDTH 8 0
BBX 5 5 1 8
BITMAP
60
90
70
90
68
ENDCHAR
STARTCHAR U+00AB
ENCODING 171
SWIDTH 500 0
DWIDTH 8 0
BBX 8 9 0 0
BITMAP
09
12
24
48
90
48
24
12
09
ENDCHAR
STARTCHAR U+00AC
ENCODING 172
SWIDTH 500 0
DWIDTH 8 0
BBX 7 4 0 2
BITMAP
FE
02
02
02
ENDCHAR
STARTCHAR U+00AD
ENCODING 173
SWIDTH 500 0
DWIDTH 8 0
BBX 8 1 0 4
BITMAP
FF
ENDCHAR
STARTCHAR U+00AE
ENCODING 174
SWIDTH 500 0
DWIDTH 8 0
BBX 8 8 0 1
BITMAP
3C
42
B9
A5
B9
A5
42
3C
ENDCHAR
STARTCHAR U+00AF
ENCODING 175
SWIDTH 500 0
DWIDTH 8 0
BBX 6 1 1 11
BITMAP
FC
ENDCHAR
STARTCHAR U+00B0
ENCODING 176
SWIDTH 500 0
DWIDTH 8 0
BBX 5 5 1 8
BITMAP
70
88
88
88
70
ENDCHAR
STARTCHAR U+00B1
ENCODING 177
SWIDTH 500 0
DWIDTH 8 0
BBX 7 9 0 0
BITMAP
10
10
10
FE
10
10
10
00
FE
ENDCHAR
STARTCHAR U+00B2
ENCODING 178
SWIDTH 500 0
DWIDTH 8 0
BBX 5 7 1 6
BITMAP
70
88
88
30
40
80
F8
ENDCHAR
STARTCHAR U+00B3
ENCODING 179
SWIDTH 500 0
DWIDTH 8 0
BBX 5 7 1 6
BITMAP
70
88
08
70
08
88
70
ENDCHAR
STARTCHAR U+00B4
ENCODING 180
SWIDTH 500 0
DWIDTH 8 0
BBX 3 3 2 10
BITMAP
60
40
80
ENDCHAR
STARTCHAR U+00B5
ENCODING 181
SWIDTH 500 0
DWIDTH 8 0
BBX 8 11 0 -1
BITMAP
81
81
81
81
81
81
81
C3
BD
80
80
ENDCHAR
STARTCHAR U+00B6
ENCODING 182
SWIDTH 500 0
DWIDTH 8 0
BBX 7 14 0 -1
BITMAP
7E
F2
F2
F2
F2
72
12
12
12
12
12
12
12
12
ENDCHAR
STARTCHAR U+00B7
ENCODING 183
SWIDTH 500 0
DWIDTH 8 0
BBX 2 2 3 4
BITMAP
C0
C0
ENDCHAR
STARTCHAR U+00B8
ENCODING 184
SWIDTH 500 0
DWIDTH 8 0
BBX 4 5 1 -1
BITMAP
40
80
E0
10
E0
ENDCHAR
STARTCHAR U+00B9
ENCODING 185
SWIDTH 500 0
DWIDTH 8 0
BBX 3 7 2 6
BITMAP
E0
20
20
20
20
20
20
ENDCHAR
STARTCHAR U+00BA
ENCODING 186
SWIDTH 500 0
DWIDTH 8 0
BBX 4 5 1 8
BITMAP
60
90
90
90
60
ENDCHAR
STARTCHAR U+00BB
ENCODING 187
SWIDTH 500 0
DWIDTH 8 0
BBX 8 9 0 0
BITMAP
90
48
24
12
09
12
24
48
90
ENDCHAR
STARTCHAR U+00BC
ENCODING 188
SWIDTH 500 0
DWIDTH 8 0
BBX 8 13 0 0
BITMAP
E2
22
24
24
28
28
32
16
2A
2A
52
5F
82
ENDCHAR
STARTCHAR U+00BD
ENCODING 189
SWIDTH 500 0
DWIDTH 8 0
BBX 8 13 0 0
BITMAP
E2
22
24
24
28
28
3E
11
31
26
48
50
9F
ENDCHAR
STARTCHAR U+00BE
ENCODING 190
SWIDTH 500 0
DWIDTH 8 0
BBX 8 13 0 0
BITMAP
62
92
14
64
18
98
72
16
2A
2A
52
5F
82
ENDCHAR
STARTCHAR U+00BF
ENCODING 191
SWIDTH 500 0
DWIDTH 8 0
BBX 6 12 1 -1
BITMAP
30
30
00
10
10
10
60
80
84
84
84
78
ENDCHAR
STARTCHAR U+00C0
ENCODING 192
SWIDTH 500 0
DWIDTH 8 0
BBX 7 14 0 0
BITMAP
30
10
08
10
10
28
28
28
44
44
7C
82
82
82
ENDCHAR
STARTCHAR U+00C1
ENCODING 193
SWIDTH 500 0
DWIDTH 8 0
BBX 7 14 0 0
BITMAP
18
10
20
10
10
28
28
28
44
44
7C
82
82
82
ENDCHAR
STARTCHAR U+00C2
ENCODING 194
SWIDTH 500 0
DWIDTH 8 0
BBX 7 14 0 0
BITMAP
10
28
44
10
10
28
28
28
44
44
7C
82
82
82
ENDCHAR
STARTCHAR U+00C3
ENCODING 195
SWIDTH 500 0
DWIDTH 8 0
BBX 7 14 0 0
BITMAP
32
4C
00
10
10
28
28
28
44
44
7C
82
82
82
ENDCHAR
STARTCHAR U+00C4
ENCODING 196
SWIDTH 500 0
DWIDTH 8 0
BBX 7 14 0 0
BITMAP
66
66
00
10
10
28
28
28
44
44
7C
82
82
82
ENDCHAR
STARTCHAR U+00C5
ENCODING 197
SWIDTH 500 0
DWIDTH 8 0
BBX 7 14 0 0
BITMAP
18
24
24
18
10
28
28
28
44
44
7C
82
82
82
ENDCHAR
STARTCHAR U+00C6
ENCODING 198
SWIDTH 500 0
DWIDTH 8 0
BBX 8 13 0 0
BITMAP
1F
18
18
28
28
28
4F
48
78
88
88
88
8F
ENDCHAR
STARTCHAR U+00C7
ENCODING 199
SWIDTH 500 0
DWIDTH 8 0
BBX 7 14 0 -1
BITMAP
38
44
82
82
80
80
82
82
82
44
38
18
04
38
ENDCHAR
STARTCHAR U+00C8
ENCODING 200
SWIDTH 500 0
DWIDTH 8 0
BBX 8 14 0 0
BITMAP
30
10
08
FF
80
80
80
80
FE
80
80
80
80
FF
ENDCHAR
STARTCHAR U+00C9
ENCODING 201
SWIDTH 500 0
DWIDTH 8 0
BBX 8 14 0 0
BITMAP
0C
08
10
FF
80
80
80
80
FE
80
80
80
80
FF
ENDCHAR
STARTCHAR U+00CA
ENCODING 202
SWIDTH 500 0
DWIDTH 8 0
BBX 8 14 0 0
BITMAP
18
24
42
FF
80
80
80
80
FE
80
80
80
80
FF
ENDCHAR
STARTCHAR U+00CB
ENCODING 203
SWIDTH 500 0
DWIDTH 8 0
BBX 8 14 0 0
BITMAP
66
66
00
FF
80
80
80
80
FE
80
80
80
80
FF
ENDCHAR
STARTCHAR U+00CC
ENCODING 204
SWIDTH 500 0
DWIDTH 8 0
BBX 3 14 2 0
BITMAP
C0
40
20
40
40
40
40
40
40
40
40
40
40
40
ENDCHAR
STARTCHAR U+00CD
ENCODING 205
SWIDTH 500 0
DWIDTH 8 0
BBX 3 14 2 0
BITMAP
60
40
80
40
40
40
40
40
40
40
40
40
40
40
ENDCHAR
STARTCHAR U+00CE
ENCODING 206
SWIDTH 500 0
DWIDTH 8 0
BBX 5 14 1 0
BITMAP
20
50
88
20
20
20
20
20
20
20
20
20
20
20
ENDCHAR
STARTCHAR U+00CF
ENCODING 207
SWIDTH 500 0
DWIDTH 8 0
BBX 3 14 2 0
BITMAP
A0
A0
00
40
40
40
40
40
40
40
40
40
40
40
ENDCHAR
STARTCHAR U+00D0
ENCODING 208
SWIDTH 500 0
DWIDTH 8 0
BBX 8 13 0 0
BITMAP
7C
42
41
41
41
41
F1
41
41
41
41
42
7C
ENDCHAR
STARTCHAR U+00D1
ENCODING 209
SWIDTH 500 0
DWIDTH 8 0
BBX 7 14 0 0
BITMAP
64
98
00
82
C2
C2
A2
A2
92
8A
8A
86
86
82
ENDCHAR
STARTCHAR U+00D2
ENCODING 210
SWIDTH 500 0
DWIDTH 8 0
BBX 7 14 0 0
BITMAP
60
20
10
38
44
82
82
82
82
82
82
82
44
38
ENDCHAR
STARTCHAR U+00D3
ENCODING 211
SWIDTH 500 0
DWIDTH 8 0
BBX 7 14 0 0
BITMAP
18
10
20
38
44
82
82
82
82
82
82
82
44
38
ENDCHAR
STARTCHAR U+00D4
ENCODING 212
SWIDTH 500 0
DWIDTH 8 0
BBX 7 14 0 0
BITMAP
30
48
84
38
44
82
82
82
82
82
82
82
44
38
ENDCHAR
STARTCHAR U+00D5
ENCODING 213
SWIDTH 500 0
DWIDTH 8 0
BBX 7 14 0 0
BITMAP
64
98
00
38
44
82
82
82
82
82
82
82
44
38
ENDCHAR
STARTCHAR U+00D6
ENCODING 214
SWIDTH 500 0
DWIDTH 8 0
BBX 7 14 0 0
BITMAP
CC
CC
00
38
44
82
82
82
82
82
82
82
44
38
ENDCHAR
STARTCHAR U+00D7
ENCODING 215
SWIDTH 500 0
DWIDTH 8 0
BBX 8 9 0 0
BITMAP
81
42
24
18
18
18
24
42
81
ENDCHAR
STARTCHAR U+00D8
ENCODING 216
SWIDTH 500 0
DWIDTH 8 0
BBX 8 15 0 -1
BITMAP
01
3D
42
83
85
85
89
89
91
91
A1
A1
42
BC
80
ENDCHAR
STARTCHAR U+00D9
ENCODING 217
SWIDTH 500 0
DWIDTH 8 0
BBX 7 14 0 0
BITMAP
30
10
08
82
82
82
82
82
82
82
82
82
44
38
ENDCHAR
STARTCHAR U+00DA
ENCODING 218
SWIDTH 500 0
DWIDTH 8 0
BBX 7 14 0 0
BITMAP
18
10
20
82
82
82
82
82
82
82
82
82
44
38
ENDCHAR
STARTCHAR U+00DB
ENCODING 219
SWIDTH 500 0
DWIDTH 8 0
BBX 7 14 0 0
BITMAP
30
48
00
82
82
82
82
82
82
82
82
82
44
38
ENDCHAR
STARTCHAR U+00DC
ENCODING 220
SWIDTH 500 0
DWIDTH 8 0
BBX 7 14 0 0
BITMAP
CC
CC
00
82
82
82
82
82
82
82
82
82
44
38
ENDCHAR
STARTCHAR U+00DD
ENCODING 221
SWIDTH 500 0
DWIDTH 8 0
BBX 7 14 0 0
BITMAP
18
10
20
82
82
44
44
28
28
10
10
10
10
10
ENDCHAR
STARTCHAR U+00DE
ENCODING 222
SWIDTH 500 0
DWIDTH 8 0
BBX 7 13 0 0
BITMAP
80
80
F8
84
82
82
82
82
82
84
F8
80
80
ENDCHAR
STARTCHAR U+00DF
ENCODING 223
SWIDTH 500 0
DWIDTH 8 0
BBX 7 13 0 0
BITMAP
38
44
82
82
82
84
98
84
82
82
82
A4
98
ENDCHAR
STARTCHAR U+00E0
ENCODING 224
SWIDTH 500 0
DWIDTH 8 0
BBX 7 14 0 0
BITMAP
60
20
10
00
00
78
84
84
04
7C
84
84
8C
72
ENDCHAR
STARTCHAR U+00E1
ENCODING 225
SWIDTH 500 0
DWIDTH 8 0
BBX 7 14 0 0
BITMAP
18
10
20
00
00
78
84
84
04
7C
84
84
8C
72
ENDCHAR
STARTCHAR U+00E2
ENCODING 226
SWIDTH 500 0
DWIDTH 8 0
BBX 7 14 0 0
BITMAP
30
48
84
00
00
78
84
84
04
7C
84
84
8C
72
ENDCHAR
STARTCHAR U+00E3
ENCODING 227
SWIDTH 500 0
DWIDTH 8 0
BBX 7 13 0 0
BITMAP
64
98
00
00
78
84
84
04
7C
84
84
8C
72
ENDCHAR
STARTCHAR U+00E4
ENCODING 228
SWIDTH 500 0
DWIDTH 8 0
BBX 7 13 0 0
BITMAP
CC
CC
00
00
78
84
84
04
7C
84
84
8C
72
ENDCHAR
STARTCHAR U+00E5
ENCODING 229
SWIDTH 500 0
DWIDTH 8 0
BBX 7 14 0 0
BITMAP
30
48
48
30
00
78
84
84
04
7C
84
84
8C
72
ENDCHAR
STARTCHAR U+00E6
ENCODING 230
SWIDTH 500 0
DWIDTH 8 0
BBX 8 9 0 0
BITMAP
6E
91
11
11
7F
90
90
91
6E
ENDCHAR
STARTCHAR U+00E7
ENCODING 231
SWIDTH 500 0
DWIDTH 8 0
BBX 7 12 0 -1
BITMAP
38
44
82
80
80
80
82
44
38
18
04
38
ENDCHAR
STARTCHAR U+00E8
ENCODING 232
SWIDTH 500 0
DWIDTH 8 0
BBX 7 14 0 0
BITMAP
30
10
08
00
00
38
44
82
82
FE
80
82
44
38
ENDCHAR
STARTCHAR U+00E9
ENCODING 233
SWIDTH 500 0
DWIDTH 8 0
BBX 7 14 0 0
BITMAP
18
10
20
00
00
38
44
82
82
FE
80
82
44
38
ENDCHAR
STARTCHAR U+00EA
ENCODING 234
SWIDTH 500 0
DWIDTH 8 0
BBX 7 14 0 0
BITMAP
30
48
84
00
00
38
44
82
82
FE
80
82
44
38
ENDCHAR
STARTCHAR U+00EB
ENCODING 235
SWIDTH 500 0
DWIDTH 8 0
BBX 7 13 0 0
BITMAP
CC
CC
00
00
38
44
82
82
FE
80
82
44
38
ENDCHAR
STARTCHAR U+00EC
ENCODING 236
SWIDTH 500 0
DWIDTH 8 0
BBX 3 14 2 0
BITMAP
C0
40
20
00
00
40
40
40
40
40
40
40
40
40
ENDCHAR
STARTCHAR U+00ED
ENCODING 237
SWIDTH 500 0
DWIDTH 8 0
BBX 3 14 2 0
BITMAP
60
40
80
00
00
40
40
40
40
40
40
40
40
40
ENDCHAR
STARTCHAR U+00EE
ENCODING 238
SWIDTH 500 0
DWIDTH 8 0
BBX 5 14 1 0
BITMAP
20
50
88
00
00
20
20
20
20
20
20
20
20
20
ENDCHAR
STARTCHAR U+00EF
ENCODING 239
SWIDTH 500 0
DWIDTH 8 0
BBX 3 13 2 0
BITMAP
A0
A0
00
00
40
40
40
40
40
40
40
40
40
ENDCHAR
STARTCHAR U+00F0
ENCODING 240
SWIDTH 500 0
DWIDTH 8 0
BBX 8 13 0 0
BITMAP
7B
0C
3A
C1
3D
43
81
81
81
81
81
42
3C
ENDCHAR
STARTCHAR U+00F1
ENCODING 241
SWIDTH 500 0
DWIDTH 8 0
BBX 7 13 0 0
BITMAP
64
98
00
00
B8
C4
82
82
82
82
82
82
82
ENDCHAR
STARTCHAR U+00F2
ENCODING 242
SWIDTH 500 0
DWIDTH 8 0
BBX 7 14 0 0
BITMAP
30
10
08
00
00
38
44
82
82
82
82
82
44
38
ENDCHAR
STARTCHAR U+00F3
ENCODING 243
SWIDTH 500 0
DWIDTH 8 0
BBX 7 14 0 0
BITMAP
18
10
20
00
00
38
44
82
82
82
82
82
44
38
ENDCHAR
STARTCHAR U+00F4
ENCODING 244
SWIDTH 500 0
DWIDTH 8 0
BBX 7 14 0 0
BITMAP
30
48
84
00
00
38
44
82
82
82
82
82
44
38
ENDCHAR
STARTCHAR U+00F5
ENCODING 245
SWIDTH 500 0
DWIDTH 8 0
BBX 7 13 0 0
BITMAP
32
4C
00
00
38
44
82
82
82
82
82
44
38
ENDCHAR
STARTCHAR U+00F6
ENCODING 246
SWIDTH 500 0
DWIDTH 8 0
BBX 7 13 0 0
BITMAP
CC
CC
00
00
38
44
82
82
82
82
82
44
38
ENDCHAR
STARTCHAR U+00F7
ENCODING 247
SWIDTH 500 0
DWIDTH 8 0
BBX 8 9 0 0
BITMAP
18
18
00
00
FF
00
00
18
18
ENDCHAR
STARTCHAR U+00F8
ENCODING 248
SWIDTH 500 0
DWIDTH 8 0
BBX 7 9 0 0
BITMAP
3A
44
8A
8A
92
A2
A2
44
B8
ENDCHAR
STARTCHAR U+00F9
ENCODING 249
SWIDTH 500 0
DWIDTH 8 0
BBX 7 14 0 0
BITMAP
30
10
08
00
00
82
82
82
82
82
82
82
46
3A
ENDCHAR
STARTCHAR U+00FA
ENCODING 250
SWIDTH 500 0
DWIDTH 8 0
BBX 7 14 0 0
BITMAP
18
10
20
00
00
82
82
82
82
82
82
82
46
3A
ENDCHAR
STARTCHAR U+00FB
ENCODING 251
SWIDTH 500 0
DWIDTH 8 0
BBX 7 14 0 0
BITMAP
30
48
84
00
00
82
82
82
82
82
82
82
46
3A
ENDCHAR
STARTCHAR U+00FC
ENCODING 252
SWIDTH 500 0
DWIDTH 8 0
BBX 7 13 0 0
BITMAP
CC
CC
00
00
82
82
82
82
82
82
82
46
3A
ENDCHAR
STARTCHAR U+00FD
ENCODING 253
SWIDTH 500 0
DWIDTH 8 0
BBX 8 16 0 -1
BITMAP
18
10
20
00
00
81
81
42
42
24
24
18
18
10
20
C0
ENDCHAR
STARTCHAR U+00FE
ENCODING 254
SWIDTH 500 0
DWIDTH 8 0
BBX 7 14 0 -1
BITMAP
80
80
80
B8
C4
82
82
82
82
82
C4
B8
80
80
ENDCHAR
STARTCHAR U+00FF
ENCODING 255
SWIDTH 500 0
DWIDTH 8 0
BBX 8 15 0 -1
BITMAP
66
66
00
00
81
81
42
42
24
24
18
18
10
20
C0
ENDCHAR
STARTCHAR U+0101
ENCODING 257
SWIDTH 500 0
DWIDTH 8 0
BBX 7 13 0 0
BITMAP
78
00
00
00
78
84
84
04
7C
84
84
8C
72
ENDCHAR
STARTCHAR U+0113
ENCODING 275
SWIDTH 500 0
DWIDTH 8 0
BBX 7 13 0 0
BITMAP
7C
00
00
00
38
44
82
82
FE
80
82
44
38
ENDCHAR
STARTCHAR U+011B
ENCODING 283
SWIDTH 500 0
DWIDTH 8 0
BBX 7 14 0 0
BITMAP
84
48
30
00
00
38
44
82
82
FE
80
82
44
38
ENDCHAR
STARTCHAR U+012B
ENCODING 299
SWIDTH 500 0
DWIDTH 8 0
BBX 5 13 1 0
BITMAP
F8
00
00
00
20
20
20
20
20
20
20
20
20
ENDCHAR
STARTCHAR U+0131
ENCODING 305
SWIDTH 500 0
DWIDTH 8 0
BBX 1 9 3 0
BITMAP
80
80
80
80
80
80
80
80
80
ENDCHAR
STARTCHAR U+0141
ENCODING 321
SWIDTH 500 0
DWIDTH 8 0
BBX 8 13 0 0
BITMAP
40
40
40
42
44
48
50
60
40
C0
40
40
7F
ENDCHAR
STARTCHAR U+0142
ENCODING 322
SWIDTH 500 0
DWIDTH 8 0
BBX 5 13 1 0
BITMAP
20
20
20
20
28
30
20
60
A0
20
20
20
20
ENDCHAR
STARTCHAR U+014D
ENCODING 333
SWIDTH 500 0
DWIDTH 8 0
BBX 7 13 0 0
BITMAP
7C
00
00
00
38
44
82
82
82
82
82
44
38
ENDCHAR
STARTCHAR U+0152
ENCODING 338
SWIDTH 500 0
DWIDTH 8 0
BBX 8 13 0 0
BITMAP
6F
98
88
88
88
88
8F
88
88
88
88
98
6F
ENDCHAR
STARTCHAR U+0153
ENCODING 339
SWIDTH 500 0
DWIDTH 8 0
BBX 8 9 0 0
BITMAP
6E
91
91
91
9F
90
90
91
6E
ENDCHAR
STARTCHAR U+0160
ENCODING 352
SWIDTH 500 0
DWIDTH 8 0
BBX 8 14 0 0
BITMAP
42
24
18
3C
42
81
81
40
3C
02
81
81
42
3C
ENDCHAR
STARTCHAR U+0161
ENCODING 353
SWIDTH 500 0
DWIDTH 8 0
BBX 8 14 0 0
BITMAP
42
24
18
00
00
7E
81
81
80
7E
01
81
81
7E
ENDCHAR
STARTCHAR U+016B
ENCODING 363
SWIDTH 500 0
DWIDTH 8 0
BBX 7 13 0 0
BITMAP
7C
00
00
00
82
82
82
82
82
82
82
46
3A
ENDCHAR
STARTCHAR U+0178
ENCODING 376
SWIDTH 500 0
DWIDTH 8 0
BBX 7 14 0 0
BITMAP
CC
CC
00
82
82
44
44
28
28
10
10
10
10
10
ENDCHAR
STARTCHAR U+017D
ENCODING 381
SWIDTH 500 0
DWIDTH 8 0
BBX 8 14 0 0
BITMAP
42
24
18
FF
01
02
04
08
10
10
20
40
80
FF
ENDCHAR
STARTCHAR U+017E
ENCODING 382
SWIDTH 500 0
DWIDTH 8 0
BBX 8 14 0 0
BITMAP
42
24
18
00
00
FF
02
04
08
10
10
20
40
FF
ENDCHAR
STARTCHAR U+0192
ENCODING 402
SWIDTH 500 0
DWIDTH 8 0
BBX 8 14 0 -1
BITMAP
07
08
08
08
7F
10
10
10
10
10
20
20
20
C0
ENDCHAR
STARTCHAR U+01CE
ENCODING 462
SWIDTH 500 0
DWIDTH 8 0
BBX 7 14 0 0
BITMAP
84
48
30
00
00
78
84
84
04
7C
84
84
8C
72
ENDCHAR
STARTCHAR U+01D0
ENCODING 464
SWIDTH 500 0
DWIDTH 8 0
BBX 6 14 0 0
BITMAP
84
48
30
00
00
10
10
10
10
10
10
10
10
10
ENDCHAR
STARTCHAR U+01D2
ENCODING 466
SWIDTH 500 0
DWIDTH 8 0
BBX 7 14 0 0
BITMAP
84
48
30
00
00
38
44
82
82
82
82
82
44
38
ENDCHAR
STARTCHAR U+01D4
ENCODING 468
SWIDTH 500 0
DWIDTH 8 0
BBX 7 14 0 0
BITMAP
84
48
30
00
00
82
82
82
82
82
82
82
46
3A
ENDCHAR
STARTCHAR U+01D6
ENCODING 470
SWIDTH 500 0
DWIDTH 8 0
BBX 7 13 0 0
BITMAP
7C
00
44
00
82
82
82
82
82
82
82
46
3A
ENDCHAR
STARTCHAR U+01D8
ENCODING 472
SWIDTH 500 0
DWIDTH 8 0
BBX 7 14 0 0
BITMAP
18
60
00
44
00
82
82
82
82
82
82
82
46
3A
ENDCHAR
STARTCHAR U+01DA
ENCODING 474
SWIDTH 500 0
DWIDTH 8 0
BBX 7 14 0 0
BITMAP
44
28
10
44
00
82
82
82
82
82
82
82
46
3A
ENDCHAR
STARTCHAR U+01DC
ENCODING 476
SWIDTH 500 0
DWIDTH 8 0
BBX 7 14 0 0
BITMAP
30
0C
00
44
00
82
82
82
82
82
82
82
46
3A
ENDCHAR
STARTCHAR U+02C6
ENCODING 710
SWIDTH 500 0
DWIDTH 8 0
BBX 6 3 1 10
BITMAP
30
78
84
ENDCHAR
STARTCHAR U+02C9
ENCODING 713
SWIDTH 500 0
DWIDTH 8 0
BBX 6 1 1 11
BITMAP
FC
ENDCHAR
STARTCHAR U+02CB
ENCODING 715
SWIDTH 500 0
DWIDTH 8 0
BBX 3 4 2 10
BITMAP
80
C0
40
20
ENDCHAR
STARTCHAR U+02DA
ENCODING 730
SWIDTH 500 0
DWIDTH 8 0
BBX 4 4 2 10
BITMAP
60
90
90
60
ENDCHAR
STARTCHAR U+02DC
ENCODING 732
SWIDTH 500 0
DWIDTH 8 0
BBX 6 2 1 11
BITMAP
64
98
ENDCHAR
STARTCHAR U+0300
ENCODING 768
SWIDTH 500 0
DWIDTH 8 0
BBX 3 4 2 10
BITMAP
80
C0
40
20
ENDCHAR
STARTCHAR U+0301
ENCODING 769
SWIDTH 500 0
DWIDTH 8 0
BBX 3 3 3 10
BITMAP
60
40
80
ENDCHAR
STARTCHAR U+0302
ENCODING 770
SWIDTH 500 0
DWIDTH 8 0
BBX 6 3 1 10
BITMAP
30
78
84
ENDCHAR
STARTCHAR U+0303
ENCODING 771
SWIDTH 500 0
DWIDTH 8 0
BBX 6 2 1 11
BITMAP
64
98
ENDCHAR
STARTCHAR U+0304
ENCODING 772
SWIDTH 500 0
DWIDTH 8 0
BBX 6 1 1 11
BITMAP
FC
ENDCHAR
STARTCHAR U+0305
ENCODING 773
SWIDTH 500 0
DWIDTH 8 0
BBX 8 1 0 13
BITMAP
FF
ENDCHAR
STARTCHAR U+0306
ENCODING 774
SWIDTH 500 0
DWIDTH 8 0
BBX 6 3 1 10
BITMAP
84
84
78
ENDCHAR
STARTCHAR U+0307
ENCODING 775
SWIDTH 500 0
DWIDTH 8 0
BBX 2 2 3 11
BITMAP
C0
C0
ENDCHAR
STARTCHAR U+0308
ENCODING 776
SWIDTH 500 0
DWIDTH 8 0
BBX 6 2 1 11
BITMAP
CC
CC
ENDCHAR
STARTCHAR U+030A
ENCODING 778
SWIDTH 500 0
DWIDTH 8 0
BBX 4 4 2 10
BITMAP
60
90
90
60
ENDCHAR
STARTCHAR U+030B
ENCODING 779
SWIDTH 500 0
DWIDTH 8 0
BBX 6 3 1 10
BITMAP
6C
48
90
ENDCHAR
STARTCHAR U+030C
ENCODING 780
SWIDTH 500 0
DWIDTH 8 0
BBX 6 3 1 10
BITMAP
84
78
30
ENDCHAR
STARTCHAR U+0327
ENCODING 807
SWIDTH 500 0
DWIDTH 8 0
BBX 4 5 2 -1
BITMAP
40
80
E0
10
E0
ENDCHAR
STARTCHAR U+0328
ENCODING 808
SWIDTH 500 0
DWIDTH 8 0
BBX 4 4 2 -1
BITMAP
40
80
80
70
ENDCHAR
STARTCHAR U+0332
ENCODING 818
SWIDTH 500 0
DWIDTH 8 0
BBX 8 1 0 -1
BITMAP
FF
ENDCHAR
STARTCHAR U+0391
ENCODING 913
SWIDTH 1000 0
DWIDTH 16 0
BBX 12 13 2 0
BITMAP
0600
0600
0900
0900
1080
1080
1080
2040
2040
7FE0
4020
8010
8010
ENDCHAR
STARTCHAR U+0392
ENCODING 914
SWIDTH 1000 0
DWIDTH 16 0
BBX 11 13 3 0
BITMAP
FF80
8040
8020
8020
8020
8040
FF80
8040
8020
8020
8020
8040
FF80
ENDCHAR
STARTCHAR U+0393
ENCODING 915
SWIDTH 1000 0
DWIDTH 16 0
BBX 10 13 3 0
BITMAP
FFC0
8000
8000
8000
8000
8000
8000
8000
8000
8000
8000
8000
8000
ENDCHAR
STARTCHAR U+0394
ENCODING 916
SWIDTH 1000 0
DWIDTH 16 0
BBX 12 13 2 0
BITMAP
0600
0600
0900
0900
1080
1080
1080
2040
2040
4020
4020
8010
FFF0
ENDCHAR
STARTCHAR U+0395
ENCODING 917
SWIDTH 1000 0
DWIDTH 16 0
BBX 10 13 3 0
BITMAP
FFC0
8000
8000
8000
8000
8000
FF80
8000
8000
8000
8000
8000
FFC0
ENDCHAR
STARTCHAR U+0396
ENCODING 918
SWIDTH 1000 0
DWIDTH 16 0
BBX 10 13 3 0
BITMAP
FFC0
0040
0080
0100
0200
0400
0400
0800
1000
2000
4000
8000
FFC0
ENDCHAR
STARTCHAR U+0397
ENCODING 919
SWIDTH 1000 0
DWIDTH 16 0
BBX 10 13 3 0
BITMAP
8040
8040
8040
8040
8040
8040
FFC0
8040
8040
8040
8040
8040
8040
ENDCHAR
STARTCHAR U+0398
ENCODING 920
SWIDTH 1000 0
DWIDTH 16 0
BBX 12 13 2 0
BITMAP
3FC0
4020
8010
8010
8010
8010
BFD0
8010
8010
8010
8010
4020
3FC0
ENDCHAR
STARTCHAR U+0399
ENCODING 921
SWIDTH 1000 0
DWIDTH 16 0
BBX 1 13 8 0
BITMAP
80
80
80
80
80
80
80
80
80
80
80
80
80
ENDCHAR
STARTCHAR U+039A
ENCODING 922
SWIDTH 1000 0
DWIDTH 16 0
BBX 10 13 3 0
BITMAP
8040
8080
8300
8400
9800
A000
C000
A000
9800
8400
8300
8080
8040
ENDCHAR
STARTCHAR U+039B
ENCODING 923
SWIDTH 1000 0
DWIDTH 16 0
BBX 12 13 2 0
BITMAP
0600
0600
0900
0900
1080
1080
1080
2040
2040
4020
4020
8010
8010
ENDCHAR
STARTCHAR U+039C
ENCODING 924
SWIDTH 1000 0
DWIDTH 16 0
BBX 13 13 2 0
BITMAP
8008
C018
C018
A028
A028
9048
9048
8888
8888
8508
8508
8208
8208
ENDCHAR
STARTCHAR U+039D
ENCODING 925
SWIDTH 1000 0
DWIDTH 16 0
BBX 10 13 3 0
BITMAP
8040
C040
A040
A040
9040
8840
8840
8440
8240
8240
8140
80C0
8040
ENDCHAR
STARTCHAR U+039E
ENCODING 926
SWIDTH 1000 0
DWIDTH 16 0
BBX 11 13 3 0
BITMAP
FFE0
0000
0000
0000
0000
0000
7FC0
0000
0000
0000
0000
0000
FFE0
ENDCHAR
STARTCHAR U+039F
ENCODING 927
SWIDTH 1000 0
DWIDTH 16 0
BBX 12 13 2 0
BITMAP
3FC0
4020
8010
8010
8010
8010
8010
8010
8010
8010
8010
4020
3FC0
ENDCHAR
STARTCHAR U+03A0
ENCODING 928
SWIDTH 1000 0
DWIDTH 16 0
BBX 12 13 2 0
BITMAP
FFF0
2040
2040
2040
2040
2040
2040
2040
2040
2040
2040
2040
2040
ENDCHAR
STARTCHAR U+03A1
ENCODING 929
SWIDTH 1000 0
DWIDTH 16 0
BBX 11 13 3 0
BITMAP
FF80
8040
8020
8020
8020
8020
8040
FF80
8000
8000
8000
8000
8000
ENDCHAR
STARTCHAR U+03A3
ENCODING 931
SWIDTH 1000 0
DWIDTH 16 0
BBX 10 13 3 0
BITMAP
FFC0
4000
3000
0800
0600
0100
0180
0100
0600
0800
3000
4000
FFC0
ENDCHAR
STARTCHAR U+03A4
ENCODING 932
SWIDTH 1000 0
DWIDTH 16 0
BBX 11 13 3 0
BITMAP
FFE0
0400
0400
0400
0400
0400
0400
0400
0400
0400
0400
0400
0400
ENDCHAR
STARTCHAR U+03A5
ENCODING 933
SWIDTH 1000 0
DWIDTH 16 0
BBX 13 13 2 0
BITMAP
38E0
4510
8508
0200
0200
0200
0200
0200
0200
0200
0200
0200
0200
ENDCHAR
STARTCHAR U+03A6
ENCODING 934
SWIDTH 1000 0
DWIDTH 16 0
BBX 11 13 3 0
BITMAP
0400
3F80
4440
8420
8420
8420
8420
8420
8420
8420
4440
3F80
0400
ENDCHAR
STARTCHAR U+03A7
ENCODING 935
SWIDTH 1000 0
DWIDTH 16 0
BBX 11 13 3 0
BITMAP
8020
4040
2080
2080
1100
0A00
0400
0A00
1100
2080
2080
4040
8020
ENDCHAR
STARTCHAR U+03A8
ENCODING 936
SWIDTH 1000 0
DWIDTH 16 0
BBX 11 13 3 0
BITMAP
8420
8420
8420
8420
8420
8420
8420
8420
8420
4440
3F80
0400
0400
ENDCHAR
STARTCHAR U+03A9
ENCODING 937
SWIDTH 1000 0
DWIDTH 16 0
BBX 12 13 2 0
BITMAP
1F80
2040
4020
8010
8010
8010
8010
8010
8010
4020
4020
30C0
F9F0
ENDCHAR
STARTCHAR U+03B1
ENCODING 945
SWIDTH 1000 0
DWIDTH 16 0
BBX 10 9 3 0
BITMAP
1C40
2240
4140
8180
8180
8100
8300
4500
38C0
ENDCHAR
STARTCHAR U+03B2
ENCODING 946
SWIDTH 1000 0
DWIDTH 16 0
BBX 10 14 3 -1
BITMAP
0F80
1040
2040
2040
2080
2F00
4080
4040
4040
4040
6080
9F00
8000
8000
ENDCHAR
STARTCHAR U+03B3
ENCODING 947
SWIDTH 1000 0
DWIDTH 16 0
BBX 10 10 3 -1
BITMAP
C040
2040
1080
1100
0900
0A00
0400
0400
0800
1000
ENDCHAR
STARTCHAR U+03B4
ENCODING 948
SWIDTH 1000 0
DWIDTH 16 0
BBX 9 13 4 0
BITMAP
3F80
1800
0400
0200
1F00
2180
4080
8080
8080
8080
8100
4200
3C00
ENDCHAR
STARTCHAR U+03B5
ENCODING 949
SWIDTH 1000 0
DWIDTH 16 0
BBX 8 9 4 0
BITMAP
1E
21
40
40
3E
40
80
81
7E
ENDCHAR
STARTCHAR U+03B6
ENCODING 950
SWIDTH 1000 0
DWIDTH 16 0
BBX 10 14 3 -1
BITMAP
3FC0
0180
0200
0C00
1000
2000
4000
8000
8000
8000
4000
3F80
0100
0200
ENDCHAR
STARTCHAR U+03B7
ENCODING 951
SWIDTH 1000 0
DWIDTH 16 0
BBX 9 10 4 -1
BITMAP
CF00
3080
2080
2080
2080
2080
4100
4100
4100
0100
ENDCHAR
STARTCHAR U+03B8
ENCODING 952
SWIDTH 1000 0
DWIDTH 16 0
BBX 10 13 3 0
BITMAP
0F00
1080
2040
4040
4040
8040
FFC0
8040
8080
8080
8100
4200
3C00
ENDCHAR
STARTCHAR U+03B9
ENCODING 953
SWIDTH 1000 0
DWIDTH 16 0
BBX 3 9 7 0
BITMAP
40
40
40
40
80
80
80
80
60
ENDCHAR
STARTCHAR U+03BA
ENCODING 954
SWIDTH 1000 0
DWIDTH 16 0
BBX 9 9 4 0
BITMAP
2080
2100
2200
4C00
5400
6400
8200
8200
8180
ENDCHAR
STARTCHAR U+03BB
ENCODING 955
SWIDTH 1000 0
DWIDTH 16 0
BBX 10 12 3 0
BITMAP
1800
0400
0400
0400
0600
0A00
0A00
1200
2100
2100
4100
80C0
ENDCHAR
STARTCHAR U+03BC
ENCODING 956
SWIDTH 1000 0
DWIDTH 16 0
BBX 10 10 3 -1
BITMAP
2040
2040
2040
4040
4080
4080
4080
A180
9E40
8000
ENDCHAR
STARTCHAR U+03BD
ENCODING 957
SWIDTH 1000 0
DWIDTH 16 0
BBX 9 9 4 0
BITMAP
8080
8100
8100
4200
4400
4400
2800
3000
3000
ENDCHAR
STARTCHAR U+03BE
ENCODING 958
SWIDTH 1000 0
DWIDTH 16 0
BBX 10 14 3 -1
BITMAP
7FC0
1000
2000
2000
2000
1F80
2000
4000
8000
8000
8000
4380
3C80
0100
ENDCHAR
STARTCHAR U+03BF
ENCODING 959
SWIDTH 1000 0
DWIDTH 16 0
BBX 10 9 3 0
BITMAP
1F00
2080
4040
8040
8040
8040
8080
4100
3E00
ENDCHAR
STARTCHAR U+03C0
ENCODING 960
SWIDTH 1000 0
DWIDTH 16 0
BBX 10 9 3 0
BITMAP
FFC0
2100
2100
2100
4100
4200
4200
4200
4180
ENDCHAR
STARTCHAR U+03C1
ENCODING 961
SWIDTH 1000 0
DWIDTH 16 0
BBX 10 10 3 -1
BITMAP
0F00
1080
2040
2040
4040
4040
4080
6100
9E00
8000
ENDCHAR
STARTCHAR U+03C2
ENCODING 962
SWIDTH 1000 0
DWIDTH 16 0
BBX 9 10 3 -1
BITMAP
0F80
3000
4000
8000
8000
8000
4000
3E00
0100
0600
ENDCHAR
STARTCHAR U+03C3
ENCODING 963
SWIDTH 1000 0
DWIDTH 16 0
BBX 11 9 3 0
BITMAP
1FE0
2100
4080
8080
8080
8080
8100
4200
3C00
ENDCHAR
STARTCHAR U+03C4
ENCODING 964
SWIDTH 1000 0
DWIDTH 16 0
BBX 8 9 4 0
BITMAP
FF
10
10
10
20
20
20
20
18
ENDCHAR
STARTCHAR U+03C5
ENCODING 965
SWIDTH 1000 0
DWIDTH 16 0
BBX 8 9 4 0
BITMAP
41
41
41
41
82
82
82
84
78
ENDCHAR
STARTCHAR U+03C6
ENCODING 966
SWIDTH 1000 0
DWIDTH 16 0
BBX 10 13 3 -1
BITMAP
0200
0200
1F00
2480
4440
8440
8840
8840
8880
4900
3E00
1000
1000
ENDCHAR
STARTCHAR U+03C7
ENCODING 967
SWIDTH 1000 0
DWIDTH 16 0
BBX 8 10 4 -1
BITMAP
C1
22
22
14
18
08
18
28
44
83
ENDCHAR
STARTCHAR U+03C8
ENCODING 968
SWIDTH 1000 0
DWIDTH 16 0
BBX 10 14 3 -1
BITMAP
0200
0200
0200
4440
4440
4440
8440
8840
8880
8880
4900
3E00
1000
1000
ENDCHAR
STARTCHAR U+03C9
ENCODING 969
SWIDTH 1000 0
DWIDTH 16 0
BBX 12 9 2 0
BITMAP
1040
2020
4020
4210
8210
8610
8610
8A20
71C0
ENDCHAR
STARTCHAR U+0401
ENCODING 1025
SWIDTH 1000 0
DWIDTH 16 0
BBX 10 14 3 0
BITMAP
3300
3300
FFC0
8000
8000
8000
8000
FF80
8000
8000
8000
8000
8000
FFC0
ENDCHAR
STARTCHAR U+0410
ENCODING 1040
SWIDTH 1000 0
DWIDTH 16 0
BBX 12 13 2 0
BITMAP
0600
0600
0900
0900
1080
1080
1080
2040
2040
7FE0
4020
8010
8010
ENDCHAR
STARTCHAR U+0411
ENCODING 1041
SWIDTH 1000 0
DWIDTH 16 0
BBX 10 13 3 0
BITMAP
FF80
8000
8000
8000
8000
FF00
8080
8040
8040
8040
8040
8080
FF00
ENDCHAR
STARTCHAR U+0412
ENCODING 1042
SWIDTH 1000 0
DWIDTH 16 0
BBX 11 13 3 0
BITMAP
FF80
8040
8020
8020
8020
8040
FF80
8040
8020
8020
8020
8040
FF80
ENDCHAR
STARTCHAR U+0413
ENCODING 1043
SWIDTH 1000 0
DWIDTH 16 0
BBX 10 13 3 0
BITMAP
FFC0
8000
8000
8000
8000
8000
8000
8000
8000
8000
8000
8000
8000
ENDCHAR
STARTCHAR U+0414
ENCODING 1044
SWIDTH 1000 0
DWIDTH 16 0
BBX 14 14 1 -1
BITMAP
1FF0
1010
1010
1010
1010
1010
1010
1010
1010
1010
2010
2010
FFFC
8004
ENDCHAR
STARTCHAR U+0415
ENCODING 1045
SWIDTH 1000 0
DWIDTH 16 0
BBX 10 13 3 0
BITMAP
FFC0
8000
8000
8000
8000
8000
FF80
8000
8000
8000
8000
8000
FFC0
ENDCHAR
STARTCHAR U+0416
ENCODING 1046
SWIDTH 1000 0
DWIDTH 16 0
BBX 13 13 2 0
BITMAP
8208
8208
8208
4210
4210
2220
1FC0
2220
2220
4210
4210
8208
8208
ENDCHAR
STARTCHAR U+0417
ENCODING 1047
SWIDTH 1000 0
DWIDTH 16 0
BBX 10 13 3 0
BITMAP
3F00
4080
8040
8040
0040
0080
3F00
0080
0040
8040
8040
4080
3F00
ENDCHAR
STARTCHAR U+0418
ENCODING 1048
SWIDTH 1000 0
DWIDTH 16 0
BBX 10 13 3 0
BITMAP
8040
80C0
8140
8240
8240
8440
8840
8840
9040
A040
A040
C040
8040
ENDCHAR
STARTCHAR U+0419
ENCODING 1049
SWIDTH 1000 0
DWIDTH 16 0
BBX 10 14 3 0
BITMAP
2200
1C00
80C0
8140
8240
8240
8440
8840
8840
9040
A040
A040
C040
8040
ENDCHAR
STARTCHAR U+041A
ENCODING 1050
SWIDTH 1000 0
DWIDTH 16 0
BBX 11 13 3 0
BITMAP
8040
8040
8080
8080
8100
8600
F800
8400
8200
8100
8080
8040
8020
ENDCHAR
STARTCHAR U+041B
ENCODING 1051
SWIDTH 1000 0
DWIDTH 16 0
BBX 11 13 3 0
BITMAP
3FE0
2020
2020
2020
2020
2020
2020
2020
2020
2020
4020
4020
8020
ENDCHAR
STARTCHAR U+041C
ENCODING 1052
SWIDTH 1000 0
DWIDTH 16 0
BBX 13 13 2 0
BITMAP
8008
C018
C018
A028
A028
9048
9048
8888
8888
8508
8508
8208
8208
ENDCHAR
STARTCHAR U+041D
ENCODING 1053
SWIDTH 1000 0
DWIDTH 16 0
BBX 10 13 3 0
BITMAP
8040
8040
8040
8040
8040
8040
FFC0
8040
8040
8040
8040
8040
8040
ENDCHAR
STARTCHAR U+041E
ENCODING 1054
SWIDTH 1000 0
DWIDTH 16 0
BBX 12 13 2 0
BITMAP
3FC0
4020
8010
8010
8010
8010
8010
8010
8010
8010
8010
4020
3FC0
ENDCHAR
STARTCHAR U+041F
ENCODING 1055
SWIDTH 1000 0
DWIDTH 16 0
BBX 10 13 3 0
BITMAP
FFC0
8040
8040
8040
8040
8040
8040
8040
8040
8040
8040
8040
8040
ENDCHAR
STARTCHAR U+0420
ENCODING 1056
SWIDTH 1000 0
DWIDTH 16 0
BBX 11 13 3 0
BITMAP
FF80
8040
8020
8020
8020
8020
8040
FF80
8000
8000
8000
8000
8000
ENDCHAR
STARTCHAR U+0421
ENCODING 1057
SWIDTH 1000 0
DWIDTH 16 0
BBX 11 13 3 0
BITMAP
3F80
4040
8020
8020
8000
8000
8000
8000
8020
8020
8020
4040
3F80
ENDCHAR
STARTCHAR U+0422
ENCODING 1058
SWIDTH 1000 0
DWIDTH 16 0
BBX 11 13 3 0
BITMAP
FFE0
0400
0400
0400
0400
0400
0400
0400
0400
0400
0400
0400
0400
ENDCHAR
STARTCHAR U+0423
ENCODING 1059
SWIDTH 1000 0
DWIDTH 16 0
BBX 11 13 3 0
BITMAP
8020
8020
4040
2080
2080
1100
0A00
0A00
0400
0800
0800
1000
2000
ENDCHAR
STARTCHAR U+0424
ENCODING 1060
SWIDTH 1000 0
DWIDTH 16 0
BBX 12 13 2 0
BITMAP
0400
3FC0
4420
8410
8410
8410
8410
8410
8410
8410
4420
3FC0
0400
ENDCHAR
STARTCHAR U+0425
ENCODING 1061
SWIDTH 1000 0
DWIDTH 16 0
BBX 11 13 3 0
BITMAP
8020
4040
2080
2080
1100
0A00
0400
0A00
1100
2080
2080
4040
8020
ENDCHAR
STARTCHAR U+0426
ENCODING 1062
SWIDTH 1000 0
DWIDTH 16 0
BBX 11 14 3 -1
BITMAP
8040
8040
8040
8040
8040
8040
8040
8040
8040
8040
8040
8040
FFE0
0020
ENDCHAR
STARTCHAR U+0427
ENCODING 1063
SWIDTH 1000 0
DWIDTH 16 0
BBX 10 13 3 0
BITMAP
8040
8040
8040
8040
8040
8040
8040
80C0
4140
3E40
0040
0040
0040
ENDCHAR
STARTCHAR U+0428
ENCODING 1064
SWIDTH 1000 0
DWIDTH 16 0
BBX 13 13 2 0
BITMAP
8208
8208
8208
8208
8208
8208
8208
8208
8208
8208
8208
8208
FFF8
ENDCHAR
STARTCHAR U+0429
ENCODING 1065
SWIDTH 1000 0
DWIDTH 16 0
BBX 14 14 1 -1
BITMAP
8208
8208
8208
8208
8208
8208
8208
8208
8208
8208
8208
8208
FFFC
0004
ENDCHAR
STARTCHAR U+042A
ENCODING 1066
SWIDTH 1000 0
DWIDTH 16 0
BBX 14 13 1 0
BITMAP
F800
0800
0800
0800
0800
0FF0
0808
0804
0804
0804
0804
0808
0FF0
ENDCHAR
STARTCHAR U+042B
ENCODING 1067
SWIDTH 1000 0
DWIDTH 16 0
BBX 13 13 2 0
BITMAP
8008
8008
8008
8008
8008
FF08
8088
8048
8048
8048
8048
8088
FF08
ENDCHAR
STARTCHAR U+042C
ENCODING 1068
SWIDTH 1000 0
DWIDTH 16 0
BBX 10 13 3 0
BITMAP
8000
8000
8000
8000
8000
FF00
8080
8040
8040
8040
8040
8080
FF00
ENDCHAR
STARTCHAR U+042D
ENCODING 1069
SWIDTH 1000 0
DWIDTH 16 0
BBX 12 13 2 0
BITMAP
3FC0
4020
8010
8010
0010
0010
1FF0
0010
0010
8010
8010
4020
3FC0
ENDCHAR
STARTCHAR U+042E
ENCODING 1070
SWIDTH 1000 0
DWIDTH 16 0
BBX 14 13 1 0
BITMAP
83F0
8408
8804
8804
8804
8804
F804
8804
8804
8804
8804
8408
83F0
ENDCHAR
STARTCHAR U+042F
ENCODING 1071
SWIDTH 1000 0
DWIDTH 16 0
BBX 11 13 3 0
BITMAP
3FE0
4020
8020
8020
8020
4020
3FE0
4020
4020
4020
8020
8020
8020
ENDCHAR
STARTCHAR U+0430
ENCODING 1072
SWIDTH 1000 0
DWIDTH 16 0
BBX 9 9 4 0
BITMAP
7E00
8100
0100
7F00
8100
8100
8100
8300
7C80
ENDCHAR
STARTCHAR U+0431
ENCODING 1073
SWIDTH 1000 0
DWIDTH 16 0
BBX 9 12 4 0
BITMAP
0F00
3000
4000
7E00
C100
8080
8080
8080
8080
8080
4100
3E00
ENDCHAR
STARTCHAR U+0432
ENCODING 1074
SWIDTH 1000 0
DWIDTH 16 0
BBX 8 9 4 0
BITMAP
FE
81
81
81
FE
81
81
81
FE
ENDCHAR
STARTCHAR U+0433
ENCODING 1075
SWIDTH 1000 0
DWIDTH 16 0
BBX 7 9 5 0
BITMAP
FE
80
80
80
80
80
80
80
80
ENDCHAR
STARTCHAR U+0434
ENCODING 1076
SWIDTH 1000 0
DWIDTH 16 0
BBX 11 10 3 -1
BITMAP
1F80
1080
1080
1080
1080
1080
2080
2080
FFE0
8020
ENDCHAR
STARTCHAR U+0435
ENCODING 1077
SWIDTH 1000 0
DWIDTH 16 0
BBX 9 9 4 0
BITMAP
3E00
4100
8080
8080
FF80
8000
8080
4100
3E00
ENDCHAR
STARTCHAR U+0436
ENCODING 1078
SWIDTH 1000 0
DWIDTH 16 0
BBX 11 9 3 0
BITMAP
8420
8420
4440
4440
3F80
2480
4440
4440
8420
ENDCHAR
STARTCHAR U+0437
ENCODING 1079
SWIDTH 1000 0
DWIDTH 16 0
BBX 8 9 4 0
BITMAP
7E
81
81
01
3E
01
81
81
7E
ENDCHAR
STARTCHAR U+0438
ENCODING 1080
SWIDTH 1000 0
DWIDTH 16 0
BBX 8 9 4 0
BITMAP
81
83
85
89
91
91
A1
C1
81
ENDCHAR
STARTCHAR U+0439
ENCODING 1081
SWIDTH 1000 0
DWIDTH 16 0
BBX 8 12 4 0
BITMAP
44
38
00
81
83
85
89
91
91
A1
C1
81
ENDCHAR
STARTCHAR U+043A
ENCODING 1082
SWIDTH 1000 0
DWIDTH 16 0
BBX 9 9 4 0
BITMAP
8100
8100
8200
8400
F800
8400
8200
8100
8080
ENDCHAR
STARTCHAR U+043B
ENCODING 1083
SWIDTH 1000 0
DWIDTH 16 0
BBX 10 9 3 0
BITMAP
3FC0
2040
2040
2040
2040
2040
4040
4040
8040
ENDCHAR
STARTCHAR U+043C
ENCODING 1084
SWIDTH 1000 0
DWIDTH 16 0
BBX 10 9 3 0
BITMAP
8040
C0C0
C0C0
A140
A140
9240
9240
8C40
8C40
ENDCHAR
STARTCHAR U+043D
ENCODING 1085
SWIDTH 1000 0
DWIDTH 16 0
BBX 8 9 4 0
BITMAP
81
81
81
81
FF
81
81
81
81
ENDCHAR
STARTCHAR U+043E
ENCODING 1086
SWIDTH 1000 0
DWIDTH 16 0
BBX 9 9 4 0
BITMAP
3E00
4100
8080
8080
8080
8080
8080
4100
3E00
ENDCHAR
STARTCHAR U+043F
ENCODING 1087
SWIDTH 1000 0
DWIDTH 16 0
BBX 8 9 4 0
BITMAP
FF
81
81
81
81
81
81
81
81
ENDCHAR
STARTCHAR U+0440
ENCODING 1088
SWIDTH 1000 0
DWIDTH 16 0
BBX 9 10 4 -1
BITMAP
BE00
C100
8080
8080
8080
8080
C100
BE00
8000
8000
ENDCHAR
STARTCHAR U+0441
ENCODING 1089
SWIDTH 1000 0
DWIDTH 16 0
BBX 9 9 4 0
BITMAP
3E00
4100
8080
8000
8000
8000
8080
4100
3E00
ENDCHAR
STARTCHAR U+0442
ENCODING 1090
SWIDTH 1000 0
DWIDTH 16 0
BBX 9 9 4 0
BITMAP
FF80
0800
0800
0800
0800
0800
0800
0800
0800
ENDCHAR
STARTCHAR U+0443
ENCODING 1091
SWIDTH 1000 0
DWIDTH 16 0
BBX 8 10 4 -1
BITMAP
81
81
42
42
24
24
18
08
10
20
ENDCHAR
STARTCHAR U+0444
ENCODING 1092
SWIDTH 1000 0
DWIDTH 16 0
BBX 13 14 2 -1
BITMAP
0200
0200
0200
3AE0
4710
8208
8208
8208
8208
8208
4710
3AE0
0200
0200
ENDCHAR
STARTCHAR U+0445
ENCODING 1093
SWIDTH 1000 0
DWIDTH 16 0
BBX 9 9 4 0
BITMAP
8080
4100
2200
1400
0800
1400
2200
4100
8080
ENDCHAR
STARTCHAR U+0446
ENCODING 1094
SWIDTH 1000 0
DWIDTH 16 0
BBX 10 10 3 -1
BITMAP
8100
8100
8100
8100
8100
8100
8100
8100
FFC0
0040
ENDCHAR
STARTCHAR U+0447
ENCODING 1095
SWIDTH 1000 0
DWIDTH 16 0
BBX 8 9 4 0
BITMAP
81
81
81
81
81
83
7D
01
01
ENDCHAR
STARTCHAR U+0448
ENCODING 1096
SWIDTH 1000 0
DWIDTH 16 0
BBX 11 9 3 0
BITMAP
8420
8420
8420
8420
8420
8420
8420
8420
FFE0
ENDCHAR
STARTCHAR U+0449
ENCODING 1097
SWIDTH 1000 0
DWIDTH 16 0
BBX 13 10 2 -1
BITMAP
8420
8420
8420
8420
8420
8420
8420
8420
FFF8
0008
ENDCHAR
STARTCHAR U+044A
ENCODING 1098
SWIDTH 1000 0
DWIDTH 16 0
BBX 11 9 3 0
BITMAP
F000
1000
1000
1FC0
1020
1020
1020
1020
1FC0
ENDCHAR
STARTCHAR U+044B
ENCODING 1099
SWIDTH 1000 0
DWIDTH 16 0
BBX 10 9 3 0
BITMAP
8040
8040
8040
FE40
8140
8140
8140
8140
FE40
ENDCHAR
STARTCHAR U+044C
ENCODING 1100
SWIDTH 1000 0
DWIDTH 16 0
BBX 8 9 4 0
BITMAP
80
80
80
FE
81
81
81
81
FE
ENDCHAR
STARTCHAR U+044D
ENCODING 1101
SWIDTH 1000 0
DWIDTH 16 0
BBX 8 9 4 0
BITMAP
7E
81
81
01
3F
01
81
81
7E
ENDCHAR
STARTCHAR U+044E
ENCODING 1102
SWIDTH 1000 0
DWIDTH 16 0
BBX 11 9 3 0
BITMAP
8780
8840
9020
9020
F020
9020
9020
8840
8780
ENDCHAR
STARTCHAR U+044F
ENCODING 1103
SWIDTH 1000 0
DWIDTH 16 0
BBX 8 9 4 0
BITMAP
7F
81
81
81
7F
41
81
81
81
ENDCHAR
STARTCHAR U+0451
ENCODING 1105
SWIDTH 1000 0
DWIDTH 16 0
BBX 9 12 4 0
BITMAP
6300
6300
0000
3E00
4100
8080
8080
FF80
8000
8080
4100
3E00
ENDCHAR
STARTCHAR U+2002
ENCODING 8194
SWIDTH 500 0
DWIDTH 8 0
BBX 0 0 0 0
BITMAP
ENDCHAR
STARTCHAR U+2010
ENCODING 8208
SWIDTH 1000 0
DWIDTH 16 0
BBX 7 1 5 5
BITMAP
FE
ENDCHAR
STARTCHAR U+2011
ENCODING 8209
SWIDTH 500 0
DWIDTH 8 0
BBX 6 1 1 3
BITMAP
FC
ENDCHAR
STARTCHAR U+2013
ENCODING 8211
SWIDTH 500 0
DWIDTH 8 0
BBX 8 1 0 3
BITMAP
FF
ENDCHAR
STARTCHAR U+2014
ENCODING 8212
SWIDTH 500 0
DWIDTH 8 0
BBX 8 1 0 3
BITMAP
FF
ENDCHAR
STARTCHAR U+2015
ENCODING 8213
SWIDTH 1000 0
DWIDTH 16 0
BBX 16 1 0 5
BITMAP
FFFF
ENDCHAR
STARTCHAR U+2016
ENCODING 8214
SWIDTH 1000 0
DWIDTH 16 0
BBX 4 16 6 -2
BITMAP
90
90
90
90
90
90
90
90
90
90
90
90
90
90
90
90
ENDCHAR
STARTCHAR U+2018
ENCODING 8216
SWIDTH 500 0
DWIDTH 8 0
BBX 2 4 2 9
BITMAP
40
80
C0
C0
ENDCHAR
STARTCHAR U+2019
ENCODING 8217
SWIDTH 500 0
DWIDTH 8 0
BBX 2 4 2 9
BITMAP
C0
C0
40
80
ENDCHAR
STARTCHAR U+201A
ENCODING 8218
SWIDTH 500 0
DWIDTH 8 0
BBX 2 4 1 -1
BITMAP
C0
C0
40
80
ENDCHAR
STARTCHAR U+201C
ENCODING 8220
SWIDTH 500 0
DWIDTH 8 0
BBX 5 4 1 9
BITMAP
48
90
D8
D8
ENDCHAR
STARTCHAR U+201D
ENCODING 8221
SWIDTH 500 0
DWIDTH 8 0
BBX 5 4 1 9
BITMAP
D8
D8
48
90
ENDCHAR
STARTCHAR U+201E
ENCODING 8222
SWIDTH 500 0
DWIDTH 8 0
BBX 5 4 1 -1
BITMAP
D8
D8
48
90
ENDCHAR
STARTCHAR U+2020
ENCODING 8224
SWIDTH 1000 0
DWIDTH 16 0
BBX 7 14 4 -1
BITMAP
10
10
10
10
FE
10
10
10
10
10
10
10
10
10
ENDCHAR
STARTCHAR U+2021
ENCODING 8225
SWIDTH 1000 0
DWIDTH 16 0
BBX 7 14 4 -1
BITMAP
10
10
10
FE
10
10
10
10
10
10
FE
10
10
10
ENDCHAR
STARTCHAR U+2022
ENCODING 8226
SWIDTH 500 0
DWIDTH 8 0
BBX 5 5 1 3
BITMAP
70
F8
F8
F8
70
ENDCHAR
STARTCHAR U+2025
ENCODING 8229
SWIDTH 1000 0
DWIDTH 16 0
BBX 10 2 3 5
BITMAP
C0C0
C0C0
ENDCHAR
STARTCHAR U+2026
ENCODING 8230
SWIDTH 1000 0
DWIDTH 16 0
BBX 12 2 2 5
BITMAP
C630
C630
ENDCHAR
STARTCHAR U+2030
ENCODING 8240
SWIDTH 1000 0
DWIDTH 16 0
BBX 15 13 0 0
BITMAP
7040
8880
8900
8900
8A00
7400
0800
0B9C
1462
2462
2462
4462
839C
ENDCHAR
STARTCHAR U+2031
ENCODING 8241
SWIDTH 1000 0
DWIDTH 16 0
BBX 15 13 0 0
BITMAP
7040
8880
8900
8900
8A00
7400
0800
0B6C
1492
2492
2492
4492
836C
ENDCHAR
STARTCHAR U+2032
ENCODING 8242
SWIDTH 1000 0
DWIDTH 16 0
BBX 3 4 0 10
BITMAP
20
60
40
80
ENDCHAR
STARTCHAR U+2033
ENCODING 8243
SWIDTH 1000 0
DWIDTH 16 0
BBX 6 4 0 10
BITMAP
24
6C
48
90
ENDCHAR
STARTCHAR U+2039
ENCODING 8249
SWIDTH 500 0
DWIDTH 8 0
BBX 5 9 1 0
BITMAP
08
10
20
40
80
40
20
10
08
ENDCHAR
STARTCHAR U+203A
ENCODING 8250
SWIDTH 500 0
DWIDTH 8 0
BBX 5 9 1 0
BITMAP
80
40
20
10
08
10
20
40
80
ENDCHAR
STARTCHAR U+203B
ENCODING 8251
SWIDTH 1000 0
DWIDTH 16 0
BBX 12 12 2 0
BITMAP
8610
4620
2040
1080
0900
C630
C630
0900
1080
2040
4620
8610
ENDCHAR
STARTCHAR U+203E
ENCODING 8254
SWIDTH 500 0
DWIDTH 8 0
BBX 8 1 0 13
BITMAP
FF
ENDCHAR
STARTCHAR U+2044
ENCODING 8260
SWIDTH 500 0
DWIDTH 8 0
BBX 5 13 1 0
BITMAP
08
08
10
10
10
20
20
20
40
40
40
80
80
ENDCHAR
STARTCHAR U+2047
ENCODING 8263
SWIDTH 1000 0
DWIDTH 16 0
BBX 15 14 0 0
BITMAP
3838
4444
8282
8282
8282
0404
0808
1010
2020
2020
2020
0000
3030
3030
ENDCHAR
STARTCHAR U+2048
ENCODING 8264
SWIDTH 1000 0
DWIDTH 16 0
BBX 15 14 0 0
BITMAP
3FC0
4022
8012
8012
8012
0022
00C2
0302
0402
0402
0402
0000
0606
0606
ENDCHAR
STARTCHAR U+2049
ENCODING 8265
SWIDTH 1000 0
DWIDTH 16 0
BBX 15 14 0 0
BITMAP
07F8
4804
5002
5002
5002
4004
4018
4060
4080
4080
4080
0000
C0C0
C0C0
ENDCHAR
STARTCHAR U+205A
ENCODING 8282
SWIDTH 1000 0
DWIDTH 16 0
BBX 2 10 7 2
BITMAP
C0
C0
00
00
00
00
00
00
C0
C0
ENDCHAR
STARTCHAR U+205D
ENCODING 8285
SWIDTH 1000 0
DWIDTH 16 0
BBX 2 12 7 1
BITMAP
C0
C0
00
00
00
C0
C0
00
00
00
C0
C0
ENDCHAR
STARTCHAR U+2074
ENCODING 8308
SWIDTH 500 0
DWIDTH 8 0
BBX 5 7 1 6
BITMAP
10
30
50
50
90
F8
10
ENDCHAR
STARTCHAR U+20AC
ENCODING 8364
SWIDTH 500 0
DWIDTH 8 0
BBX 8 13 0 0
BITMAP
0C
12
21
21
20
FC
20
20
FD
21
21
12
0C
ENDCHAR
STARTCHAR U+2103
ENCODING 8451
SWIDTH 1000 0
DWIDTH 16 0
BBX 15 14 0 0
BITMAP
6000
91F8
9604
6402
0802
0800
0800
0800
0800
0800
0802
0402
0604
01F8
ENDCHAR
STARTCHAR U+2109
ENCODING 8457
SWIDTH 1000 0
DWIDTH 16 0
BBX 14 14 0 0
BITMAP
6000
97FC
9400
6400
0400
0400
0400
07F8
0400
0400
0400
0400
0400
0400
ENDCHAR
STARTCHAR U+210A
ENCODING 8458
SWIDTH 1000 0
DWIDTH 16 0
BBX 9 10 3 -1
BITMAP
7E80
8100
8100
8100
7E00
8000
7F00
8080
8080
7F00
ENDCHAR
STARTCHAR U+2113
ENCODING 8467
SWIDTH 1000 0
DWIDTH 16 0
BBX 9 12 3 0
BITMAP
0600
0900
1100
1100
1200
2200
2400
2800
3080
6080
9100
0E00
ENDCHAR
STARTCHAR U+2116
ENCODING 8470
SWIDTH 1000 0
DWIDTH 16 0
BBX 15 13 0 0
BITMAP
8400
8400
C400
C400
A460
A490
A508
9508
9508
9508
8D08
8C96
8466
ENDCHAR
STARTCHAR U+2121
ENCODING 8481
SWIDTH 1000 0
DWIDTH 16 0
BBX 15 13 0 0
BITMAP
FE00
1000
1000
1000
13D0
1210
1210
1210
1390
1210
1210
1210
13DE
ENDCHAR
STARTCHAR U+2122
ENCODING 8482
SWIDTH 500 0
DWIDTH 8 0
BBX 8 6 0 7
BITMAP
F1
5B
55
51
51
51
ENDCHAR
STARTCHAR U+212B
ENCODING 8491
SWIDTH 1000 0
DWIDTH 16 0
BBX 12 15 1 -1
BITMAP
0600
0900
0900
0600
0000
0600
0900
0900
1080
1080
2040
3FC0
4020
4020
8010
ENDCHAR
STARTCHAR U+213B
ENCODING 8507
SWIDTH 1000 0
DWIDTH 16 0
BBX 15 13 0 0
BITMAP
FA22
8222
8214
8514
8514
8508
F508
8888
8894
8F94
9054
9062
9062
ENDCHAR
STARTCHAR U+2160
ENCODING 8544
SWIDTH 1000 0
DWIDTH 16 0
BBX 1 13 7 0
BITMAP
80
80
80
80
80
80
80
80
80
80
80
80
80
ENDCHAR
STARTCHAR U+2161
ENCODING 8545
SWIDTH 1000 0
DWIDTH 16 0
BBX 6 13 4 0
BITMAP
84
84
84
84
84
84
84
84
84
84
84
84
84
ENDCHAR
STARTCHAR U+2162
ENCODING 8546
SWIDTH 1000 0
DWIDTH 16 0
BBX 11 13 2 0
BITMAP
8420
8420
8420
8420
8420
8420
8420
8420
8420
8420
8420
8420
8420
ENDCHAR
STARTCHAR U+2163
ENCODING 8547
SWIDTH 1000 0
DWIDTH 16 0
BBX 12 13 1 0
BITMAP
9010
9010
9010
8820
8820
8820
8440
8440
8440
8280
8280
8100
8100
ENDCHAR
STARTCHAR U+2164
ENCODING 8548
SWIDTH 1000 0
DWIDTH 16 0
BBX 11 13 2 0
BITMAP
8020
8020
8020
4040
4040
2080
2080
2080
1100
1100
0A00
0A00
0400
ENDCHAR
STARTCHAR U+2165
ENCODING 8549
SWIDTH 1000 0
DWIDTH 16 0
BBX 12 13 1 0
BITMAP
8090
8090
8090
4110
4110
4110
2210
2210
2210
1410
1410
0810
0810
ENDCHAR
STARTCHAR U+2166
ENCODING 8550
SWIDTH 1000 0
DWIDTH 16 0
BBX 14 13 0 0
BITMAP
80A4
80A4
80A4
4124
4124
4124
2224
2224
2224
1424
1424
0824
0824
ENDCHAR
STARTCHAR U+2167
ENCODING 8551
SWIDTH 1000 0
DWIDTH 16 0
BBX 15 13 0 0
BITMAP
8292
8292
8292
8292
4492
4492
4492
2892
2892
2892
1092
1092
1092
ENDCHAR
STARTCHAR U+2168
ENCODING 8552
SWIDTH 1000 0
DWIDTH 16 0
BBX 12 13 1 0
BITMAP
9010
9010
8820
8440
8440
8280
8100
8280
8440
8440
8820
9010
9010
ENDCHAR
STARTCHAR U+2169
ENCODING 8553
SWIDTH 1000 0
DWIDTH 16 0
BBX 11 13 2 0
BITMAP
8020
4040
2080
2080
1100
0A00
0400
0A00
1100
2080
2080
4040
8020
ENDCHAR
STARTCHAR U+216A
ENCODING 8554
SWIDTH 1000 0
DWIDTH 16 0
BBX 12 13 1 0
BITMAP
8090
8090
4110
2210
2210
1410
0810
1410
2210
2210
4110
8090
8090
ENDCHAR
STARTCHAR U+216B
ENCODING 8555
SWIDTH 1000 0
DWIDTH 16 0
BBX 14 13 0 0
BITMAP
80A4
80A4
4124
2224
2224
1424
0824
1424
2224
2224
4124
80A4
80A4
ENDCHAR
STARTCHAR U+216C
ENCODING 8556
SWIDTH 1000 0
DWIDTH 16 0
BBX 9 13 3 0
BITMAP
8000
8000
8000
8000
8000
8000
8000
8000
8000
8000
8000
8000
FF80
ENDCHAR
STARTCHAR U+216D
ENCODING 8557
SWIDTH 1000 0
DWIDTH 16 0
BBX 11 13 2 0
BITMAP
3F80
4040
8020
8020
8000
8000
8000
8000
8020
8020
8020
4040
3F80
ENDCHAR
STARTCHAR U+216E
ENCODING 8558
SWIDTH 1000 0
DWIDTH 16 0
BBX 11 13 2 0
BITMAP
FF80
8040
8020
8020
8020
8020
8020
8020
8020
8020
8020
8040
FF80
ENDCHAR
STARTCHAR U+216F
ENCODING 8559
SWIDTH 1000 0
DWIDTH 16 0
BBX 13 13 1 0
BITMAP
8008
C018
C018
A028
A028
9048
9048
8888
8888
8508
8508
8208
8208
ENDCHAR
STARTCHAR U+2170
ENCODING 8560
SWIDTH 1000 0
DWIDTH 16 0
BBX 1 12 7 0
BITMAP
80
80
00
80
80
80
80
80
80
80
80
80
ENDCHAR
STARTCHAR U+2171
ENCODING 8561
SWIDTH 1000 0
DWIDTH 16 0
BBX 6 12 4 0
BITMAP
84
84
00
84
84
84
84
84
84
84
84
84
ENDCHAR
STARTCHAR U+2172
ENCODING 8562
SWIDTH 1000 0
DWIDTH 16 0
BBX 11 12 2 0
BITMAP
8420
8420
0000
8420
8420
8420
8420
8420
8420
8420
8420
8420
ENDCHAR
STARTCHAR U+2173
ENCODING 8563
SWIDTH 1000 0
DWIDTH 16 0
BBX 12 12 1 0
BITMAP
8000
8000
0000
9010
9010
8820
8820
8440
8440
8280
8280
8100
ENDCHAR
STARTCHAR U+2174
ENCODING 8564
SWIDTH 1000 0
DWIDTH 16 0
BBX 9 9 3 0
BITMAP
8080
8080
4100
4100
2200
2200
1400
1400
0800
ENDCHAR
STARTCHAR U+2175
ENCODING 8565
SWIDTH 1000 0
DWIDTH 16 0
BBX 12 12 1 0
BITMAP
0010
0010
0000
8090
8090
4110
4110
2210
2210
1410
1410
0810
ENDCHAR
STARTCHAR U+2176
ENCODING 8566
SWIDTH 1000 0
DWIDTH 16 0
BBX 12 12 1 0
BITMAP
0090
0090
0000
8290
8290
4490
4490
4490
2890
2890
1090
1090
ENDCHAR
STARTCHAR U+2177
ENCODING 8567
SWIDTH 1000 0
DWIDTH 16 0
BBX 15 12 0 0
BITMAP
0092
0092
0000
8292
8292
4492
4492
4492
2892
2892
1092
1092
ENDCHAR
STARTCHAR U+2178
ENCODING 8568
SWIDTH 1000 0
DWIDTH 16 0
BBX 12 12 1 0
BITMAP
8000
8000
0000
9010
8820
8440
8280
8100
8280
8440
8820
9010
ENDCHAR
STARTCHAR U+2179
ENCODING 8569
SWIDTH 1000 0
DWIDTH 16 0
BBX 9 9 3 0
BITMAP
8080
4100
2200
1400
0800
1400
2200
4100
8080
ENDCHAR
STARTCHAR U+217A
ENCODING 8570
SWIDTH 1000 0
DWIDTH 16 0
BBX 12 12 1 0
BITMAP
0010
0010
0000
8090
4110
2210
1410
0810
1410
2210
4110
8090
ENDCHAR
STARTCHAR U+217B
ENCODING 8571
SWIDTH 1000 0
DWIDTH 16 0
BBX 12 12 1 0
BITMAP
0090
0090
0000
8290
4490
4490
2890
1090
2890
4490
4490
8290
ENDCHAR
STARTCHAR U+217C
ENCODING 8572
SWIDTH 1000 0
DWIDTH 16 0
BBX 1 12 8 0
BITMAP
80
80
80
80
80
80
80
80
80
80
80
80
ENDCHAR
STARTCHAR U+217D
ENCODING 8573
SWIDTH 1000 0
DWIDTH 16 0
BBX 9 9 4 0
BITMAP
3E00
4100
8080
8000
8000
8000
8080
4100
3E00
ENDCHAR
STARTCHAR U+217E
ENCODING 8574
SWIDTH 1000 0
DWIDTH 16 0
BBX 9 12 4 0
BITMAP
0080
0080
0080
3E80
4180
8080
8080
8080
8080
8080
4180
3E80
ENDCHAR
STARTCHAR U+217F
ENCODING 8575
SWIDTH 1000 0
DWIDTH 16 0
BBX 13 9 1 0
BITMAP
B8E0
C510
8208
8208
8208
8208
8208
8208
8208
ENDCHAR
STARTCHAR U+2190
ENCODING 8592
SWIDTH 1000 0
DWIDTH 16 0
BBX 14 7 1 3
BITMAP
1000
2000
4000
FFFC
4000
2000
1000
ENDCHAR
STARTCHAR U+2191
ENCODING 8593
SWIDTH 1000 0
DWIDTH 16 0
BBX 7 14 5 -1
BITMAP
10
38
54
92
10
10
10
10
10
10
10
10
10
10
ENDCHAR
STARTCHAR U+2192
ENCODING 8594
SWIDTH 1000 0
DWIDTH 16 0
BBX 14 7 1 3
BITMAP
0020
0010
0008
FFFC
0008
0010
0020
ENDCHAR
STARTCHAR U+2193
ENCODING 8595
SWIDTH 1000 0
DWIDTH 16 0
BBX 7 14 5 -1
BITMAP
10
10
10
10
10
10
10
10
10
10
92
54
38
10
ENDCHAR
STARTCHAR U+2194
ENCODING 8596
SWIDTH 1000 0
DWIDTH 16 0
BBX 14 7 1 3
BITMAP
1020
2010
4008
FFFC
4008
2010
1020
ENDCHAR
STARTCHAR U+2195
ENCODING 8597
SWIDTH 1000 0
DWIDTH 16 0
BBX 7 14 5 -1
BITMAP
10
38
54
92
10
10
10
10
10
10
92
54
38
10
ENDCHAR
STARTCHAR U+2196
ENCODING 8598
SWIDTH 1000 0
DWIDTH 16 0
BBX 12 12 2 0
BITMAP
F800
C000
A000
9000
8800
0400
0200
0100
0080
0040
0020
0010
ENDCHAR
STARTCHAR U+2197
ENCODING 8599
SWIDTH 1000 0
DWIDTH 16 0
BBX 12 12 2 0
BITMAP
01F0
0030
0050
0090
0110
0200
0400
0800
1000
2000
4000
8000
ENDCHAR
STARTCHAR U+2198
ENCODING 8600
SWIDTH 1000 0
DWIDTH 16 0
BBX 12 12 2 0
BITMAP
8000
4000
2000
1000
0800
0400
0200
0110
0090
0050
0030
01F0
ENDCHAR
STARTCHAR U+2199
ENCODING 8601
SWIDTH 1000 0
DWIDTH 16 0
BBX 12 12 2 0
BITMAP
0010
0020
0040
0080
0100
0200
0400
8800
9000
A000
C000
F800
ENDCHAR
STARTCHAR U+21BA
ENCODING 8634
SWIDTH 1000 0
DWIDTH 16 0
BBX 14 14 1 -1
BITMAP
0780
183C
2030
4028
4028
8004
8004
8004
8004
4008
4008
2010
1860
0780
ENDCHAR
STARTCHAR U+21BB
ENCODING 8635
SWIDTH 1000 0
DWIDTH 16 0
BBX 14 14 1 -1
BITMAP
0780
F060
3010
5008
5008
8004
8004
8004
8004
4008
4008
2010
1860
0780
ENDCHAR
STARTCHAR U+21C4
ENCODING 8644
SWIDTH 1000 0
DWIDTH 16 0
BBX 14 9 1 1
BITMAP
0020
0010
FFFC
0010
1020
2000
FFFC
2000
1000
ENDCHAR
STARTCHAR U+21C5
ENCODING 8645
SWIDTH 1000 0
DWIDTH 16 0
BBX 9 14 3 -1
BITMAP
2200
2200
7200
AA00
2200
2200
2200
2200
2200
2200
2A80
2700
2200
2200
ENDCHAR
STARTCHAR U+21C6
ENCODING 8646
SWIDTH 1000 0
DWIDTH 16 0
BBX 14 9 1 1
BITMAP
1000
2000
FFFC
2000
1020
0010
FFFC
0010
0020
ENDCHAR
STARTCHAR U+21D2
ENCODING 8658
SWIDTH 1000 0
DWIDTH 16 0
BBX 14 11 1 0
BITMAP
0080
0040
FFE0
0010
0008
0004
0008
0010
FFE0
0040
0080
ENDCHAR
STARTCHAR U+21D4
ENCODING 8660
SWIDTH 1000 0
DWIDTH 16 0
BBX 15 11 0 0
BITMAP
0440
0820
1FF0
2008
4004
8002
4004
2008
1FF0
0820
0440
ENDCHAR
STARTCHAR U+21E6
ENCODING 8678
SWIDTH 1000 0
DWIDTH 16 0
BBX 13 12 2 0
BITMAP
0400
0C00
1400
2400
47F8
8008
8008
47F8
2400
1400
0C00
0400
ENDCHAR
STARTCHAR U+21E7
ENCODING 8679
SWIDTH 1000 0
DWIDTH 16 0
BBX 12 13 2 -1
BITMAP
0600
0900
1080
2040
4020
F9F0
0900
0900
0900
0900
0900
0900
0F00
ENDCHAR
STARTCHAR U+21E8
ENCODING 8680
SWIDTH 1000 0
DWIDTH 16 0
BBX 13 12 2 0
BITMAP
0100
0180
0140
0120
FF10
8008
8008
FF10
0120
0140
0180
0100
ENDCHAR
STARTCHAR U+21E9
ENCODING 8681
SWIDTH 1000 0
DWIDTH 16 0
BBX 12 13 2 -1
BITMAP
0F00
0900
0900
0900
0900
0900
0900
F9F0
4020
2040
1080
0900
0600
ENDCHAR
STARTCHAR U+21F5
ENCODING 8693
SWIDTH 1000 0
DWIDTH 16 0
BBX 9 14 3 -1
BITMAP
2200
2200
2700
2A80
2200
2200
2200
2200
2200
2200
AA00
7200
2200
2200
ENDCHAR
STARTCHAR U+2200
ENCODING 8704
SWIDTH 1000 0
DWIDTH 16 0
BBX 12 12 2 0
BITMAP
8010
8010
4020
7FE0
2040
2040
1080
1080
0900
0900
0600
0600
ENDCHAR
STARTCHAR U+2202
ENCODING 8706
SWIDTH 1000 0
DWIDTH 16 0
BBX 9 13 3 0
BITMAP
1E00
2100
4080
0080
0080
1E80
2180
4080
8100
8100
8200
8400
7800
ENDCHAR
STARTCHAR U+2203
ENCODING 8707
SWIDTH 1000 0
DWIDTH 16 0
BBX 9 12 3 0
BITMAP
FF80
0080
0080
0080
0080
FF80
0080
0080
0080
0080
0080
FF80
ENDCHAR
STARTCHAR U+2207
ENCODING 8711
SWIDTH 1000 0
DWIDTH 16 0
BBX 12 11 2 1
BITMAP
FFF0
4020
6020
2040
3040
1080
1880
0900
0D00
0600
0600
ENDCHAR
STARTCHAR U+2208
ENCODING 8712
SWIDTH 1000 0
DWIDTH 16 0
BBX 11 11 2 1
BITMAP
1FE0
6000
4000
8000
8000
FFE0
8000
8000
4000
6000
1FE0
ENDCHAR
STARTCHAR U+220B
ENCODING 8715
SWIDTH 1000 0
DWIDTH 16 0
BBX 11 11 2 1
BITMAP
FF00
00C0
0040
0020
0020
FFE0
0020
0020
0040
00C0
FF00
ENDCHAR
STARTCHAR U+220F
ENCODING 8719
SWIDTH 1000 0
DWIDTH 16 0
BBX 10 13 3 0
BITMAP
FFC0
8040
8040
8040
8040
8040
8040
8040
8040
8040
8040
8040
8040
ENDCHAR
STARTCHAR U+2211
ENCODING 8721
SWIDTH 1000 0
DWIDTH 16 0
BBX 10 13 3 0
BITMAP
FFC0
4000
3000
0800
0600
0100
0080
0100
0600
0800
3000
4000
FFC0
ENDCHAR
STARTCHAR U+2212
ENCODING 8722
SWIDTH 500 0
DWIDTH 8 0
BBX 6 1 1 3
BITMAP
FC
ENDCHAR
STARTCHAR U+2215
ENCODING 8725
SWIDTH 500 0
DWIDTH 8 0
BBX 7 14 0 0
BITMAP
02
02
04
04
08
08
10
10
20
20
40
40
80
80
ENDCHAR
STARTCHAR U+2219
ENCODING 8729
SWIDTH 500 0
DWIDTH 8 0
BBX 2 2 3 3
BITMAP
C0
C0
ENDCHAR
STARTCHAR U+221A
ENCODING 8730
SWIDTH 1000 0
DWIDTH 16 0
BBX 14 15 1 -1
BITMAP
007C
0040
0040
0080
0080
0100
0100
0200
2200
6400
A400
2800
1800
1000
1000
ENDCHAR
STARTCHAR U+221D
ENCODING 8733
SWIDTH 1000 0
DWIDTH 16 0
BBX 12 7 2 3
BITMAP
38E0
4510
8200
8200
8200
4510
38E0
ENDCHAR
STARTCHAR U+221E
ENCODING 8734
SWIDTH 1000 0
DWIDTH 16 0
BBX 14 7 1 3
BITMAP
3870
4488
8304
8304
8304
4488
3870
ENDCHAR
STARTCHAR U+221F
ENCODING 8735
SWIDTH 1000 0
DWIDTH 16 0
BBX 10 11 3 0
BITMAP
8000
8000
8000
8000
8000
8000
8000
8000
8000
8000
FFC0
ENDCHAR
STARTCHAR U+2220
ENCODING 8736
SWIDTH 1000 0
DWIDTH 16 0
BBX 12 12 2 0
BITMAP
0040
0080
0100
0200
0200
0400
0800
1000
1000
2000
4000
FFF0
ENDCHAR
STARTCHAR U+2225
ENCODING 8741
SWIDTH 1000 0
DWIDTH 16 0
BBX 5 12 5 0
BITMAP
88
88
88
88
88
88
88
88
88
88
88
88
ENDCHAR
STARTCHAR U+2227
ENCODING 8743
SWIDTH 1000 0
DWIDTH 16 0
BBX 11 12 2 0
BITMAP
0400
0400
0A00
0A00
1100
1100
2080
2080
4040
4040
8020
8020
ENDCHAR
STARTCHAR U+2228
ENCODING 8744
SWIDTH 1000 0
DWIDTH 16 0
BBX 11 12 2 0
BITMAP
8020
8020
4040
4040
2080
2080
1100
1100
0A00
0A00
0400
0400
ENDCHAR
STARTCHAR U+2229
ENCODING 8745
SWIDTH 1000 0
DWIDTH 16 0
BBX 10 11 3 0
BITMAP
1E00
6180
4080
8040
8040
8040
8040
8040
8040
8040
8040
ENDCHAR
STARTCHAR U+222A
ENCODING 8746
SWIDTH 1000 0
DWIDTH 16 0
BBX 10 11 3 0
BITMAP
8040
8040
8040
8040
8040
8040
8040
8040
4080
6180
1E00
ENDCHAR
STARTCHAR U+222B
ENCODING 8747
SWIDTH 1000 0
DWIDTH 16 0
BBX 9 15 3 -1
BITMAP
0300
0480
0400
0400
0800
0800
0800
0800
0800
0800
0800
1000
1000
9000
6000
ENDCHAR
STARTCHAR U+222C
ENCODING 8748
SWIDTH 1000 0
DWIDTH 16 0
BBX 13 15 1 -1
BITMAP
0630
0948
0840
0840
0840
0840
0840
1080
1080
1080
1080
1080
1080
9480
6300
ENDCHAR
STARTCHAR U+222D
ENCODING 8749
SWIDTH 1000 0
DWIDTH 16 0
BBX 15 14 0 0
BITMAP
0CCC
1332
1110
1110
1110
1110
1110
1110
1110
1110
1110
1110
9990
6660
ENDCHAR
STARTCHAR U+222E
ENCODING 8750
SWIDTH 1000 0
DWIDTH 16 0
BBX 9 15 3 -1
BITMAP
0300
0480
0400
0400
0400
3E00
4900
4900
4900
4900
3E00
1000
1000
9000
6000
ENDCHAR
STARTCHAR U+2234
ENCODING 8756
SWIDTH 1000 0
DWIDTH 16 0
BBX 12 10 2 1
BITMAP
0600
0600
0000
0000
0000
0000
0000
0000
C030
C030
ENDCHAR
STARTCHAR U+2235
ENCODING 8757
SWIDTH 1000 0
DWIDTH 16 0
BBX 12 11 2 0
BITMAP
C030
C030
0000
0000
0000
0000
0000
0000
0000
0600
0600
ENDCHAR
STARTCHAR U+2236
ENCODING 8758
SWIDTH 500 0
DWIDTH 8 0
BBX 2 9 3 2
BITMAP
C0
C0
00
00
00
00
00
C0
C0
ENDCHAR
STARTCHAR U+2237
ENCODING 8759
SWIDTH 1000 0
DWIDTH 16 0
BBX 10 10 3 1
BITMAP
C0C0
C0C0
0000
0000
0000
0000
0000
0000
C0C0
C0C0
ENDCHAR
STARTCHAR U+223C
ENCODING 8764
SWIDTH 500 0
DWIDTH 8 0
BBX 6 2 1 4
BITMAP
64
98
ENDCHAR
STARTCHAR U+223D
ENCODING 8765
SWIDTH 1000 0
DWIDTH 16 0
BBX 14 7 1 2
BITMAP
3070
4088
8104
8204
8204
4408
3830
ENDCHAR
STARTCHAR U+2248
ENCODING 8776
SWIDTH 1000 0
DWIDTH 16 0
BBX 11 7 2 3
BITMAP
3820
4440
8380
0000
3820
4440
8380
ENDCHAR
STARTCHAR U+224C
ENCODING 8780
SWIDTH 1000 0
DWIDTH 16 0
BBX 11 9 2 2
BITMAP
8380
4440
3820
0000
0000
FFE0
0000
0000
FFE0
ENDCHAR
STARTCHAR U+2252
ENCODING 8786
SWIDTH 1000 0
DWIDTH 16 0
BBX 11 12 2 0
BITMAP
3000
3000
0000
0000
FFE0
0000
0000
FFE0
0000
0000
0180
0180
ENDCHAR
STARTCHAR U+2260
ENCODING 8800
SWIDTH 1000 0
DWIDTH 16 0
BBX 11 10 2 1
BITMAP
0080
0100
0200
FFE0
0400
0800
FFE0
1000
2000
4000
ENDCHAR
STARTCHAR U+2261
ENCODING 8801
SWIDTH 1000 0
DWIDTH 16 0
BBX 11 7 2 3
BITMAP
FFE0
0000
0000
FFE0
0000
0000
FFE0
ENDCHAR
STARTCHAR U+2264
ENCODING 8804
SWIDTH 1000 0
DWIDTH 16 0
BBX 12 13 2 0
BITMAP
0030
00C0
0300
0C00
3000
C000
3000
0C00
0300
00C0
0030
0000
FFF0
ENDCHAR
STARTCHAR U+2265
ENCODING 8805
SWIDTH 1000 0
DWIDTH 16 0
BBX 12 13 2 0
BITMAP
C000
3000
0C00
0300
00C0
0030
00C0
0300
0C00
3000
C000
0000
FFF0
ENDCHAR
STARTCHAR U+2266
ENCODING 8806
SWIDTH 1000 0
DWIDTH 16 0
BBX 12 13 2 0
BITMAP
0070
0380
1C00
6000
6000
1C00
0380
0070
0000
FFF0
0000
0000
FFF0
ENDCHAR
STARTCHAR U+2267
ENCODING 8807
SWIDTH 1000 0
DWIDTH 16 0
BBX 12 13 2 0
BITMAP
E000
1C00
0380
0060
0060
0380
1C00
E000
0000
FFF0
0000
0000
FFF0
ENDCHAR
STARTCHAR U+226A
ENCODING 8810
SWIDTH 1000 0
DWIDTH 16 0
BBX 12 11 2 0
BITMAP
0110
0660
0880
3300
4400
8800
4400
3300
0880
0660
0110
ENDCHAR
STARTCHAR U+226B
ENCODING 8811
SWIDTH 1000 0
DWIDTH 16 0
BBX 12 11 2 0
BITMAP
8800
6600
1100
0CC0
0220
0110
0220
0CC0
1100
6600
8800
ENDCHAR
STARTCHAR U+226E
ENCODING 8814
SWIDTH 1000 0
DWIDTH 16 0
BBX 12 15 2 -1
BITMAP
0040
0040
00B0
00C0
0300
0D00
3200
C200
C400
3400
0C00
0B00
10C0
1030
2000
ENDCHAR
STARTCHAR U+226F
ENCODING 8815
SWIDTH 1000 0
DWIDTH 16 0
BBX 12 15 2 -1
BITMAP
0040
0040
C080
3080
0D00
0300
02C0
0230
0430
04C0
0B00
0C00
3000
D000
2000
ENDCHAR
STARTCHAR U+2282
ENCODING 8834
SWIDTH 1000 0
DWIDTH 16 0
BBX 11 10 2 1
BITMAP
1FE0
6000
4000
8000
8000
8000
8000
4000
6000
1FE0
ENDCHAR
STARTCHAR U+2283
ENCODING 8835
SWIDTH 1000 0
DWIDTH 16 0
BBX 11 10 2 1
BITMAP
FF00
00C0
0040
0020
0020
0020
0020
0040
00C0
FF00
ENDCHAR
STARTCHAR U+2286
ENCODING 8838
SWIDTH 1000 0
DWIDTH 16 0
BBX 11 12 2 0
BITMAP
3FE0
4000
8000
8000
8000
8000
8000
4000
3FE0
0000
0000
FFE0
ENDCHAR
STARTCHAR U+2287
ENCODING 8839
SWIDTH 1000 0
DWIDTH 16 0
BBX 11 12 2 0
BITMAP
FF80
0040
0020
0020
0020
0020
0020
0040
FF80
0000
0000
FFE0
ENDCHAR
STARTCHAR U+2299
ENCODING 8857
SWIDTH 1000 0
DWIDTH 16 0
BBX 14 14 1 -1
BITMAP
0780
1860
2010
4008
4008
8004
8304
8304
8004
4008
4008
2010
1860
0780
ENDCHAR
STARTCHAR U+22A5
ENCODING 8869
SWIDTH 1000 0
DWIDTH 16 0
BBX 11 11 2 0
BITMAP
0400
0400
0400
0400
0400
0400
0400
0400
0400
0400
FFE0
ENDCHAR
STARTCHAR U+22BF
ENCODING 8895
SWIDTH 1000 0
DWIDTH 16 0
BBX 12 12 2 0
BITMAP
0010
0030
0050
0090
0110
0210
0410
0810
1010
2010
4010
FFF0
ENDCHAR
STARTCHAR U+2312
ENCODING 8978
SWIDTH 1000 0
DWIDTH 16 0
BBX 14 4 1 9
BITMAP
0FC0
3030
4008
8004
ENDCHAR
STARTCHAR U+23A7
ENCODING 9127
SWIDTH 1000 0
DWIDTH 16 0
BBX 3 12 8 -2
BITMAP
20
40
80
80
80
80
80
80
80
80
80
80
ENDCHAR
STARTCHAR U+23A8
ENCODING 9128
SWIDTH 1000 0
DWIDTH 16 0
BBX 3 16 6 -2
BITMAP
20
20
20
20
20
20
40
80
40
20
20
20
20
20
20
20
ENDCHAR
STARTCHAR U+23A9
ENCODING 9129
SWIDTH 1000 0
DWIDTH 16 0
BBX 3 12 8 2
BITMAP
80
80
80
80
80
80
80
80
80
80
40
20
ENDCHAR
STARTCHAR U+23AB
ENCODING 9131
SWIDTH 1000 0
DWIDTH 16 0
BBX 3 12 6 -2
BITMAP
80
40
20
20
20
20
20
20
20
20
20
20
ENDCHAR
STARTCHAR U+23AC
ENCODING 9132
SWIDTH 1000 0
DWIDTH 16 0
BBX 3 16 8 -2
BITMAP
80
80
80
80
80
80
40
20
40
80
80
80
80
80
80
80
ENDCHAR
STARTCHAR U+23AD
ENCODING 9133
SWIDTH 1000 0
DWIDTH 16 0
BBX 3 12 6 2
BITMAP
20
20
20
20
20
20
20
20
20
20
40
80
ENDCHAR
STARTCHAR U+2460
ENCODING 9312
SWIDTH 1000 0
DWIDTH 16 0
BBX 15 15 0 -1
BITMAP
07C0
1830
2008
4784
4084
8082
8082
8082
8082
8082
4084
4084
2088
1830
07C0
ENDCHAR
STARTCHAR U+2461
ENCODING 9313
SWIDTH 1000 0
DWIDTH 16 0
BBX 15 15 0 -1
BITMAP
07C0
1830
2008
47C4
4824
8822
8022
80C2
8302
8402
4804
4804
2FE8
1830
07C0
ENDCHAR
STARTCHAR U+2462
ENCODING 9314
SWIDTH 1000 0
DWIDTH 16 0
BBX 15 15 0 -1
BITMAP
07C0
1830
2008
47C4
4824
8822
8022
83C2
8022
8022
4824
4824
27C8
1830
07C0
ENDCHAR
STARTCHAR U+2463
ENCODING 9315
SWIDTH 1000 0
DWIDTH 16 0
BBX 15 15 0 -1
BITMAP
07C0
1830
2008
4044
40C4
8142
8242
8442
8842
9042
5FF4
4044
2048
1830
07C0
ENDCHAR
STARTCHAR U+2464
ENCODING 9316
SWIDTH 1000 0
DWIDTH 16 0
BBX 15 15 0 -1
BITMAP
07C0
1830
2008
4FE4
4804
8802
8BC2
8C22
8822
8022
4824
4824
27C8
1830
07C0
ENDCHAR
STARTCHAR U+2465
ENCODING 9317
SWIDTH 1000 0
DWIDTH 16 0
BBX 15 15 0 -1
BITMAP
07C0
1830
2008
47C4
4824
8822
8802
8BC2
8C22
8822
4824
4824
27C8
1830
07C0
ENDCHAR
STARTCHAR U+2466
ENCODING 9318
SWIDTH 1000 0
DWIDTH 16 0
BBX 15 15 0 -1
BITMAP
07C0
1830
2008
4FF4
4014
8022
8042
8042
8082
8102
4104
4204
2408
1830
07C0
ENDCHAR
STARTCHAR U+2467
ENCODING 9319
SWIDTH 1000 0
DWIDTH 16 0
BBX 15 15 0 -1
BITMAP
07C0
1830
2008
47C4
4824
8822
8822
87C2
8822
8822
4824
4824
27C8
1830
07C0
ENDCHAR
STARTCHAR U+2468
ENCODING 9320
SWIDTH 1000 0
DWIDTH 16 0
BBX 15 15 0 -1
BITMAP
07C0
1830
2008
47C4
4824
8822
8822
8862
87A2
8022
4824
4824
27C8
1830
07C0
ENDCHAR
STARTCHAR U+2469
ENCODING 9321
SWIDTH 1000 0
DWIDTH 16 0
BBX 15 15 0 -1
BITMAP
07C0
1830
2008
78F4
490C
890A
890A
890A
890A
890A
490C
490C
28F8
1830
07C0
ENDCHAR
STARTCHAR U+246A
ENCODING 9322
SWIDTH 1000 0
DWIDTH 16 0
BBX 15 15 0 -1
BITMAP
07C0
1830
2008
7CF4
4414
8412
8412
8412
8412
8412
4414
4414
2418
1830
07C0
ENDCHAR
STARTCHAR U+246B
ENCODING 9323
SWIDTH 1000 0
DWIDTH 16 0
BBX 15 15 0 -1
BITMAP
07C0
1830
2008
78F4
490C
890A
880A
8812
8862
8882
4904
4904
29F8
1830
07C0
ENDCHAR
STARTCHAR U+246C
ENCODING 9324
SWIDTH 1000 0
DWIDTH 16 0
BBX 15 15 0 -1
BITMAP
07C0
1830
2008
78F4
490C
890A
880A
8872
880A
890A
490C
490C
28F8
1830
07C0
ENDCHAR
STARTCHAR U+246D
ENCODING 9325
SWIDTH 1000 0
DWIDTH 16 0
BBX 15 15 0 -1
BITMAP
07C0
1830
2008
7814
4834
8852
8852
8892
8912
8912
4BFC
4814
2818
1830
07C0
ENDCHAR
STARTCHAR U+246E
ENCODING 9326
SWIDTH 1000 0
DWIDTH 16 0
BBX 15 15 0 -1
BITMAP
07C0
1830
2008
79FC
4904
8902
8972
898A
890A
880A
490C
490C
28F8
1830
07C0
ENDCHAR
STARTCHAR U+246F
ENCODING 9327
SWIDTH 1000 0
DWIDTH 16 0
BBX 15 15 0 -1
BITMAP
07C0
1830
2008
78F4
490C
890A
8902
8972
898A
890A
490C
490C
28F8
1830
07C0
ENDCHAR
STARTCHAR U+2470
ENCODING 9328
SWIDTH 1000 0
DWIDTH 16 0
BBX 15 15 0 -1
BITMAP
07C0
1830
2008
5DFC
440C
8412
8412
8422
8422
8442
4444
4484
2488
1830
07C0
ENDCHAR
STARTCHAR U+2471
ENCODING 9329
SWIDTH 1000 0
DWIDTH 16 0
BBX 15 15 0 -1
BITMAP
07C0
1830
2008
78F4
490C
890A
890A
88F2
890A
890A
490C
490C
28F8
1830
07C0
ENDCHAR
STARTCHAR U+2472
ENCODING 9330
SWIDTH 1000 0
DWIDTH 16 0
BBX 15 15 0 -1
BITMAP
07C0
1830
2008
78F4
490C
890A
890A
891A
88EA
880A
490C
490C
28F8
1830
07C0
ENDCHAR
STARTCHAR U+2473
ENCODING 9331
SWIDTH 1000 0
DWIDTH 16 0
BBX 15 15 0 -1
BITMAP
07C0
1830
2008
4C74
528C
928A
928A
828A
8C8A
908A
508C
508C
3E78
1830
07C0
ENDCHAR
STARTCHAR U+2474
ENCODING 9332
SWIDTH 1000 0
DWIDTH 16 0
BBX 15 15 0 -1
BITMAP
2008
4004
4784
8082
8082
8082
8082
8082
8082
8082
8082
8082
4084
4004
2008
ENDCHAR
STARTCHAR U+2475
ENCODING 9333
SWIDTH 1000 0
DWIDTH 16 0
BBX 15 15 0 -1
BITMAP
2008
4004
47E4
8812
8812
8012
8062
8082
8302
8402
8802
8802
4FF4
4004
2008
ENDCHAR
STARTCHAR U+2476
ENCODING 9334
SWIDTH 1000 0
DWIDTH 16 0
BBX 15 15 0 -1
BITMAP
2008
4004
47E4
8812
8812
8012
8012
83E2
8012
8012
8812
8812
47E4
4004
2008
ENDCHAR
STARTCHAR U+2477
ENCODING 9335
SWIDTH 1000 0
DWIDTH 16 0
BBX 15 15 0 -1
BITMAP
2008
4004
4044
80C2
8142
8242
8442
8442
8842
9042
9FF2
8042
4044
4004
2008
ENDCHAR
STARTCHAR U+2478
ENCODING 9336
SWIDTH 1000 0
DWIDTH 16 0
BBX 15 15 0 -1
BITMAP
2008
4004
4FF4
8802
8802
8BE2
8C12
8812
8012
8012
8812
8812
47E4
4004
2008
ENDCHAR
STARTCHAR U+2479
ENCODING 9337
SWIDTH 1000 0
DWIDTH 16 0
BBX 15 15 0 -1
BITMAP
2008
4004
47E4
8812
8812
8802
8BE2
8C12
8812
8812
8812
8812
47E4
4004
2008
ENDCHAR
STARTCHAR U+247A
ENCODING 9338
SWIDTH 1000 0
DWIDTH 16 0
BBX 15 15 0 -1
BITMAP
2008
4004
4FF4
8012
8022
8022
8042
8042
8082
8102
8102
8202
4404
4004
2008
ENDCHAR
STARTCHAR U+247B
ENCODING 9339
SWIDTH 1000 0
DWIDTH 16 0
BBX 15 15 0 -1
BITMAP
2008
4004
47E4
8812
8812
8812
8812
87E2
8812
8812
8812
8812
47E4
4004
2008
ENDCHAR
STARTCHAR U+247C
ENCODING 9340
SWIDTH 1000 0
DWIDTH 16 0
BBX 15 15 0 -1
BITMAP
2008
4004
47E4
8812
8812
8812
8812
8832
87D2
8012
8812
8812
47E4
4004
2008
ENDCHAR
STARTCHAR U+247D
ENCODING 9341
SWIDTH 1000 0
DWIDTH 16 0
BBX 15 15 0 -1
BITMAP
2008
4004
78F4
890A
890A
890A
890A
890A
890A
890A
890A
890A
48F4
4004
2008
ENDCHAR
STARTCHAR U+247E
ENCODING 9342
SWIDTH 1000 0
DWIDTH 16 0
BBX 15 15 0 -1
BITMAP
2008
4004
7CF4
8412
8412
8412
8412
8412
8412
8412
8412
8412
4414
4004
2008
ENDCHAR
STARTCHAR U+247F
ENCODING 9343
SWIDTH 1000 0
DWIDTH 16 0
BBX 15 15 0 -1
BITMAP
2008
4004
78F4
890A
890A
880A
880A
8812
8862
8882
8902
8902
49FC
4004
2008
ENDCHAR
STARTCHAR U+2480
ENCODING 9344
SWIDTH 1000 0
DWIDTH 16 0
BBX 15 15 0 -1
BITMAP
2008
4004
78F4
890A
890A
880A
880A
8872
880A
890A
890A
890A
48F4
4004
2008
ENDCHAR
STARTCHAR U+2481
ENCODING 9345
SWIDTH 1000 0
DWIDTH 16 0
BBX 15 15 0 -1
BITMAP
2008
4004
7814
8832
8852
8852
8892
8892
8912
8912
8BFA
8812
4814
4004
2008
ENDCHAR
STARTCHAR U+2482
ENCODING 9346
SWIDTH 1000 0
DWIDTH 16 0
BBX 15 15 0 -1
BITMAP
2008
4004
79FC
8902
8902
8972
898A
890A
880A
880A
890A
890A
48F4
4004
2008
ENDCHAR
STARTCHAR U+2483
ENCODING 9347
SWIDTH 1000 0
DWIDTH 16 0
BBX 15 15 0 -1
BITMAP
2008
4004
78F4
890A
890A
8902
8972
898A
890A
890A
890A
890A
48F4
4004
2008
ENDCHAR
STARTCHAR U+2484
ENCODING 9348
SWIDTH 1000 0
DWIDTH 16 0
BBX 15 15 0 -1
BITMAP
2008
4004
7BFC
880A
8812
8812
8822
8822
8842
8842
8882
8882
4904
4004
2008
ENDCHAR
STARTCHAR U+2485
ENCODING 9349
SWIDTH 1000 0
DWIDTH 16 0
BBX 15 15 0 -1
BITMAP
2008
4004
78F4
890A
890A
890A
890A
88F2
890A
890A
890A
890A
48F4
4004
2008
ENDCHAR
STARTCHAR U+2486
ENCODING 9350
SWIDTH 1000 0
DWIDTH 16 0
BBX 15 15 0 -1
BITMAP
2008
4004
78F4
890A
890A
890A
890A
891A
88EA
880A
890A
890A
48F4
4004
2008
ENDCHAR
STARTCHAR U+2487
ENCODING 9351
SWIDTH 1000 0
DWIDTH 16 0
BBX 15 15 0 -1
BITMAP
2008
4004
5C74
A28A
A28A
A28A
848A
888A
888A
908A
A08A
A08A
7E74
4004
2008
ENDCHAR
STARTCHAR U+2488
ENCODING 9352
SWIDTH 1000 0
DWIDTH 16 0
BBX 11 13 3 0
BITMAP
F000
1000
1000
1000
1000
1000
1000
1000
1000
1000
1000
1060
1060
ENDCHAR
STARTCHAR U+2489
ENCODING 9353
SWIDTH 1000 0
DWIDTH 16 0
BBX 13 13 1 0
BITMAP
3F00
4080
8040
8040
0040
0040
0180
0E00
3000
4000
8000
8018
FFD8
ENDCHAR
STARTCHAR U+248A
ENCODING 9354
SWIDTH 1000 0
DWIDTH 16 0
BBX 13 13 1 0
BITMAP
3F00
4080
8040
8040
0040
0080
3F00
0080
0040
8040
8040
4098
3F18
ENDCHAR
STARTCHAR U+248B
ENCODING 9355
SWIDTH 1000 0
DWIDTH 16 0
BBX 14 13 0 0
BITMAP
0080
0180
0280
0480
0880
1080
2080
4080
8080
FFE0
0080
008C
008C
ENDCHAR
STARTCHAR U+248C
ENCODING 9356
SWIDTH 1000 0
DWIDTH 16 0
BBX 13 13 1 0
BITMAP
FF80
8000
8000
8000
8000
BF00
C080
8040
0040
0040
8040
4098
3F18
ENDCHAR
STARTCHAR U+248D
ENCODING 9357
SWIDTH 1000 0
DWIDTH 16 0
BBX 13 13 1 0
BITMAP
3F00
4080
8040
8040
8000
BF00
C080
8040
8040
8040
8040
4098
3F18
ENDCHAR
STARTCHAR U+248E
ENCODING 9358
SWIDTH 1000 0
DWIDTH 16 0
BBX 13 13 1 0
BITMAP
FFC0
0040
0080
0080
0100
0200
0200
0400
0800
1000
1000
2018
4018
ENDCHAR
STARTCHAR U+248F
ENCODING 9359
SWIDTH 1000 0
DWIDTH 16 0
BBX 13 13 1 0
BITMAP
3F00
4080
8040
8040
8040
4080
3F00
4080
8040
8040
8040
4098
3F18
ENDCHAR
STARTCHAR U+2490
ENCODING 9360
SWIDTH 1000 0
DWIDTH 16 0
BBX 13 13 1 0
BITMAP
3F00
4080
8040
8040
8040
8040
40C0
3F40
0040
8040
8040
4098
3F18
ENDCHAR
STARTCHAR U+2491
ENCODING 9361
SWIDTH 1000 0
DWIDTH 16 0
BBX 15 13 0 0
BITMAP
E1C0
2220
2410
2410
2410
2410
2410
2410
2410
2410
2410
2226
21C6
ENDCHAR
STARTCHAR U+2492
ENCODING 9362
SWIDTH 1000 0
DWIDTH 16 0
BBX 15 13 0 0
BITMAP
E1C0
2040
2040
2040
2040
2040
2040
2040
2040
2040
2040
2046
2046
ENDCHAR
STARTCHAR U+2493
ENCODING 9363
SWIDTH 1000 0
DWIDTH 16 0
BBX 15 13 0 0
BITMAP
E1C0
2220
2410
2410
2410
2020
2040
2180
2200
2400
2400
2406
27F6
ENDCHAR
STARTCHAR U+2494
ENCODING 9364
SWIDTH 1000 0
DWIDTH 16 0
BBX 15 13 0 0
BITMAP
E1C0
2220
2410
2410
2010
2020
21C0
2020
2010
2410
2410
2226
21C6
ENDCHAR
STARTCHAR U+2495
ENCODING 9365
SWIDTH 1000 0
DWIDTH 16 0
BBX 15 13 0 0
BITMAP
E020
2060
2060
20A0
20A0
2120
2120
2220
2220
2420
27F0
2026
2026
ENDCHAR
STARTCHAR U+2496
ENCODING 9366
SWIDTH 1000 0
DWIDTH 16 0
BBX 15 13 0 0
BITMAP
E7E0
2400
2400
2400
2400
25C0
2620
2410
2010
2010
2410
2226
21C6
ENDCHAR
STARTCHAR U+2497
ENCODING 9367
SWIDTH 1000 0
DWIDTH 16 0
BBX 15 13 0 0
BITMAP
E1C0
2220
2410
2410
2400
25C0
2620
2410
2410
2410
2410
2226
21C6
ENDCHAR
STARTCHAR U+2498
ENCODING 9368
SWIDTH 1000 0
DWIDTH 16 0
BBX 15 13 0 0
BITMAP
E7F0
2010
2020
2020
2040
2040
2040
2080
2080
2080
2100
2106
2106
ENDCHAR
STARTCHAR U+2499
ENCODING 9369
SWIDTH 1000 0
DWIDTH 16 0
BBX 15 13 0 0
BITMAP
E1C0
2220
2410
2410
2410
2220
21C0
2220
2410
2410
2410
2226
21C6
ENDCHAR
STARTCHAR U+249A
ENCODING 9370
SWIDTH 1000 0
DWIDTH 16 0
BBX 15 13 0 0
BITMAP
E1C0
2220
2410
2410
2410
2410
2410
2230
21D0
2010
2410
2226
21C6
ENDCHAR
STARTCHAR U+249B
ENCODING 9371
SWIDTH 1000 0
DWIDTH 16 0
BBX 15 13 0 0
BITMAP
3060
4890
8508
8508
8508
0908
1108
2108
4108
8108
8108
8096
FC66
ENDCHAR
STARTCHAR U+249C
ENCODING 9372
SWIDTH 1000 0
DWIDTH 16 0
BBX 15 15 0 -1
BITMAP
2008
4004
4004
87C2
8822
8022
87E2
8822
8822
8822
8862
8792
4004
4004
2008
ENDCHAR
STARTCHAR U+249D
ENCODING 9373
SWIDTH 1000 0
DWIDTH 16 0
BBX 15 15 0 -1
BITMAP
2008
4804
4804
8802
8BC2
8C22
8812
8812
8812
8812
8812
8C22
4BC4
4004
2008
ENDCHAR
STARTCHAR U+249E
ENCODING 9374
SWIDTH 1000 0
DWIDTH 16 0
BBX 15 15 0 -1
BITMAP
2008
4004
4004
83C2
8422
8812
8802
8802
8802
8812
8422
83C2
4004
4004
2008
ENDCHAR
STARTCHAR U+249F
ENCODING 9375
SWIDTH 1000 0
DWIDTH 16 0
BBX 15 15 0 -1
BITMAP
2008
4024
4024
8022
87A2
8862
9022
9022
9022
9022
9022
8862
47A4
4004
2008
ENDCHAR
STARTCHAR U+24A0
ENCODING 9376
SWIDTH 1000 0
DWIDTH 16 0
BBX 15 15 0 -1
BITMAP
2008
4004
4004
83C2
8422
8812
8812
8FF2
8802
8812
8422
83C2
4004
4004
2008
ENDCHAR
STARTCHAR U+24A1
ENCODING 9377
SWIDTH 1000 0
DWIDTH 16 0
BBX 15 15 0 -1
BITMAP
2008
40E4
4104
8102
8102
87E2
8102
8102
8102
8102
8102
8102
4104
4104
2008
ENDCHAR
STARTCHAR U+24A2
ENCODING 9378
SWIDTH 1000 0
DWIDTH 16 0
BBX 15 15 0 -1
BITMAP
2008
4004
47D4
8822
8822
8822
87C2
8802
87E2
8812
8812
8812
47E4
4004
2008
ENDCHAR
STARTCHAR U+24A3
ENCODING 9379
SWIDTH 1000 0
DWIDTH 16 0
BBX 15 15 0 -1
BITMAP
2008
4804
4804
8802
8BC2
8C22
8812
8812
8812
8812
8812
8812
4814
4004
2008
ENDCHAR
STARTCHAR U+24A4
ENCODING 9380
SWIDTH 1000 0
DWIDTH 16 0
BBX 15 15 0 -1
BITMAP
2008
4104
4104
8002
8102
8102
8102
8102
8102
8102
8102
8102
4104
4004
2008
ENDCHAR
STARTCHAR U+24A5
ENCODING 9381
SWIDTH 1000 0
DWIDTH 16 0
BBX 15 15 0 -1
BITMAP
2008
4104
4104
8002
8102
8102
8102
8102
8102
8102
8102
8102
4104
4104
2608
ENDCHAR
STARTCHAR U+24A6
ENCODING 9382
SWIDTH 1000 0
DWIDTH 16 0
BBX 15 15 0 -1
BITMAP
2008
4804
4804
8802
8812
8862
8882
8B02
8C02
8B02
8882
8862
4814
4004
2008
ENDCHAR
STARTCHAR U+24A7
ENCODING 9383
SWIDTH 1000 0
DWIDTH 16 0
BBX 15 15 0 -1
BITMAP
2008
4104
4104
8102
8102
8102
8102
8102
8102
8102
8102
8102
4104
4004
2008
ENDCHAR
STARTCHAR U+24A8
ENCODING 9384
SWIDTH 1000 0
DWIDTH 16 0
BBX 15 15 0 -1
BITMAP
2008
4004
4004
AC62
B292
A10A
A10A
A10A
A10A
A10A
A10A
A10A
4004
4004
2008
ENDCHAR
STARTCHAR U+24A9
ENCODING 9385
SWIDTH 1000 0
DWIDTH 16 0
BBX 15 15 0 -1
BITMAP
2008
4004
4004
8BC2
8C22
8812
8812
8812
8812
8812
8812
8812
4004
4004
2008
ENDCHAR
STARTCHAR U+24AA
ENCODING 9386
SWIDTH 1000 0
DWIDTH 16 0
BBX 15 15 0 -1
BITMAP
2008
4004
4004
83C2
8422
8812
8812
8812
8812
8812
8422
83C2
4004
4004
2008
ENDCHAR
STARTCHAR U+24AB
ENCODING 9387
SWIDTH 1000 0
DWIDTH 16 0
BBX 15 15 0 -1
BITMAP
2008
4004
4BC4
8C22
8812
8812
8812
8812
8812
8C22
8BC2
8802
4804
4004
2008
ENDCHAR
STARTCHAR U+24AC
ENCODING 9388
SWIDTH 1000 0
DWIDTH 16 0
BBX 15 15 0 -1
BITMAP
2008
4004
47A4
8862
9022
9022
9022
9022
9022
8862
87A2
8022
4024
4004
2008
ENDCHAR
STARTCHAR U+24AD
ENCODING 9389
SWIDTH 1000 0
DWIDTH 16 0
BBX 15 15 0 -1
BITMAP
2008
4004
4004
85E2
8602
8402
8402
8402
8402
8402
8402
8402
4004
4004
2008
ENDCHAR
STARTCHAR U+24AE
ENCODING 9390
SWIDTH 1000 0
DWIDTH 16 0
BBX 15 15 0 -1
BITMAP
2008
4004
4004
87E2
8812
8812
8802
87E2
8012
8812
8812
87E2
4004
4004
2008
ENDCHAR
STARTCHAR U+24AF
ENCODING 9391
SWIDTH 1000 0
DWIDTH 16 0
BBX 15 15 0 -1
BITMAP
2008
4104
4104
8102
87E2
8102
8102
8102
8102
8102
8102
8102
40E4
4004
2008
ENDCHAR
STARTCHAR U+24B0
ENCODING 9392
SWIDTH 1000 0
DWIDTH 16 0
BBX 15 15 0 -1
BITMAP
2008
4004
4004
9022
9022
9022
9022
9022
9022
9022
8862
87A2
4004
4004
2008
ENDCHAR
STARTCHAR U+24B1
ENCODING 9393
SWIDTH 1000 0
DWIDTH 16 0
BBX 15 15 0 -1
BITMAP
2008
4004
4004
8812
8812
8812
8422
8422
8242
8242
8182
8182
4004
4004
2008
ENDCHAR
STARTCHAR U+24B2
ENCODING 9394
SWIDTH 1000 0
DWIDTH 16 0
BBX 15 15 0 -1
BITMAP
2008
4004
4004
A10A
A10A
A28A
A28A
9292
9452
9452
8822
8822
4004
4004
2008
ENDCHAR
STARTCHAR U+24B3
ENCODING 9395
SWIDTH 1000 0
DWIDTH 16 0
BBX 15 15 0 -1
BITMAP
2008
4004
4004
8812
8422
8242
8182
8182
8182
8242
8422
8812
4004
4004
2008
ENDCHAR
STARTCHAR U+24B4
ENCODING 9396
SWIDTH 1000 0
DWIDTH 16 0
BBX 15 15 0 -1
BITMAP
2008
4004
4814
8812
8422
8422
8242
8242
8182
8082
8102
8102
4E04
4004
2008
ENDCHAR
STARTCHAR U+24B5
ENCODING 9397
SWIDTH 1000 0
DWIDTH 16 0
BBX 15 15 0 -1
BITMAP
2008
4004
4004
8FF2
8022
8042
8082
8102
8102
8202
8402
8FF2
4004
4004
2008
ENDCHAR
STARTCHAR U+24EA
ENCODING 9450
SWIDTH 1000 0
DWIDTH 16 0
BBX 15 15 0 -1
BITMAP
07C0
1830
2008
4384
4444
8822
8822
8822
8822
8822
4444
4384
2008
1830
07C0
ENDCHAR
STARTCHAR U+2500
ENCODING 9472
SWIDTH 1000 0
DWIDTH 16 0
BBX 16 1 0 6
BITMAP
FFFF
ENDCHAR
STARTCHAR U+2501
ENCODING 9473
SWIDTH 1000 0
DWIDTH 16 0
BBX 16 2 0 5
BITMAP
FFFF
FFFF
ENDCHAR
STARTCHAR U+2502
ENCODING 9474
SWIDTH 1000 0
DWIDTH 16 0
BBX 1 16 8 -2
BITMAP
80
80
80
80
80
80
80
80
80
80
80
80
80
80
80
80
ENDCHAR
STARTCHAR U+2503
ENCODING 9475
SWIDTH 1000 0
DWIDTH 16 0
BBX 2 16 7 -2
BITMAP
C0
C0
C0
C0
C0
C0
C0
C0
C0
C0
C0
C0
C0
C0
C0
C0
ENDCHAR
STARTCHAR U+2504
ENCODING 9476
SWIDTH 1000 0
DWIDTH 16 0
BBX 15 1 0 6
BITMAP
EEEE
ENDCHAR
STARTCHAR U+2505
ENCODING 9477
SWIDTH 1000 0
DWIDTH 16 0
BBX 15 2 0 5
BITMAP
EEEE
EEEE
ENDCHAR
STARTCHAR U+2506
ENCODING 9478
SWIDTH 1000 0
DWIDTH 16 0
BBX 1 15 8 -1
BITMAP
80
80
80
00
80
80
80
00
80
80
80
00
80
80
80
ENDCHAR
STARTCHAR U+2507
ENCODING 9479
SWIDTH 1000 0
DWIDTH 16 0
BBX 2 15 7 -1
BITMAP
C0
C0
C0
00
C0
C0
C0
00
C0
C0
C0
00
C0
C0
C0
ENDCHAR
STARTCHAR U+2508
ENCODING 9480
SWIDTH 1000 0
DWIDTH 16 0
BBX 14 1 0 6
BITMAP
CCCC
ENDCHAR
STARTCHAR U+2509
ENCODING 9481
SWIDTH 1000 0
DWIDTH 16 0
BBX 14 2 0 5
BITMAP
CCCC
CCCC
ENDCHAR
STARTCHAR U+250A
ENCODING 9482
SWIDTH 1000 0
DWIDTH 16 0
BBX 1 14 8 0
BITMAP
80
80
00
00
80
80
00
00
80
80
00
00
80
80
ENDCHAR
STARTCHAR U+250B
ENCODING 9483
SWIDTH 1000 0
DWIDTH 16 0
BBX 2 14 7 0
BITMAP
C0
C0
00
00
C0
C0
00
00
C0
C0
00
00
C0
C0
ENDCHAR
STARTCHAR U+250C
ENCODING 9484
SWIDTH 1000 0
DWIDTH 16 0
BBX 9 9 7 -2
BITMAP
FF80
8000
8000
8000
8000
8000
8000
8000
8000
ENDCHAR
STARTCHAR U+250D
ENCODING 9485
SWIDTH 1000 0
DWIDTH 16 0
BBX 9 9 7 -2
BITMAP
FF80
FF80
8000
8000
8000
8000
8000
8000
8000
ENDCHAR
STARTCHAR U+250E
ENCODING 9486
SWIDTH 1000 0
DWIDTH 16 0
BBX 9 9 7 -2
BITMAP
FF80
C000
C000
C000
C000
C000
C000
C000
C000
ENDCHAR
STARTCHAR U+250F
ENCODING 9487
SWIDTH 1000 0
DWIDTH 16 0
BBX 9 9 7 -2
BITMAP
FF80
FF80
C000
C000
C000
C000
C000
C000
C000
ENDCHAR
STARTCHAR U+2510
ENCODING 9488
SWIDTH 1000 0
DWIDTH 16 0
BBX 8 9 0 -2
BITMAP
FF
01
01
01
01
01
01
01
01
ENDCHAR
STARTCHAR U+2511
ENCODING 9489
SWIDTH 1000 0
DWIDTH 16 0
BBX 8 9 0 -2
BITMAP
FF
FF
01
01
01
01
01
01
01
ENDCHAR
STARTCHAR U+2512
ENCODING 9490
SWIDTH 1000 0
DWIDTH 16 0
BBX 9 9 0 -2
BITMAP
FF80
0180
0180
0180
0180
0180
0180
0180
0180
ENDCHAR
STARTCHAR U+2513
ENCODING 9491
SWIDTH 1000 0
DWIDTH 16 0
BBX 9 9 0 -2
BITMAP
FF80
FF80
0180
0180
0180
0180
0180
0180
0180
ENDCHAR
STARTCHAR U+2514
ENCODING 9492
SWIDTH 1000 0
DWIDTH 16 0
BBX 9 8 7 6
BITMAP
8000
8000
8000
8000
8000
8000
8000
FF80
ENDCHAR
STARTCHAR U+2515
ENCODING 9493
SWIDTH 1000 0
DWIDTH 16 0
BBX 9 9 7 5
BITMAP
8000
8000
8000
8000
8000
8000
8000
FF80
FF80
ENDCHAR
STARTCHAR U+2516
ENCODING 9494
SWIDTH 1000 0
DWIDTH 16 0
BBX 9 8 7 6
BITMAP
C000
C000
C000
C000
C000
C000
C000
FF80
ENDCHAR
STARTCHAR U+2517
ENCODING 9495
SWIDTH 1000 0
DWIDTH 16 0
BBX 9 9 7 5
BITMAP
C000
C000
C000
C000
C000
C000
C000
FF80
FF80
ENDCHAR
STARTCHAR U+2518
ENCODING 9496
SWIDTH 1000 0
DWIDTH 16 0
BBX 8 8 0 6
BITMAP
01
01
01
01
01
01
01
FF
ENDCHAR
STARTCHAR U+2519
ENCODING 9497
SWIDTH 1000 0
DWIDTH 16 0
BBX 8 9 0 5
BITMAP
01
01
01
01
01
01
01
FF
FF
ENDCHAR
STARTCHAR U+251A
ENCODING 9498
SWIDTH 1000 0
DWIDTH 16 0
BBX 9 8 0 6
BITMAP
0180
0180
0180
0180
0180
0180
0180
FF80
ENDCHAR
STARTCHAR U+251B
ENCODING 9499
SWIDTH 1000 0
DWIDTH 16 0
BBX 9 9 0 5
BITMAP
0180
0180
0180
0180
0180
0180
0180
FF80
FF80
ENDCHAR
STARTCHAR U+251C
ENCODING 9500
SWIDTH 1000 0
DWIDTH 16 0
BBX 9 16 7 -2
BITMAP
8000
8000
8000
8000
8000
8000
8000
FF80
8000
8000
8000
8000
8000
8000
8000
8000
ENDCHAR
STARTCHAR U+251D
ENCODING 9501
SWIDTH 1000 0
DWIDTH 16 0
BBX 9 16 7 -2
BITMAP
8000
8000
8000
8000
8000
8000
8000
FF80
FF80
8000
8000
8000
8000
8000
8000
8000
ENDCHAR
STARTCHAR U+251E
ENCODING 9502
SWIDTH 1000 0
DWIDTH 16 0
BBX 9 16 7 -2
BITMAP
C000
C000
C000
C000
C000
C000
C000
FF80
8000
8000
8000
8000
8000
8000
8000
8000
ENDCHAR
STARTCHAR U+251F
ENCODING 9503
SWIDTH 1000 0
DWIDTH 16 0
BBX 9 16 7 -2
BITMAP
8000
8000
8000
8000
8000
8000
8000
FF80
C000
C000
C000
C000
C000
C000
C000
C000
ENDCHAR
STARTCHAR U+2520
ENCODING 9504
SWIDTH 1000 0
DWIDTH 16 0
BBX 9 16 7 -2
BITMAP
C000
C000
C000
C000
C000
C000
C000
FF80
C000
C000
C000
C000
C000
C000
C000
C000
ENDCHAR
STARTCHAR U+2521
ENCODING 9505
SWIDTH 1000 0
DWIDTH 16 0
BBX 9 16 7 -2
BITMAP
C000
C000
C000
C000
C000
C000
C000
FF80
FF80
8000
8000
8000
8000
8000
8000
8000
ENDCHAR
STARTCHAR U+2522
ENCODING 9506
SWIDTH 1000 0
DWIDTH 16 0
BBX 9 16 7 -2
BITMAP
8000
8000
8000
8000
8000
8000
8000
FF80
FF80
C000
C000
C000
C000
C000
C000
C000
ENDCHAR
STARTCHAR U+2523
ENCODING 9507
SWIDTH 1000 0
DWIDTH 16 0
BBX 9 16 7 -2
BITMAP
C000
C000
C000
C000
C000
C000
C000
FF80
FF80
C000
C000
C000
C000
C000
C000
C000
ENDCHAR
STARTCHAR U+2524
ENCODING 9508
SWIDTH 1000 0
DWIDTH 16 0
BBX 8 16 0 -2
BITMAP
01
01
01
01
01
01
01
FF
01
01
01
01
01
01
01
01
ENDCHAR
STARTCHAR U+2525
ENCODING 9509
SWIDTH 1000 0
DWIDTH 16 0
BBX 8 16 0 -2
BITMAP
01
01
01
01
01
01
01
FF
FF
01
01
01
01
01
01
01
ENDCHAR
STARTCHAR U+2526
ENCODING 9510
SWIDTH 1000 0
DWIDTH 16 0
BBX 9 16 0 -2
BITMAP
0180
0180
0180
0180
0180
0180
0180
FF80
0100
0100
0100
0100
0100
0100
0100
0100
ENDCHAR
STARTCHAR U+2527
ENCODING 9511
SWIDTH 1000 0
DWIDTH 16 0
BBX 9 16 0 -2
BITMAP
0100
0100
0100
0100
0100
0100
0100
FF80
0180
0180
0180
0180
0180
0180
0180
0180
ENDCHAR
STARTCHAR U+2528
ENCODING 9512
SWIDTH 1000 0
DWIDTH 16 0
BBX 9 16 0 -2
BITMAP
0180
0180
0180
0180
0180
0180
0180
FF80
0180
0180
0180
0180
0180
0180
0180
0180
ENDCHAR
STARTCHAR U+2529
ENCODING 9513
SWIDTH 1000 0
DWIDTH 16 0
BBX 9 16 0 -2
BITMAP
0180
0180
0180
0180
0180
0180
0180
FF80
FF80
0100
0100
0100
0100
0100
0100
0100
ENDCHAR
STARTCHAR U+252A
ENCODING 9514
SWIDTH 1000 0
DWIDTH 16 0
BBX 9 16 0 -2
BITMAP
0100
0100
0100
0100
0100
0100
0100
FF80
FF80
0180
0180
0180
0180
0180
0180
0180
ENDCHAR
STARTCHAR U+252B
ENCODING 9515
SWIDTH 1000 0
DWIDTH 16 0
BBX 9 16 0 -2
BITMAP
0180
0180
0180
0180
0180
0180
0180
FF80
FF80
0180
0180
0180
0180
0180
0180
0180
ENDCHAR
STARTCHAR U+252C
ENCODING 9516
SWIDTH 1000 0
DWIDTH 16 0
BBX 16 9 0 -2
BITMAP
FFFF
0100
0100
0100
0100
0100
0100
0100
0100
ENDCHAR
STARTCHAR U+252D
ENCODING 9517
SWIDTH 1000 0
DWIDTH 16 0
BBX 16 9 0 -2
BITMAP
FFFF
FF00
0100
0100
0100
0100
0100
0100
0100
ENDCHAR
STARTCHAR U+252E
ENCODING 9518
SWIDTH 1000 0
DWIDTH 16 0
BBX 16 9 0 -2
BITMAP
FFFF
01FF
0100
0100
0100
0100
0100
0100
0100
ENDCHAR
STARTCHAR U+252F
ENCODING 9519
SWIDTH 1000 0
DWIDTH 16 0
BBX 16 9 0 -2
BITMAP
FFFF
FFFF
0100
0100
0100
0100
0100
0100
0100
ENDCHAR
STARTCHAR U+2530
ENCODING 9520
SWIDTH 1000 0
DWIDTH 16 0
BBX 16 9 0 -2
BITMAP
FFFF
0180
0180
0180
0180
0180
0180
0180
0180
ENDCHAR
STARTCHAR U+2531
ENCODING 9521
SWIDTH 1000 0
DWIDTH 16 0
BBX 16 9 0 -2
BITMAP
FFFF
FF80
0180
0180
0180
0180
0180
0180
0180
ENDCHAR
STARTCHAR U+2532
ENCODING 9522
SWIDTH 1000 0
DWIDTH 16 0
BBX 16 9 0 -2
BITMAP
FFFF
01FF
0180
0180
0180
0180
0180
0180
0180
ENDCHAR
STARTCHAR U+2533
ENCODING 9523
SWIDTH 1000 0
DWIDTH 16 0
BBX 16 9 0 -2
BITMAP
FFFF
FFFF
0180
0180
0180
0180
0180
0180
0180
ENDCHAR
STARTCHAR U+2534
ENCODING 9524
SWIDTH 1000 0
DWIDTH 16 0
BBX 16 8 0 6
BITMAP
0100
0100
0100
0100
0100
0100
0100
FFFF
ENDCHAR
STARTCHAR U+2535
ENCODING 9525
SWIDTH 1000 0
DWIDTH 16 0
BBX 16 9 0 5
BITMAP
0100
0100
0100
0100
0100
0100
0100
FFFF
FF00
ENDCHAR
STARTCHAR U+2536
ENCODING 9526
SWIDTH 1000 0
DWIDTH 16 0
BBX 16 9 0 5
BITMAP
0100
0100
0100
0100
0100
0100
0100
FFFF
01FF
ENDCHAR
STARTCHAR U+2537
ENCODING 9527
SWIDTH 1000 0
DWIDTH 16 0
BBX 16 9 0 5
BITMAP
0100
0100
0100
0100
0100
0100
0100
FFFF
FFFF
ENDCHAR
STARTCHAR U+2538
ENCODING 9528
SWIDTH 1000 0
DWIDTH 16 0
BBX 16 8 0 6
BITMAP
0180
0180
0180
0180
0180
0180
0180
FFFF
ENDCHAR
STARTCHAR U+2539
ENCODING 9529
SWIDTH 1000 0
DWIDTH 16 0
BBX 16 9 0 5
BITMAP
0180
0180
0180
0180
0180
0180
0180
FFFF
FF80
ENDCHAR
STARTCHAR U+253A
ENCODING 9530
SWIDTH 1000 0
DWIDTH 16 0
BBX 16 9 0 5
BITMAP
0180
0180
0180
0180
0180
0180
0180
FFFF
01FF
ENDCHAR
STARTCHAR U+253B
ENCODING 9531
SWIDTH 1000 0
DWIDTH 16 0
BBX 16 9 0 5
BITMAP
0180
0180
0180
0180
0180
0180
0180
FFFF
FFFF
ENDCHAR
STARTCHAR U+253C
ENCODING 9532
SWIDTH 1000 0
DWIDTH 16 0
BBX 16 16 0 -2
BITMAP
0100
0100
0100
0100
0100
0100
0100
FFFF
0100
0100
0100
0100
0100
0100
0100
0100
ENDCHAR
STARTCHAR U+253D
ENCODING 9533
SWIDTH 1000 0
DWIDTH 16 0
BBX 16 16 0 -2
BITMAP
0100
0100
0100
0100
0100
0100
0100
FFFF
FF00
0100
0100
0100
0100
0100
0100
0100
ENDCHAR
STARTCHAR U+253E
ENCODING 9534
SWIDTH 1000 0
DWIDTH 16 0
BBX 16 16 0 -2
BITMAP
0100
0100
0100
0100
0100
0100
0100
FFFF
01FF
0100
0100
0100
0100
0100
0100
0100
ENDCHAR
STARTCHAR U+253F
ENCODING 9535
SWIDTH 1000 0
DWIDTH 16 0
BBX 16 16 0 -2
BITMAP
0100
0100
0100
0100
0100
0100
0100
FFFF
FFFF
0100
0100
0100
0100
0100
0100
0100
ENDCHAR
STARTCHAR U+2540
ENCODING 9536
SWIDTH 1000 0
DWIDTH 16 0
BBX 16 16 0 -2
BITMAP
0180
0180
0180
0180
0180
0180
0180
FFFF
0100
0100
0100
0100
0100
0100
0100
0100
ENDCHAR
STARTCHAR U+2541
ENCODING 9537
SWIDTH 1000 0
DWIDTH 16 0
BBX 16 16 0 -2
BITMAP
0100
0100
0100
0100
0100
0100
0100
FFFF
0180
0180
0180
0180
0180
0180
0180
0180
ENDCHAR
STARTCHAR U+2542
ENCODING 9538
SWIDTH 1000 0
DWIDTH 16 0
BBX 16 16 0 -2
BITMAP
0180
0180
0180
0180
0180
0180
0180
FFFF
0180
0180
0180
0180
0180
0180
0180
0180
ENDCHAR
STARTCHAR U+2543
ENCODING 9539
SWIDTH 1000 0
DWIDTH 16 0
BBX 16 16 0 -2
BITMAP
0180
0180
0180
0180
0180
0180
0180
FFFF
FF00
0100
0100
0100
0100
0100
0100
0100
ENDCHAR
STARTCHAR U+2544
ENCODING 9540
SWIDTH 1000 0
DWIDTH 16 0
BBX 16 16 0 -2
BITMAP
0180
0180
0180
0180
0180
0180
0180
FFFF
01FF
0100
0100
0100
0100
0100
0100
0100
ENDCHAR
STARTCHAR U+2545
ENCODING 9541
SWIDTH 1000 0
DWIDTH 16 0
BBX 16 16 0 -2
BITMAP
0100
0100
0100
0100
0100
0100
0100
FFFF
FF80
0180
0180
0180
0180
0180
0180
0180
ENDCHAR
STARTCHAR U+2546
ENCODING 9542
SWIDTH 1000 0
DWIDTH 16 0
BBX 16 16 0 -2
BITMAP
0100
0100
0100
0100
0100
0100
0100
FFFF
01FF
0180
0180
0180
0180
0180
0180
0180
ENDCHAR
STARTCHAR U+2547
ENCODING 9543
SWIDTH 1000 0
DWIDTH 16 0
BBX 16 16 0 -2
BITMAP
0180
0180
0180
0180
0180
0180
0180
FFFF
FFFF
0100
0100
0100
0100
0100
0100
0100
ENDCHAR
STARTCHAR U+2548
ENCODING 9544
SWIDTH 1000 0
DWIDTH 16 0
BBX 16 16 0 -2
BITMAP
0100
0100
0100
0100
0100
0100
0100
FFFF
FFFF
0180
0180
0180
0180
0180
0180
0180
ENDCHAR
STARTCHAR U+2549
ENCODING 9545
SWIDTH 1000 0
DWIDTH 16 0
BBX 16 16 0 -2
BITMAP
0180
0180
0180
0180
0180
0180
0180
FFFF
FF80
0180
0180
0180
0180
0180
0180
0180
ENDCHAR
STARTCHAR U+254A
ENCODING 9546
SWIDTH 1000 0
DWIDTH 16 0
BBX 16 16 0 -2
BITMAP
0180
0180
0180
0180
0180
0180
0180
FFFF
01FF
0180
0180
0180
0180
0180
0180
0180
ENDCHAR
STARTCHAR U+254B
ENCODING 9547
SWIDTH 1000 0
DWIDTH 16 0
BBX 16 16 0 -2
BITMAP
0180
0180
0180
0180
0180
0180
0180
FFFF
FFFF
0180
0180
0180
0180
0180
0180
0180
ENDCHAR
STARTCHAR U+2550
ENCODING 9552
SWIDTH 1000 0
DWIDTH 16 0
BBX 16 8 0 2
BITMAP
FFFF
FFFF
0000
0000
0000
0000
FFFF
FFFF
ENDCHAR
STARTCHAR U+255E
ENCODING 9566
SWIDTH 1000 0
DWIDTH 16 0
BBX 9 16 7 -2
BITMAP
C000
C000
C000
C000
FF80
FF80
C000
C000
C000
C000
FF80
FF80
C000
C000
C000
C000
ENDCHAR
STARTCHAR U+2561
ENCODING 9569
SWIDTH 1000 0
DWIDTH 16 0
BBX 9 16 0 -2
BITMAP
0180
0180
0180
0180
FF80
FF80
0180
0180
0180
0180
FF80
FF80
0180
0180
0180
0180
ENDCHAR
STARTCHAR U+256A
ENCODING 9578
SWIDTH 1000 0
DWIDTH 16 0
BBX 16 16 0 -2
BITMAP
0180
0180
0180
0180
FFFF
FFFF
0180
0180
0180
0180
FFFF
FFFF
0180
0180
0180
0180
ENDCHAR
STARTCHAR U+256D
ENCODING 9581
SWIDTH 1000 0
DWIDTH 16 0
BBX 9 9 7 -2
BITMAP
0780
1F80
3C00
7000
6000
E000
C000
C000
C000
ENDCHAR
STARTCHAR U+256E
ENCODING 9582
SWIDTH 1000 0
DWIDTH 16 0
BBX 9 9 0 -2
BITMAP
F000
FC00
1E00
0700
0300
0380
0180
0180
0180
ENDCHAR
STARTCHAR U+256F
ENCODING 9583
SWIDTH 1000 0
DWIDTH 16 0
BBX 9 9 0 5
BITMAP
0180
0180
0180
0380
0300
0700
1E00
FC00
F000
ENDCHAR
STARTCHAR U+2570
ENCODING 9584
SWIDTH 1000 0
DWIDTH 16 0
BBX 9 9 7 5
BITMAP
C000
C000
C000
E000
6000
7000
3C00
1F80
0780
ENDCHAR
STARTCHAR U+2571
ENCODING 9585
SWIDTH 1000 0
DWIDTH 16 0
BBX 14 14 1 -1
BITMAP
0004
0008
0010
0020
0040
0080
0100
0200
0400
0800
1000
2000
4000
8000
ENDCHAR
STARTCHAR U+2572
ENCODING 9586
SWIDTH 1000 0
DWIDTH 16 0
BBX 14 14 1 -1
BITMAP
8000
4000
2000
1000
0800
0400
0200
0100
0080
0040
0020
0010
0008
0004
ENDCHAR
STARTCHAR U+2573
ENCODING 9587
SWIDTH 1000 0
DWIDTH 16 0
BBX 11 11 3 0
BITMAP
8020
4040
2080
1100
0A00
0400
0A00
1100
2080
4040
8020
ENDCHAR
STARTCHAR U+2581
ENCODING 9601
SWIDTH 1000 0
DWIDTH 16 0
BBX 16 2 0 -2
BITMAP
FFFF
FFFF
ENDCHAR
STARTCHAR U+2582
ENCODING 9602
SWIDTH 1000 0
DWIDTH 16 0
BBX 16 4 0 -2
BITMAP
FFFF
FFFF
FFFF
FFFF
ENDCHAR
STARTCHAR U+2583
ENCODING 9603
SWIDTH 1000 0
DWIDTH 16 0
BBX 16 6 0 -2
BITMAP
FFFF
FFFF
FFFF
FFFF
FFFF
FFFF
ENDCHAR
STARTCHAR U+2584
ENCODING 9604
SWIDTH 1000 0
DWIDTH 16 0
BBX 16 8 0 -2
BITMAP
FFFF
FFFF
FFFF
FFFF
FFFF
FFFF
FFFF
FFFF
ENDCHAR
STARTCHAR U+2585
ENCODING 9605
SWIDTH 1000 0
DWIDTH 16 0
BBX 16 10 0 -2
BITMAP
FFFF
FFFF
FFFF
FFFF
FFFF
FFFF
FFFF
FFFF
FFFF
FFFF
ENDCHAR
STARTCHAR U+2586
ENCODING 9606
SWIDTH 1000 0
DWIDTH 16 0
BBX 16 12 0 -2
BITMAP
FFFF
FFFF
FFFF
FFFF
FFFF
FFFF
FFFF
FFFF
FFFF
FFFF
FFFF
FFFF
ENDCHAR
STARTCHAR U+2587
ENCODING 9607
SWIDTH 1000 0
DWIDTH 16 0
BBX 16 14 0 -2
BITMAP
FFFF
FFFF
FFFF
FFFF
FFFF
FFFF
FFFF
FFFF
FFFF
FFFF
FFFF
FFFF
FFFF
FFFF
ENDCHAR
STARTCHAR U+2588
ENCODING 9608
SWIDTH 1000 0
DWIDTH 16 0
BBX 16 16 0 -2
BITMAP
FFFF
FFFF
FFFF
FFFF
FFFF
FFFF
FFFF
FFFF
FFFF
FFFF
FFFF
FFFF
FFFF
FFFF
FFFF
FFFF
ENDCHAR
STARTCHAR U+2589
ENCODING 9609
SWIDTH 1000 0
DWIDTH 16 0
BBX 14 16 0 -2
BITMAP
FFFC
FFFC
FFFC
FFFC
FFFC
FFFC
FFFC
FFFC
FFFC
FFFC
FFFC
FFFC
FFFC
FFFC
FFFC
FFFC
ENDCHAR
STARTCHAR U+258A
ENCODING 9610
SWIDTH 1000 0
DWIDTH 16 0
BBX 12 16 0 -2
BITMAP
FFF0
FFF0
FFF0
FFF0
FFF0
FFF0
FFF0
FFF0
FFF0
FFF0
FFF0
FFF0
FFF0
FFF0
FFF0
FFF0
ENDCHAR
STARTCHAR U+258B
ENCODING 9611
SWIDTH 1000 0
DWIDTH 16 0
BBX 10 16 0 -2
BITMAP
FFC0
FFC0
FFC0
FFC0
FFC0
FFC0
FFC0
FFC0
FFC0
FFC0
FFC0
FFC0
FFC0
FFC0
FFC0
FFC0
ENDCHAR
STARTCHAR U+258C
ENCODING 9612
SWIDTH 1000 0
DWIDTH 16 0
BBX 8 16 0 -2
BITMAP
FF
FF
FF
FF
FF
FF
FF
FF
FF
FF
FF
FF
FF
FF
FF
FF
ENDCHAR
STARTCHAR U+258D
ENCODING 9613
SWIDTH 1000 0
DWIDTH 16 0
BBX 6 16 0 -2
BITMAP
FC
FC
FC
FC
FC
FC
FC
FC
FC
FC
FC
FC
FC
FC
FC
FC
ENDCHAR
STARTCHAR U+258E
ENCODING 9614
SWIDTH 1000 0
DWIDTH 16 0
BBX 4 16 0 -2
BITMAP
F0
F0
F0
F0
F0
F0
F0
F0
F0
F0
F0
F0
F0
F0
F0
F0
ENDCHAR
STARTCHAR U+258F
ENCODING 9615
SWIDTH 1000 0
DWIDTH 16 0
BBX 2 16 0 -2
BITMAP
C0
C0
C0
C0
C0
C0
C0
C0
C0
C0
C0
C0
C0
C0
C0
C0
ENDCHAR
STARTCHAR U+2594
ENCODING 9620
SWIDTH 1000 0
DWIDTH 16 0
BBX 16 2 0 12
BITMAP
FFFF
FFFF
ENDCHAR
STARTCHAR U+2595
ENCODING 9621
SWIDTH 1000 0
DWIDTH 16 0
BBX 2 16 14 -2
BITMAP
C0
C0
C0
C0
C0
C0
C0
C0
C0
C0
C0
C0
C0
C0
C0
C0
ENDCHAR
STARTCHAR U+25A0
ENCODING 9632
SWIDTH 1000 0
DWIDTH 16 0
BBX 14 14 1 -1
BITMAP
FFFC
FFFC
FFFC
FFFC
FFFC
FFFC
FFFC
FFFC
FFFC
FFFC
FFFC
FFFC
FFFC
FFFC
ENDCHAR
STARTCHAR U+25A1
ENCODING 9633
SWIDTH 1000 0
DWIDTH 16 0
BBX 14 14 1 -1
BITMAP
FFFC
8004
8004
8004
8004
8004
8004
8004
8004
8004
8004
8004
8004
FFFC
ENDCHAR
STARTCHAR U+25A2
ENCODING 9634
SWIDTH 1000 0
DWIDTH 16 0
BBX 14 14 1 -1
BITMAP
7FF8
8004
8004
8004
8004
8004
8004
8004
8004
8004
8004
8004
8004
7FF8
ENDCHAR
STARTCHAR U+25B2
ENCODING 9650
SWIDTH 1000 0
DWIDTH 16 0
BBX 15 10 0 1
BITMAP
0100
0380
07C0
0FE0
0FE0
1FF0
3FF8
7FFC
7FFC
FFFE
ENDCHAR
STARTCHAR U+25B3
ENCODING 9651
SWIDTH 1000 0
DWIDTH 16 0
BBX 15 10 0 1
BITMAP
0100
0280
0440
0820
0820
1010
2008
4004
4004
FFFE
ENDCHAR
STARTCHAR U+25B7
ENCODING 9655
SWIDTH 1000 0
DWIDTH 16 0
BBX 11 15 2 -1
BITMAP
8000
C000
A000
9800
8400
8300
8080
8060
8080
8300
8400
9800
A000
C000
8000
ENDCHAR
STARTCHAR U+25BC
ENCODING 9660
SWIDTH 1000 0
DWIDTH 16 0
BBX 15 10 0 0
BITMAP
FFFE
7FFC
7FFC
3FF8
1FF0
0FE0
0FE0
07C0
0380
0100
ENDCHAR
STARTCHAR U+25BD
ENCODING 9661
SWIDTH 1000 0
DWIDTH 16 0
BBX 15 10 0 0
BITMAP
FFFE
4004
4004
2008
1010
0820
0820
0440
0280
0100
ENDCHAR
STARTCHAR U+25C1
ENCODING 9665
SWIDTH 1000 0
DWIDTH 16 0
BBX 11 15 2 -1
BITMAP
0020
0060
00A0
0320
0420
1820
2020
C020
2020
1820
0420
0320
00A0
0060
0020
ENDCHAR
STARTCHAR U+25C6
ENCODING 9670
SWIDTH 1000 0
DWIDTH 16 0
BBX 15 15 0 -1
BITMAP
0100
0380
07C0
0FE0
1FF0
3FF8
7FFC
FFFE
7FFC
3FF8
1FF0
0FE0
07C0
0380
0100
ENDCHAR
STARTCHAR U+25C7
ENCODING 9671
SWIDTH 1000 0
DWIDTH 16 0
BBX 15 15 0 -1
BITMAP
0100
0280
0440
0820
1010
2008
4004
8002
4004
2008
1010
0820
0440
0280
0100
ENDCHAR
STARTCHAR U+25C9
ENCODING 9673
SWIDTH 1000 0
DWIDTH 16 0
BBX 15 15 0 -1
BITMAP
07C0
1830
2008
4384
4FE4
8FE2
9FF2
9FF2
9FF2
8FE2
4FE4
4384
2008
1830
07C0
ENDCHAR
STARTCHAR U+25CB
ENCODING 9675
SWIDTH 1000 0
DWIDTH 16 0
BBX 14 14 1 -1
BITMAP
0780
1860
2010
4008
4008
8004
8004
8004
8004
4008
4008
2010
1860
0780
ENDCHAR
STARTCHAR U+25CE
ENCODING 9678
SWIDTH 1000 0
DWIDTH 16 0
BBX 14 14 1 -1
BITMAP
0780
1860
2010
4788
4848
9024
9024
9024
9024
4848
4788
2010
1860
0780
ENDCHAR
STARTCHAR U+25CF
ENCODING 9679
SWIDTH 1000 0
DWIDTH 16 0
BBX 14 14 1 -1
BITMAP
0780
1FE0
3FF0
7FF8
7FF8
FFFC
FFFC
FFFC
FFFC
7FF8
7FF8
3FF0
1FE0
0780
ENDCHAR
STARTCHAR U+25E2
ENCODING 9698
SWIDTH 1000 0
DWIDTH 16 0
BBX 16 16 0 -2
BITMAP
0001
0003
0007
000F
001F
003F
007F
00FF
01FF
03FF
07FF
0FFF
1FFF
3FFF
7FFF
FFFF
ENDCHAR
STARTCHAR U+25E3
ENCODING 9699
SWIDTH 1000 0
DWIDTH 16 0
BBX 16 16 0 -2
BITMAP
8000
C000
E000
F000
F800
FC00
FE00
FF00
FF80
FFC0
FFE0
FFF0
FFF8
FFFC
FFFE
FFFF
ENDCHAR
STARTCHAR U+25E4
ENCODING 9700
SWIDTH 1000 0
DWIDTH 16 0
BBX 16 16 0 -2
BITMAP
FFFF
FFFE
FFFC
FFF8
FFF0
FFE0
FFC0
FF80
FF00
FE00
FC00
F800
F000
E000
C000
8000
ENDCHAR
STARTCHAR U+25E5
ENCODING 9701
SWIDTH 1000 0
DWIDTH 16 0
BBX 16 16 0 -2
BITMAP
FFFF
7FFF
3FFF
1FFF
0FFF
07FF
03FF
01FF
00FF
007F
003F
001F
000F
0007
0003
0001
ENDCHAR
STARTCHAR U+25EF
ENCODING 9711
SWIDTH 1000 0
DWIDTH 16 0
BBX 15 15 0 -1
BITMAP
07C0
1830
2008
4004
4004
8002
8002
8002
8002
8002
4004
4004
2008
1830
07C0
ENDCHAR
STARTCHAR U+2600
ENCODING 9728
SWIDTH 1000 0
DWIDTH 16 0
BBX 15 15 0 -1
BITMAP
0100
2108
1010
07C0
0FE0
1FF0
1FF0
DFF6
1FF0
1FF0
0FE0
07C0
2010
4108
0100
ENDCHAR
STARTCHAR U+2601
ENCODING 9729
SWIDTH 1000 0
DWIDTH 16 0
BBX 14 11 1 1
BITMAP
0F00
1F80
1FB8
1FFC
7FFC
FFFC
FFF8
FFFC
FDFC
78FC
0078
ENDCHAR
STARTCHAR U+2602
ENCODING 9730
SWIDTH 1000 0
DWIDTH 16 0
BBX 15 14 0 0
BITMAP
0100
0100
0FE0
3FF8
7FFC
FFFE
FFFE
9112
0100
0100
0100
0900
0900
0600
ENDCHAR
STARTCHAR U+2603
ENCODING 9731
SWIDTH 1000 0
DWIDTH 16 0
BBX 15 14 0 0
BITMAP
0100
8062
1090
4788
0850
52B4
1010
8AA4
3118
4004
4104
4004
2108
1FF0
ENDCHAR
STARTCHAR U+2605
ENCODING 9733
SWIDTH 1000 0
DWIDTH 16 0
BBX 15 15 0 -1
BITMAP
0100
0100
0100
0380
0380
FFFE
7FFC
1FF0
0FE0
0FE0
0FE0
1EF0
1C70
3838
2008
ENDCHAR
STARTCHAR U+2606
ENCODING 9734
SWIDTH 1000 0
DWIDTH 16 0
BBX 15 15 0 -1
BITMAP
0100
0100
0100
0280
0280
FC7E
600C
1010
0820
0820
0920
1290
1450
3838
2008
ENDCHAR
STARTCHAR U+260E
ENCODING 9742
SWIDTH 1000 0
DWIDTH 16 0
BBX 15 12 0 1
BITMAP
1FF0
7FFC
FFFE
F45E
F7DE
EFEE
1C70
3838
783C
7C7C
7FFC
3FF8
ENDCHAR
STARTCHAR U+261C
ENCODING 9756
SWIDTH 1000 0
DWIDTH 16 0
BBX 15 9 0 2
BITMAP
7FE0
881C
790A
1A8A
176A
088A
078A
045C
03E0
ENDCHAR
STARTCHAR U+261D
ENCODING 9757
SWIDTH 1000 0
DWIDTH 16 0
BBX 9 15 3 -1
BITMAP
4000
A000
A000
B800
F400
8B00
9A80
AA80
9680
8980
8880
4100
7F00
4100
3E00
ENDCHAR
STARTCHAR U+261E
ENCODING 9758
SWIDTH 1000 0
DWIDTH 16 0
BBX 15 9 0 2
BITMAP
0FFC
7022
A13C
A2B0
ADD0
A220
A3C0
7440
0F80
ENDCHAR
STARTCHAR U+261F
ENCODING 9759
SWIDTH 1000 0
DWIDTH 16 0
BBX 9 15 3 -1
BITMAP
3E00
4100
7F00
4100
8880
8980
9680
AA80
9A80
8B00
F400
B800
A000
A000
4000
ENDCHAR
STARTCHAR U+262F
ENCODING 9775
SWIDTH 1000 0
DWIDTH 16 0
BBX 14 14 1 -1
BITMAP
0780
1860
2010
4008
4068
BC64
FE04
FF0C
E7FC
67F8
7FF8
3FF0
1FE0
0780
ENDCHAR
STARTCHAR U+2640
ENCODING 9792
SWIDTH 1000 0
DWIDTH 16 0
BBX 11 14 2 -1
BITMAP
0E00
1100
2080
2080
2080
1100
0E00
0400
0400
FFE0
0400
0400
0400
0400
ENDCHAR
STARTCHAR U+2642
ENCODING 9794
SWIDTH 1000 0
DWIDTH 16 0
BBX 12 12 1 0
BITMAP
07F0
0030
0050
0090
0110
3A10
4410
8200
8200
8200
4400
3800
ENDCHAR
STARTCHAR U+2660
ENCODING 9824
SWIDTH 1000 0
DWIDTH 16 0
BBX 14 14 1 -1
BITMAP
0300
0780
0FC0
1FE0
3FF0
7FF8
7FF8
FFFC
FFFC
FFFC
7FF8
3B70
0300
0780
ENDCHAR
STARTCHAR U+2661
ENCODING 9825
SWIDTH 1000 0
DWIDTH 16 0
BBX 15 14 1 -1
BITMAP
3C78
4284
8102
8002
8002
8002
4004
4004
2008
1010
0820
0440
0280
0100
ENDCHAR
STARTCHAR U+2662
ENCODING 9826
SWIDTH 1000 0
DWIDTH 16 0
BBX 13 14 1 -1
BITMAP
0200
0500
0880
1040
2020
4010
8008
8008
4010
2020
1040
0880
0500
0200
ENDCHAR
STARTCHAR U+2663
ENCODING 9827
SWIDTH 1000 0
DWIDTH 16 0
BBX 14 14 1 -1
BITMAP
0780
0FC0
1FE0
1FE0
0FC0
37B0
7FF8
FFFC
FFFC
FFFC
7B78
3330
0300
0780
ENDCHAR
STARTCHAR U+2664
ENCODING 9828
SWIDTH 1000 0
DWIDTH 16 0
BBX 14 14 1 -1
BITMAP
0300
0480
0840
1020
2010
4008
4008
8004
8004
8004
4788
3B70
0300
0780
ENDCHAR
STARTCHAR U+2665
ENCODING 9829
SWIDTH 1000 0
DWIDTH 16 0
BBX 15 14 1 -1
BITMAP
3C78
7EFC
FFFE
FFFE
FFFE
FFFE
7FFC
7FFC
3FF8
1FF0
0FE0
07C0
0380
0100
ENDCHAR
STARTCHAR U+2666
ENCODING 9830
SWIDTH 1000 0
DWIDTH 16 0
BBX 13 14 1 -1
BITMAP
0200
0700
0F80
1FC0
3FE0
7FF0
FFF8
FFF8
7FF0
3FE0
1FC0
0F80
0700
0200
ENDCHAR
STARTCHAR U+2667
ENCODING 9831
SWIDTH 1000 0
DWIDTH 16 0
BBX 14 14 1 -1
BITMAP
0780
0840
1020
1020
0840
34B0
4848
8004
8004
8784
4B48
3330
0300
0780
ENDCHAR
STARTCHAR U+266A
ENCODING 9834
SWIDTH 1000 0
DWIDTH 16 0
BBX 8 14 4 -1
BITMAP
10
18
18
1C
16
13
11
11
11
11
12
74
F0
E0
ENDCHAR
STARTCHAR U+266D
ENCODING 9837
SWIDTH 1000 0
DWIDTH 16 0
BBX 7 14 5 -1
BITMAP
80
80
80
80
80
80
9C
A2
C2
82
82
84
88
70
ENDCHAR
STARTCHAR U+266F
ENCODING 9839
SWIDTH 1000 0
DWIDTH 16 0
BBX 10 15 3 -2
BITMAP
0200
1200
1200
13C0
1E00
F200
1200
1200
13C0
1E00
F200
1200
1200
1200
1000
ENDCHAR
STARTCHAR U+267F
ENCODING 9855
SWIDTH 1000 0
DWIDTH 16 0
BBX 14 14 1 -1
BITMAP
7FF8
8004
8034
8334
8484
8084
8D04
90C4
A124
A124
9234
8C04
8004
7FF8
ENDCHAR
STARTCHAR U+26A0
ENCODING 9888
SWIDTH 1000 0
DWIDTH 16 0
BBX 15 15 0 -1
BITMAP
0100
0100
0280
0280
0440
0540
0920
0920
1110
1110
2008
2008
4104
4004
FFFE
ENDCHAR
STARTCHAR U+26E9
ENCODING 9961
SWIDTH 1000 0
DWIDTH 16 0
BBX 15 14 0 -1
BITMAP
FFFE
2108
2108
2108
3FF8
2008
2008
2008
2008
2008
2008
2008
2008
2008
ENDCHAR
STARTCHAR U+2776
ENCODING 10102
SWIDTH 1000 0
DWIDTH 16 0
BBX 15 15 0 -1
BITMAP
07C0
1FF0
3FF8
787C
7F7C
FF7E
FF7E
FF7E
FF7E
FF7E
7F7C
7F7C
3FF8
1FF0
07C0
ENDCHAR
STARTCHAR U+2777
ENCODING 10103
SWIDTH 1000 0
DWIDTH 16 0
BBX 15 15 0 -1
BITMAP
07C0
1FF0
3FF8
783C
77DC
F7DE
FF3E
FCFE
FBFE
F7FE
77FC
701C
3FF8
1FF0
07C0
ENDCHAR
STARTCHAR U+2778
ENCODING 10104
SWIDTH 1000 0
DWIDTH 16 0
BBX 15 15 0 -1
BITMAP
07C0
1FF0
3FF8
783C
77DC
F7DE
FFDE
FC3E
FFDE
F7DE
77DC
783C
3FF8
1FF0
07C0
ENDCHAR
STARTCHAR U+2779
ENCODING 10105
SWIDTH 1000 0
DWIDTH 16 0
BBX 15 15 0 -1
BITMAP
07C0
1FF0
3FF8
7FBC
7F3C
FEBE
FDBE
FBBE
F7BE
E01E
7FBC
7FBC
3FF8
1FF0
07C0
ENDCHAR
STARTCHAR U+277A
ENCODING 10106
SWIDTH 1000 0
DWIDTH 16 0
BBX 15 15 0 -1
BITMAP
07C0
1FF0
3FF8
701C
77FC
F7FE
F03E
F7DE
FFDE
FFDE
77DC
783C
3FF8
1FF0
07C0
ENDCHAR
STARTCHAR U+277B
ENCODING 10107
SWIDTH 1000 0
DWIDTH 16 0
BBX 15 15 0 -1
BITMAP
07C0
1FF0
3FF8
783C
77DC
F7DE
F7FE
F03E
F7DE
F7DE
77DC
783C
3FF8
1FF0
07C0
ENDCHAR
STARTCHAR U+277C
ENCODING 10108
SWIDTH 1000 0
DWIDTH 16 0
BBX 15 15 0 -1
BITMAP
07C0
1FF0
3FF8
701C
7FDC
FFBE
FF7E
FEFE
FDFE
FDFE
7BFC
7BFC
3FF8
1FF0
07C0
ENDCHAR
STARTCHAR U+277D
ENCODING 10109
SWIDTH 1000 0
DWIDTH 16 0
BBX 15 15 0 -1
BITMAP
07C0
1FF0
3FF8
783C
77DC
F7DE
F7DE
F83E
F7DE
F7DE
77DC
783C
3FF8
1FF0
07C0
ENDCHAR
STARTCHAR U+277E
ENCODING 10110
SWIDTH 1000 0
DWIDTH 16 0
BBX 15 15 0 -1
BITMAP
07C0
1FF0
3FF8
783C
77DC
F7DE
F7DE
F81E
FFDE
F7DE
77DC
783C
3FF8
1FF0
07C0
ENDCHAR
STARTCHAR U+27A1
ENCODING 10145
SWIDTH 1000 0
DWIDTH 16 0
BBX 13 12 2 0
BITMAP
0100
0180
01C0
01E0
FFF0
FFF8
FFF8
FFF0
01E0
01C0
0180
0100
ENDCHAR
STARTCHAR U+2921
ENCODING 10529
SWIDTH 1000 0
DWIDTH 16 0
BBX 12 12 2 0
BITMAP
F800
C000
A000
9000
8800
0400
0200
0110
0090
0050
0030
01F0
ENDCHAR
STARTCHAR U+2922
ENCODING 10530
SWIDTH 1000 0
DWIDTH 16 0
BBX 12 12 2 0
BITMAP
01F0
0030
0050
0090
0110
0200
0400
8800
9000
A000
C000
F800
ENDCHAR
STARTCHAR U+2B05
ENCODING 11013
SWIDTH 1000 0
DWIDTH 16 0
BBX 13 12 2 0
BITMAP
0400
0C00
1C00
3C00
7FF8
FFF8
FFF8
7FF8
3C00
1C00
0C00
0400
ENDCHAR
STARTCHAR U+2B06
ENCODING 11014
SWIDTH 1000 0
DWIDTH 16 0
BBX 12 13 2 -1
BITMAP
0600
0F00
1F80
3FC0
7FE0
FFF0
0F00
0F00
0F00
0F00
0F00
0F00
0F00
ENDCHAR
STARTCHAR U+2B07
ENCODING 11015
SWIDTH 1000 0
DWIDTH 16 0
BBX 12 13 2 -1
BITMAP
0F00
0F00
0F00
0F00
0F00
0F00
0F00
FFF0
7FE0
3FC0
1F80
0F00
0600
ENDCHAR
STARTCHAR U+2B95
ENCODING 11157
SWIDTH 1000 0
DWIDTH 16 0
BBX 13 12 2 0
BITMAP
0100
0180
01C0
01E0
FFF0
FFF8
FFF8
FFF0
01E0
01C0
0180
0100
ENDCHAR
STARTCHAR U+2E80
ENCODING 11904
SWIDTH 1000 0
DWIDTH 16 0
BBX 9 11 3 1
BITMAP
C000
3000
0C00
0200
0100
C080
3000
0C00
0200
0100
0080
ENDCHAR
STARTCHAR U+2E81
ENCODING 11905
SWIDTH 1000 0
DWIDTH 16 0
BBX 14 15 0 -1
BITMAP
007C
3F80
2000
2000
2000
2000
2000
2000
2000
2000
4000
4000
4000
8000
8000
ENDCHAR
STARTCHAR U+2E82
ENCODING 11906
SWIDTH 1000 0
DWIDTH 16 0
BBX 13 5 1 8
BITMAP
FFF8
0008
0008
0010
0010
ENDCHAR
STARTCHAR U+2E83
ENCODING 11907
SWIDTH 1000 0
DWIDTH 16 0
BBX 13 14 1 0
BITMAP
8000
8000
8000
8000
8000
8000
8000
8000
8000
8008
8008
8008
8008
7FF0
ENDCHAR
STARTCHAR U+2E84
ENCODING 11908
SWIDTH 1000 0
DWIDTH 16 0
BBX 15 14 0 -1
BITMAP
FF00
0100
0100
0100
0100
0100
0080
0080
0040
0040
0020
0010
0008
0006
ENDCHAR
STARTCHAR U+2E85
ENCODING 11909
SWIDTH 1000 0
DWIDTH 16 0
BBX 5 15 5 -1
BITMAP
08
08
08
10
10
30
30
50
90
10
10
10
10
10
10
ENDCHAR
STARTCHAR U+2E86
ENCODING 11910
SWIDTH 1000 0
DWIDTH 16 0
BBX 12 14 1 -1
BITMAP
3FF0
2010
2010
2010
2010
2010
2010
2010
2010
2010
2010
4010
4010
81E0
ENDCHAR
STARTCHAR U+2E87
ENCODING 11911
SWIDTH 1000 0
DWIDTH 16 0
BBX 15 14 0 -1
BITMAP
3FF0
2010
2010
2010
2010
2010
2010
2010
2010
4012
4012
400A
800A
8004
ENDCHAR
STARTCHAR U+2E88
ENCODING 11912
SWIDTH 1000 0
DWIDTH 16 0
BBX 14 9 0 5
BITMAP
0400
0400
0400
0FFC
0804
1004
2008
C030
00C0
ENDCHAR
STARTCHAR U+2E89
ENCODING 11913
SWIDTH 1000 0
DWIDTH 16 0
BBX 5 15 5 -1
BITMAP
08
08
88
88
88
88
88
88
88
88
88
08
08
08
70
ENDCHAR
STARTCHAR U+2E8A
ENCODING 11914
SWIDTH 1000 0
DWIDTH 16 0
BBX 6 15 7 -1
BITMAP
80
80
80
80
80
80
FC
80
80
80
80
80
80
80
80
ENDCHAR
STARTCHAR U+2E8B
ENCODING 11915
SWIDTH 1000 0
DWIDTH 16 0
BBX 12 9 2 -1
BITMAP
FFC0
8040
8040
8040
8780
8010
8010
8010
7FE0
ENDCHAR
STARTCHAR U+2E8C
ENCODING 11916
SWIDTH 1000 0
DWIDTH 16 0
BBX 11 5 2 9
BITMAP
0400
8420
4440
2480
0400
ENDCHAR
STARTCHAR U+2E8D
ENCODING 11917
SWIDTH 1000 0
DWIDTH 16 0
BBX 10 4 2 10
BITMAP
8840
4440
4480
0100
ENDCHAR
STARTCHAR U+2E8E
ENCODING 11918
SWIDTH 1000 0
DWIDTH 16 0
BBX 15 14 0 -1
BITMAP
FFFE
0440
0440
0440
0440
0440
0440
0840
0840
1042
1042
2042
4042
803C
ENDCHAR
STARTCHAR U+2E8F
ENCODING 11919
SWIDTH 1000 0
DWIDTH 16 0
BBX 15 15 0 -1
BITMAP
0460
0410
0808
1004
2002
C442
0440
0440
0440
0440
0842
0842
1042
2042
C03C
ENDCHAR
STARTCHAR U+2E90
ENCODING 11920
SWIDTH 1000 0
DWIDTH 16 0
BBX 14 15 0 -1
BITMAP
0200
0200
0200
0200
FFFC
0200
0200
0280
0480
0480
0884
0884
1084
2084
C078
ENDCHAR
STARTCHAR U+2E91
ENCODING 11921
SWIDTH 1000 0
DWIDTH 16 0
BBX 15 15 0 -1
BITMAP
0460
0410
0808
1004
2002
C7C2
0440
0440
0440
0440
0842
0842
1042
2042
C03C
ENDCHAR
STARTCHAR U+2E92
ENCODING 11922
SWIDTH 1000 0
DWIDTH 16 0
BBX 13 14 1 -1
BITMAP
FFE0
8020
8020
8020
8020
8020
FFE0
8000
8000
8000
8008
8008
8008
7FF0
ENDCHAR
STARTCHAR U+2E93
ENCODING 11923
SWIDTH 1000 0
DWIDTH 16 0
BBX 13 15 1 -1
BITMAP
0200
0200
0400
0420
0820
1040
2080
7F80
0100
0220
0420
0810
31F0
FE08
0008
ENDCHAR
STARTCHAR U+2E94
ENCODING 11924
SWIDTH 1000 0
DWIDTH 16 0
BBX 14 14 0 0
BITMAP
0800
0800
0800
0FE0
0820
1020
1020
1040
3FC0
2040
2080
0080
0080
FFFC
ENDCHAR
STARTCHAR U+2E95
ENCODING 11925
SWIDTH 1000 0
DWIDTH 16 0
BBX 13 13 1 0
BITMAP
FFF8
0008
0008
0008
0008
0008
7FF8
0008
0008
0008
0008
0008
FFF8
ENDCHAR
STARTCHAR U+2E96
ENCODING 11926
SWIDTH 1000 0
DWIDTH 16 0
BBX 6 15 4 -1
BITMAP
10
10
10
58
54
54
90
90
90
10
10
10
10
10
10
ENDCHAR
STARTCHAR U+2E97
ENCODING 11927
SWIDTH 1000 0
DWIDTH 16 0
BBX 10 15 3 -1
BITMAP
1000
1000
1000
5900
5480
5480
9240
9240
9000
1000
1000
1000
1000
1000
1000
ENDCHAR
STARTCHAR U+2E98
ENCODING 11928
SWIDTH 1000 0
DWIDTH 16 0
BBX 7 15 4 -1
BITMAP
10
10
10
10
FE
10
10
1E
F0
10
10
10
10
10
E0
ENDCHAR
STARTCHAR U+2E99
ENCODING 11929
SWIDTH 1000 0
DWIDTH 16 0
BBX 15 15 0 -1
BITMAP
0400
0400
0400
07FC
0810
0810
1810
2420
4420
0240
0180
0180
0640
1830
E00E
ENDCHAR
STARTCHAR U+2E9B
ENCODING 11931
SWIDTH 1000 0
DWIDTH 16 0
BBX 15 14 0 -1
BITMAP
3FF8
0100
1100
1100
2100
2100
3FFC
0180
0280
0280
0480
0882
3082
C07C
ENDCHAR
STARTCHAR U+2E9C
ENCODING 11932
SWIDTH 1000 0
DWIDTH 16 0
BBX 13 5 1 8
BITMAP
FFF8
8008
BFE8
8008
BFE8
ENDCHAR
STARTCHAR U+2E9D
ENCODING 11933
SWIDTH 1000 0
DWIDTH 16 0
BBX 10 14 3 -1
BITMAP
FFC0
8040
8040
8040
FFC0
8040
8040
FFC0
8040
8040
8040
8040
8040
8780
ENDCHAR
STARTCHAR U+2E9E
ENCODING 11934
SWIDTH 1000 0
DWIDTH 16 0
BBX 15 15 0 -1
BITMAP
0080
0080
00FE
0480
0480
07F8
0408
0808
1410
6220
0140
0080
0300
0C00
F000
ENDCHAR
STARTCHAR U+2E9F
ENCODING 11935
SWIDTH 1000 0
DWIDTH 16 0
BBX 15 14 0 -1
BITMAP
1FF8
1008
1308
10C8
1008
FFFE
2010
2610
2190
4010
7FFC
4010
0010
00E0
ENDCHAR
STARTCHAR U+2EA0
ENCODING 11936
SWIDTH 1000 0
DWIDTH 16 0
BBX 15 14 0 -1
BITMAP
3FF8
2008
2008
2008
3FF8
2080
2080
3FFC
2080
2040
2042
3E22
E012
000C
ENDCHAR
STARTCHAR U+2EA1
ENCODING 11937
SWIDTH 1000 0
DWIDTH 16 0
BBX 5 14 5 0
BITMAP
20
10
08
00
40
20
10
00
08
10
10
20
40
80
ENDCHAR
STARTCHAR U+2EA2
ENCODING 11938
SWIDTH 1000 0
DWIDTH 16 0
BBX 15 15 0 -1
BITMAP
0100
0100
0104
4104
3108
0910
0560
0100
0540
0920
3118
C106
0100
0100
0E00
ENDCHAR
STARTCHAR U+2EA3
ENCODING 11939
SWIDTH 1000 0
DWIDTH 16 0
BBX 14 3 1 -1
BITMAP
4910
4488
8484
ENDCHAR
STARTCHAR U+2EA4
ENCODING 11940
SWIDTH 1000 0
DWIDTH 16 0
BBX 12 4 2 10
BITMAP
01F0
FE20
4420
2240
ENDCHAR
STARTCHAR U+2EA5
ENCODING 11941
SWIDTH 1000 0
DWIDTH 16 0
BBX 12 5 2 9
BITMAP
01F0
7E40
4420
4210
8210
ENDCHAR
STARTCHAR U+2EA6
ENCODING 11942
SWIDTH 1000 0
DWIDTH 16 0
BBX 8 15 3 -1
BITMAP
01
01
21
11
09
09
01
03
05
09
31
C1
01
01
01
ENDCHAR
STARTCHAR U+2EA7
ENCODING 11943
SWIDTH 1000 0
DWIDTH 16 0
BBX 15 8 0 6
BITMAP
0100
1100
1100
1FF8
2100
4100
0100
FFFE
ENDCHAR
STARTCHAR U+2EA8
ENCODING 11944
SWIDTH 1000 0
DWIDTH 16 0
BBX 6 15 5 -1
BITMAP
84
44
28
10
30
C8
08
08
34
C4
04
04
04
08
70
ENDCHAR
STARTCHAR U+2EA9
ENCODING 11945
SWIDTH 1000 0
DWIDTH 16 0
BBX 5 12 5 1
BITMAP
F8
20
20
20
20
F8
20
20
20
20
38
C0
ENDCHAR
STARTCHAR U+2EAA
ENCODING 11946
SWIDTH 1000 0
DWIDTH 16 0
BBX 7 13 4 0
BITMAP
FC
04
08
10
10
10
5E
50
50
50
56
58
E0
ENDCHAR
STARTCHAR U+2EAB
ENCODING 11947
SWIDTH 1000 0
DWIDTH 16 0
BBX 13 4 1 9
BITMAP
FFF8
8888
8888
FFF8
ENDCHAR
STARTCHAR U+2EAC
ENCODING 11948
SWIDTH 1000 0
DWIDTH 16 0
BBX 8 14 3 -1
BITMAP
7F
00
00
00
FF
08
08
49
49
49
49
89
89
08
ENDCHAR
STARTCHAR U+2EAD
ENCODING 11949
SWIDTH 1000 0
DWIDTH 16 0
BBX 7 15 4 -1
BITMAP
10
10
10
FC
04
08
10
18
36
D0
10
10
10
10
10
ENDCHAR
STARTCHAR U+2EAE
ENCODING 11950
SWIDTH 1000 0
DWIDTH 16 0
BBX 15 5 0 9
BITMAP
2080
2080
3EFE
4890
8508
ENDCHAR
STARTCHAR U+2EAF
ENCODING 11951
SWIDTH 1000 0
DWIDTH 16 0
BBX 7 15 4 -1
BITMAP
10
10
A4
44
28
10
24
44
FA
10
54
52
92
90
10
ENDCHAR
STARTCHAR U+2EB0
ENCODING 11952
SWIDTH 1000 0
DWIDTH 16 0
BBX 6 14 5 0
BITMAP
10
10
20
24
44
F8
10
20
4C
F0
00
00
0C
F0
ENDCHAR
STARTCHAR U+2EB1
ENCODING 11953
SWIDTH 1000 0
DWIDTH 16 0
BBX 13 4 1 9
BITMAP
FFF8
98C8
8708
98C8
ENDCHAR
STARTCHAR U+2EB2
ENCODING 11954
SWIDTH 1000 0
DWIDTH 16 0
BBX 13 5 1 8
BITMAP
FFF8
9048
8888
BFE8
8030
ENDCHAR
STARTCHAR U+2EB3
ENCODING 11955
SWIDTH 1000 0
DWIDTH 16 0
BBX 15 5 0 8
BITMAP
FFFE
8002
84C2
8832
3008
ENDCHAR
STARTCHAR U+2EB4
ENCODING 11956
SWIDTH 1000 0
DWIDTH 16 0
BBX 15 14 0 -1
BITMAP
FFFE
8442
8442
8442
0440
0440
0440
0840
0840
0840
1042
1042
2042
C03C
ENDCHAR
STARTCHAR U+2EB5
ENCODING 11957
SWIDTH 1000 0
DWIDTH 16 0
BBX 15 14 0 -1
BITMAP
FFFE
8442
8442
8442
8442
8442
8442
8442
8442
8442
8442
8442
8442
8002
ENDCHAR
STARTCHAR U+2EB6
ENCODING 11958
SWIDTH 1000 0
DWIDTH 16 0
BBX 15 15 0 -1
BITMAP
0820
0440
7FFC
0100
0100
3FF8
0100
0200
FFFE
0200
0480
0480
0882
1082
607C
ENDCHAR
STARTCHAR U+2EB7
ENCODING 11959
SWIDTH 1000 0
DWIDTH 16 0
BBX 15 9 0 5
BITMAP
0820
0440
7FFC
0100
0100
3FF8
0100
0100
FFFE
ENDCHAR
STARTCHAR U+2EB8
ENCODING 11960
SWIDTH 1000 0
DWIDTH 16 0
BBX 15 15 0 -1
BITMAP
0440
0440
0440
7C7C
0440
0440
0000
FFFE
0100
0100
3FF8
0100
0100
0100
0100
ENDCHAR
STARTCHAR U+2EB9
ENCODING 11961
SWIDTH 1000 0
DWIDTH 16 0
BBX 15 11 0 3
BITMAP
0100
0100
3FF4
0108
0110
0120
7FFE
0080
0300
1C00
E000
ENDCHAR
STARTCHAR U+2EBA
ENCODING 11962
SWIDTH 1000 0
DWIDTH 16 0
BBX 15 15 0 -1
BITMAP
0100
0100
3FF8
0108
0108
FFFE
0108
0108
3FF8
0100
0100
0100
0100
0100
0100
ENDCHAR
STARTCHAR U+2EBB
ENCODING 11963
SWIDTH 1000 0
DWIDTH 16 0
BBX 15 13 0 1
BITMAP
0100
3FF8
0108
0108
FFFE
0108
0108
3FF8
0100
7FFC
0100
0100
FFFE
ENDCHAR
STARTCHAR U+2EBC
ENCODING 11964
SWIDTH 1000 0
DWIDTH 16 0
BBX 12 14 1 -1
BITMAP
1FF0
1010
1010
1610
1190
1050
1010
1610
1190
2050
2010
4010
4010
81E0
ENDCHAR
STARTCHAR U+2EBD
ENCODING 11965
SWIDTH 1000 0
DWIDTH 16 0
BBX 12 15 2 -1
BITMAP
0400
1800
E1F0
8010
8010
8010
8010
F9F0
8010
8010
8010
8010
F9F0
8010
8010
ENDCHAR
STARTCHAR U+2EBE
ENCODING 11966
SWIDTH 1000 0
DWIDTH 16 0
BBX 15 5 0 9
BITMAP
0820
0820
FFFE
0820
0820
ENDCHAR
STARTCHAR U+2EBF
ENCODING 11967
SWIDTH 1000 0
DWIDTH 16 0
BBX 15 5 0 9
BITMAP
0820
0820
FEFE
0820
0820
ENDCHAR
STARTCHAR U+2EC0
ENCODING 11968
SWIDTH 1000 0
DWIDTH 16 0
BBX 15 15 0 -1
BITMAP
0440
0440
0440
0440
0440
0440
FC7E
0440
0440
0440
0440
0440
0440
0440
0440
ENDCHAR
STARTCHAR U+2EC1
ENCODING 11969
SWIDTH 1000 0
DWIDTH 16 0
BBX 15 15 0 -1
BITMAP
0100
01F8
0100
3FFC
2104
21F0
2F04
2104
20F8
2000
4220
4220
4222
8422
981C
ENDCHAR
STARTCHAR U+2EC2
ENCODING 11970
SWIDTH 1000 0
DWIDTH 16 0
BBX 7 15 4 -1
BITMAP
10
10
10
FC
04
08
12
14
3C
D2
10
10
10
10
10
ENDCHAR
STARTCHAR U+2EC3
ENCODING 11971
SWIDTH 1000 0
DWIDTH 16 0
BBX 15 7 0 7
BITMAP
FFFE
0440
0440
7FFC
4444
4444
7FFC
ENDCHAR
STARTCHAR U+2EC4
ENCODING 11972
SWIDTH 1000 0
DWIDTH 16 0
BBX 15 14 0 -1
BITMAP
FFFE
0240
0240
0240
3FFC
2244
2244
2444
243C
2804
3004
2004
3FFC
2004
ENDCHAR
STARTCHAR U+2EC5
ENCODING 11973
SWIDTH 1000 0
DWIDTH 16 0
BBX 15 14 0 -1
BITMAP
1FF0
1010
1010
1110
1110
1110
1110
1110
1190
0290
0282
0482
1882
E07C
ENDCHAR
STARTCHAR U+2EC6
ENCODING 11974
SWIDTH 1000 0
DWIDTH 16 0
BBX 13 15 1 -1
BITMAP
0800
0FE0
1040
2080
7FF8
A108
2108
3FF8
2108
2108
3FF8
2108
4108
4108
8070
ENDCHAR
STARTCHAR U+2EC7
ENCODING 11975
SWIDTH 1000 0
DWIDTH 16 0
BBX 13 15 1 -1
BITMAP
0800
0FE0
1040
2080
7FF8
A108
2108
22C8
2D28
2108
22C8
2C28
4008
4008
8070
ENDCHAR
STARTCHAR U+2EC8
ENCODING 11976
SWIDTH 1000 0
DWIDTH 16 0
BBX 7 13 4 0
BITMAP
20
10
08
00
00
F0
10
10
10
10
16
18
30
ENDCHAR
STARTCHAR U+2EC9
ENCODING 11977
SWIDTH 1000 0
DWIDTH 16 0
BBX 14 14 0 -1
BITMAP
3FF0
2010
2010
2210
2210
2210
2210
2210
2210
2210
0480
0860
3018
C004
ENDCHAR
STARTCHAR U+2ECA
ENCODING 11978
SWIDTH 1000 0
DWIDTH 16 0
BBX 6 13 4 0
BITMAP
7C
44
44
44
7C
10
10
5C
50
50
50
5C
E0
ENDCHAR
STARTCHAR U+2ECB
ENCODING 11979
SWIDTH 1000 0
DWIDTH 16 0
BBX 15 15 0 -1
BITMAP
0400
0400
0400
FFFE
0800
0900
1100
1100
3FF8
0100
0100
FFFE
0100
0100
0100
ENDCHAR
STARTCHAR U+2ECC
ENCODING 11980
SWIDTH 1000 0
DWIDTH 16 0
BBX 15 14 0 -1
BITMAP
4000
2000
1000
0000
0000
0000
F000
1000
1000
1000
1000
1000
2800
C7FE
ENDCHAR
STARTCHAR U+2ECD
ENCODING 11981
SWIDTH 1000 0
DWIDTH 16 0
BBX 15 15 0 -1
BITMAP
4000
2000
1000
0000
8000
4000
2000
0000
F000
1000
1000
1000
1000
2800
C7FE
ENDCHAR
STARTCHAR U+2ECE
ENCODING 11982
SWIDTH 1000 0
DWIDTH 16 0
BBX 15 14 0 -1
BITMAP
4000
2000
1000
0000
0000
F000
1000
2000
4000
7000
1000
1000
2800
C7FE
ENDCHAR
STARTCHAR U+2ECF
ENCODING 11983
SWIDTH 1000 0
DWIDTH 16 0
BBX 6 14 5 -1
BITMAP
FC
84
88
88
90
90
88
84
84
84
B8
80
80
80
ENDCHAR
STARTCHAR U+2ED0
ENCODING 11984
SWIDTH 1000 0
DWIDTH 16 0
BBX 8 14 4 0
BITMAP
10
10
3E
20
40
BE
10
10
FF
10
10
16
18
30
ENDCHAR
STARTCHAR U+2ED1
ENCODING 11985
SWIDTH 1000 0
DWIDTH 16 0
BBX 15 14 0 -1
BITMAP
0FF8
0800
0FF0
0800
0FF0
0800
0800
FFFE
0900
088C
08B0
0860
1E18
E006
ENDCHAR
STARTCHAR U+2ED2
ENCODING 11986
SWIDTH 1000 0
DWIDTH 16 0
BBX 15 14 0 -1
BITMAP
0FF0
0800
0800
0FE0
0800
0FE0
0800
0800
FFFE
0420
0810
11F8
7E04
0004
ENDCHAR
STARTCHAR U+2ED3
ENCODING 11987
SWIDTH 1000 0
DWIDTH 16 0
BBX 15 15 0 -1
BITMAP
0800
0810
0820
0840
0880
0B00
0800
FFFE
0A00
0900
0880
0840
09A0
0E18
1806
ENDCHAR
STARTCHAR U+2ED4
ENCODING 11988
SWIDTH 1000 0
DWIDTH 16 0
BBX 13 15 1 -1
BITMAP
4000
27F8
1008
9008
8008
8008
8008
8008
8008
8008
8008
8008
8008
8008
8070
ENDCHAR
STARTCHAR U+2ED5
ENCODING 11989
SWIDTH 1000 0
DWIDTH 16 0
BBX 10 15 3 -1
BITMAP
1000
FF80
8080
8080
FF80
8000
FFC0
8040
8040
FFC0
8000
FFC0
8040
8040
FFC0
ENDCHAR
STARTCHAR U+2ED6
ENCODING 11990
SWIDTH 1000 0
DWIDTH 16 0
BBX 5 14 6 -1
BITMAP
F8
88
90
90
A0
90
88
88
88
F0
80
80
80
80
ENDCHAR
STARTCHAR U+2ED7
ENCODING 11991
SWIDTH 1000 0
DWIDTH 16 0
BBX 13 7 1 6
BITMAP
7FF0
0200
FFF8
8208
BAE8
8208
3AE0
ENDCHAR
STARTCHAR U+2ED8
ENCODING 11992
SWIDTH 1000 0
DWIDTH 16 0
BBX 15 15 0 -1
BITMAP
0100
7FFC
0100
3FF8
0100
FFFE
0000
1FF0
1010
1FF0
1010
1FF0
1010
1010
10E0
ENDCHAR
STARTCHAR U+2ED9
ENCODING 11993
SWIDTH 1000 0
DWIDTH 16 0
BBX 14 15 0 -1
BITMAP
0100
0100
0100
7FFC
0100
0100
1FF0
0100
0100
FFFC
0104
0104
0104
0138
0100
ENDCHAR
STARTCHAR U+2EDA
ENCODING 11994
SWIDTH 1000 0
DWIDTH 16 0
BBX 15 14 0 -1
BITMAP
FFFE
0100
0200
1FF0
1010
1110
1110
1110
1110
1110
1110
0260
0C18
7004
ENDCHAR
STARTCHAR U+2EDB
ENCODING 11995
SWIDTH 1000 0
DWIDTH 16 0
BBX 15 14 0 -1
BITMAP
3FF0
2010
2010
2050
2850
2490
2290
2110
2110
4292
4452
582A
800A
8004
ENDCHAR
STARTCHAR U+2EDC
ENCODING 11996
SWIDTH 1000 0
DWIDTH 16 0
BBX 14 14 1 -1
BITMAP
FF80
0080
0088
0090
00A0
00C0
00A0
0090
0088
0080
0040
0044
0024
0018
ENDCHAR
STARTCHAR U+2EDD
ENCODING 11997
SWIDTH 1000 0
DWIDTH 16 0
BBX 15 15 0 -1
BITMAP
0100
0280
0440
0920
3118
DFE6
1020
1FE0
1020
1FE0
1008
1390
1060
1F18
7004
ENDCHAR
STARTCHAR U+2EDE
ENCODING 11998
SWIDTH 1000 0
DWIDTH 16 0
BBX 8 15 3 -1
BITMAP
08
14
22
3D
40
BE
22
3E
22
3E
20
3E
20
3E
20
ENDCHAR
STARTCHAR U+2EDF
ENCODING 11999
SWIDTH 1000 0
DWIDTH 16 0
BBX 7 15 4 -1
BITMAP
10
28
24
7A
40
FC
44
7C
44
7C
40
48
4C
74
C0
ENDCHAR
STARTCHAR U+2EE0
ENCODING 12000
SWIDTH 1000 0
DWIDTH 16 0
BBX 7 14 4 0
BITMAP
10
10
20
3E
42
54
90
10
10
10
10
16
18
30
ENDCHAR
STARTCHAR U+2EE1
ENCODING 12001
SWIDTH 1000 0
DWIDTH 16 0
BBX 15 15 0 -1
BITMAP
0888
1110
2220
1110
0888
FFFE
0200
1FF8
1008
1FF8
1008
1FF8
1008
1FF8
1008
ENDCHAR
STARTCHAR U+2EE2
ENCODING 12002
SWIDTH 1000 0
DWIDTH 16 0
BBX 14 14 0 -1
BITMAP
7FF0
0010
0810
0820
1020
1040
2040
3FFC
0004
0004
FFE4
0004
0008
0070
ENDCHAR
STARTCHAR U+2EE3
ENCODING 12003
SWIDTH 1000 0
DWIDTH 16 0
BBX 13 14 1 -1
BITMAP
3FE0
2020
3F20
2120
FFF8
8008
BFE8
2020
3FE0
2020
3FE0
2020
2020
23C0
ENDCHAR
STARTCHAR U+2EE4
ENCODING 12004
SWIDTH 1000 0
DWIDTH 16 0
BBX 15 15 0 -1
BITMAP
0100
0200
3FF8
2108
2108
3FF8
2108
2108
3FF8
0520
0528
0948
11F6
2102
C0FC
ENDCHAR
STARTCHAR U+2EE5
ENCODING 12005
SWIDTH 1000 0
DWIDTH 16 0
BBX 15 14 0 0
BITMAP
0400
07E0
0840
1080
7FF8
9108
1108
1FF8
1108
1108
1FF8
0000
0000
FFFE
ENDCHAR
STARTCHAR U+2EE6
ENCODING 12006
SWIDTH 1000 0
DWIDTH 16 0
BBX 14 15 0 -1
BITMAP
0100
0200
3FF0
2010
2410
2210
2160
2000
3FFC
0004
0004
FFE4
0004
0004
0038
ENDCHAR
STARTCHAR U+2EE7
ENCODING 12007
SWIDTH 1000 0
DWIDTH 16 0
BBX 12 15 2 -1
BITMAP
0400
0400
07F0
0400
0400
FFE0
8020
9120
8A20
8420
8A20
B120
8020
FFE0
8020
ENDCHAR
STARTCHAR U+2EE8
ENCODING 12008
SWIDTH 1000 0
DWIDTH 16 0
BBX 15 15 0 -1
BITMAP
0100
0100
7FFC
0100
3FF8
0100
0100
FFFE
0400
0FF0
1420
6240
0180
0E70
700E
ENDCHAR
STARTCHAR U+2EE9
ENCODING 12009
SWIDTH 1000 0
DWIDTH 16 0
BBX 15 15 0 -1
BITMAP
0440
0440
7FFC
0440
0440
FFFE
0100
1FF0
1110
1FF0
1110
1110
1FF0
0820
701C
ENDCHAR
STARTCHAR U+2EEA
ENCODING 12010
SWIDTH 1000 0
DWIDTH 16 0
BBX 13 14 1 -1
BITMAP
7FC0
4040
4040
7FC0
0400
FFE0
8420
FFE0
8420
8420
FFE8
8408
0408
03F0
ENDCHAR
STARTCHAR U+2EEB
ENCODING 12011
SWIDTH 1000 0
DWIDTH 16 0
BBX 15 15 0 -1
BITMAP
0100
0100
FFFE
0820
0440
0380
0C70
F01E
1010
1FF0
1010
1FF0
2010
2010
4010
ENDCHAR
STARTCHAR U+2EEC
ENCODING 12012
SWIDTH 1000 0
DWIDTH 16 0
BBX 15 15 0 -1
BITMAP
0100
0100
7FFC
0820
0820
0440
0380
0C60
F01E
0440
0440
0840
0840
1040
2040
ENDCHAR
STARTCHAR U+2EED
ENCODING 12013
SWIDTH 1000 0
DWIDTH 16 0
BBX 15 15 0 -1
BITMAP
0100
11F0
1100
1100
FFFE
0000
4928
4548
5FE8
4588
4948
5128
4108
7FF8
4008
ENDCHAR
STARTCHAR U+2EEE
ENCODING 12014
SWIDTH 1000 0
DWIDTH 16 0
BBX 15 15 0 -1
BITMAP
0100
0100
11F0
1100
1100
FFFE
0000
2108
2108
2288
2448
2828
2008
3FF8
2008
ENDCHAR
STARTCHAR U+2EEF
ENCODING 12015
SWIDTH 1000 0
DWIDTH 16 0
BBX 15 15 0 -1
BITMAP
0100
7FFC
0820
0440
FFFE
0000
3FF8
2108
3FF8
2108
2108
3FFA
2102
0102
00FC
ENDCHAR
STARTCHAR U+2EF0
ENCODING 12016
SWIDTH 1000 0
DWIDTH 16 0
BBX 15 15 0 -1
BITMAP
0240
0220
0210
0200
FFFE
0200
0288
0288
0490
0490
08A0
08C2
1182
2682
C07C
ENDCHAR
STARTCHAR U+2EF1
ENCODING 12017
SWIDTH 1000 0
DWIDTH 16 0
BBX 15 15 0 -1
BITMAP
0800
1FC0
E080
3FF0
2510
3DF0
0500
75F8
1598
FF68
1568
FF9A
15FA
7502
03FC
ENDCHAR
STARTCHAR U+2EF2
ENCODING 12018
SWIDTH 1000 0
DWIDTH 16 0
BBX 15 15 0 -1
BITMAP
0800
1FC0
E080
3FF8
2108
3FF8
2108
3FF8
7FFC
4104
7FFC
4104
7FFC
4102
00FE
ENDCHAR
STARTCHAR U+2EF3
ENCODING 12019
SWIDTH 1000 0
DWIDTH 16 0
BBX 15 15 0 -1
BITMAP
0400
07E0
0840
1080
3FF8
E108
2108
3FF8
2108
2108
3FF8
2100
0102
0102
00FC
ENDCHAR
STARTCHAR U+2F00
ENCODING 12032
SWIDTH 1000 0
DWIDTH 16 0
BBX 15 1 0 6
BITMAP
FFFE
ENDCHAR
STARTCHAR U+2F01
ENCODING 12033
SWIDTH 1000 0
DWIDTH 16 0
BBX 1 15 7 -1
BITMAP
80
80
80
80
80
80
80
80
80
80
80
80
80
80
80
ENDCHAR
STARTCHAR U+2F02
ENCODING 12034
SWIDTH 1000 0
DWIDTH 16 0
BBX 6 9 4 2
BITMAP
80
40
20
20
10
08
08
04
04
ENDCHAR
STARTCHAR U+2F03
ENCODING 12035
SWIDTH 1000 0
DWIDTH 16 0
BBX 5 15 5 -1
BITMAP
08
08
08
08
08
08
08
08
10
10
10
20
20
40
80
ENDCHAR
STARTCHAR U+2F04
ENCODING 12036
SWIDTH 1000 0
DWIDTH 16 0
BBX 14 13 0 0
BITMAP
FFF0
0010
0020
0040
0180
0200
0C00
1000
2004
4004
8004
8004
7FF8
ENDCHAR
STARTCHAR U+2F05
ENCODING 12037
SWIDTH 1000 0
DWIDTH 16 0
BBX 5 15 5 -1
BITMAP
08
08
08
08
08
08
08
08
08
08
08
08
08
08
F0
ENDCHAR
STARTCHAR U+2F06
ENCODING 12038
SWIDTH 1000 0
DWIDTH 16 0
BBX 15 10 0 1
BITMAP
3FF8
0000
0000
0000
0000
0000
0000
0000
0000
FFFE
ENDCHAR
STARTCHAR U+2F07
ENCODING 12039
SWIDTH 1000 0
DWIDTH 16 0
BBX 15 5 0 5
BITMAP
0100
0100
0100
0100
FFFE
ENDCHAR
STARTCHAR U+2F08
ENCODING 12040
SWIDTH 1000 0
DWIDTH 16 0
BBX 15 15 0 -1
BITMAP
0100
0100
0100
0100
0100
0100
0100
0280
0280
0440
0440
0820
1010
2008
C006
ENDCHAR
STARTCHAR U+2F09
ENCODING 12041
SWIDTH 1000 0
DWIDTH 16 0
BBX 15 15 0 -1
BITMAP
0840
0840
0840
0840
0840
0840
0840
0840
0840
1040
1040
1042
2042
4042
803C
ENDCHAR
STARTCHAR U+2F0A
ENCODING 12042
SWIDTH 1000 0
DWIDTH 16 0
BBX 15 14 0 -1
BITMAP
1F00
0100
0100
0100
0100
0100
0280
0280
0440
0440
0820
1010
2008
C006
ENDCHAR
STARTCHAR U+2F0B
ENCODING 12043
SWIDTH 1000 0
DWIDTH 16 0
BBX 15 15 0 -1
BITMAP
0040
0440
0440
0440
0440
0820
0820
0820
1010
1010
1008
2008
2004
4004
8002
ENDCHAR
STARTCHAR U+2F0C
ENCODING 12044
SWIDTH 1000 0
DWIDTH 16 0
BBX 12 14 1 -1
BITMAP
FFF0
8010
8010
8010
8010
8010
8010
8010
8010
8010
8010
8010
8010
81E0
ENDCHAR
STARTCHAR U+2F0D
ENCODING 12045
SWIDTH 1000 0
DWIDTH 16 0
BBX 14 3 0 10
BITMAP
FFFC
8004
8004
ENDCHAR
STARTCHAR U+2F0E
ENCODING 12046
SWIDTH 1000 0
DWIDTH 16 0
BBX 4 11 5 1
BITMAP
40
20
10
00
00
10
20
20
40
40
80
ENDCHAR
STARTCHAR U+2F0F
ENCODING 12047
SWIDTH 1000 0
DWIDTH 16 0
BBX 15 14 0 -1
BITMAP
1FE0
1020
1020
1020
1020
1020
1020
1020
1020
1022
2022
2022
4022
801C
ENDCHAR
STARTCHAR U+2F10
ENCODING 12048
SWIDTH 1000 0
DWIDTH 16 0
BBX 13 14 1 -1
BITMAP
8008
8008
8008
8008
8008
8008
8008
8008
8008
8008
8008
8008
FFF8
8008
ENDCHAR
STARTCHAR U+2F11
ENCODING 12049
SWIDTH 1000 0
DWIDTH 16 0
BBX 14 13 0 -1
BITMAP
7FFC
0104
0104
0104
0104
0204
0204
0204
0404
0404
0808
3008
C0F0
ENDCHAR
STARTCHAR U+2F12
ENCODING 12050
SWIDTH 1000 0
DWIDTH 16 0
BBX 14 15 0 -1
BITMAP
0100
0100
0100
0100
7FFC
0104
0104
0204
0204
0404
0404
0804
1008
2008
C0F0
ENDCHAR
STARTCHAR U+2F13
ENCODING 12051
SWIDTH 1000 0
DWIDTH 16 0
BBX 14 15 0 -1
BITMAP
0800
0800
0FFC
1004
1004
2004
C004
0004
0004
0004
0004
0004
0008
0008
00F0
ENDCHAR
STARTCHAR U+2F14
ENCODING 12052
SWIDTH 1000 0
DWIDTH 16 0
BBX 14 15 0 -1
BITMAP
2000
2000
2000
2010
2020
20C0
2700
3800
E000
2000
2004
2004
2004
2004
1FF8
ENDCHAR
STARTCHAR U+2F15
ENCODING 12053
SWIDTH 1000 0
DWIDTH 16 0
BBX 13 14 1 -1
BITMAP
FFF0
8000
8000
8000
8000
8000
8000
8000
8000
8000
8000
8000
FFF8
8000
ENDCHAR
STARTCHAR U+2F16
ENCODING 12054
SWIDTH 1000 0
DWIDTH 16 0
BBX 15 12 0 0
BITMAP
FFFE
1000
1000
1000
1000
1000
1000
1000
1000
1000
1000
0FFC
ENDCHAR
STARTCHAR U+2F17
ENCODING 12055
SWIDTH 1000 0
DWIDTH 16 0
BBX 15 15 0 -1
BITMAP
0100
0100
0100
0100
0100
0100
0100
FFFE
0100
0100
0100
0100
0100
0100
0100
ENDCHAR
STARTCHAR U+2F18
ENCODING 12056
SWIDTH 1000 0
DWIDTH 16 0
BBX 7 15 5 -1
BITMAP
80
80
80
80
80
C0
B0
8C
82
80
80
80
80
80
80
ENDCHAR
STARTCHAR U+2F19
ENCODING 12057
SWIDTH 1000 0
DWIDTH 16 0
BBX 7 14 4 -1
BITMAP
FE
82
82
82
82
82
82
82
82
82
BC
80
80
80
ENDCHAR
STARTCHAR U+2F1A
ENCODING 12058
SWIDTH 1000 0
DWIDTH 16 0
BBX 15 14 0 -1
BITMAP
3FFE
2000
2000
2000
2000
2000
2000
2000
4000
4000
4000
4000
8000
8000
ENDCHAR
STARTCHAR U+2F1B
ENCODING 12059
SWIDTH 1000 0
DWIDTH 16 0
BBX 15 15 0 -1
BITMAP
0100
0100
0100
0100
0100
0200
0200
0200
0410
0408
0408
0804
087E
FF82
0002
ENDCHAR
STARTCHAR U+2F1C
ENCODING 12060
SWIDTH 1000 0
DWIDTH 16 0
BBX 15 14 0 -1
BITMAP
7FF8
0008
0808
0810
0810
0420
0440
0240
0280
0100
0280
0440
1830
E00E
ENDCHAR
STARTCHAR U+2F1D
ENCODING 12061
SWIDTH 1000 0
DWIDTH 16 0
BBX 12 13 2 -1
BITMAP
FFF0
8010
8010
8010
8010
8010
8010
8010
8010
8010
8010
FFF0
8010
ENDCHAR
STARTCHAR U+2F1E
ENCODING 12062
SWIDTH 1000 0
DWIDTH 16 0
BBX 13 14 1 -1
BITMAP
FFF8
8008
8008
8008
8008
8008
8008
8008
8008
8008
8008
8008
FFF8
8008
ENDCHAR
STARTCHAR U+2F1F
ENCODING 12063
SWIDTH 1000 0
DWIDTH 16 0
BBX 15 14 0 0
BITMAP
0100
0100
0100
0100
0100
0100
7FFC
0100
0100
0100
0100
0100
0100
FFFE
ENDCHAR
STARTCHAR U+2F20
ENCODING 12064
SWIDTH 1000 0
DWIDTH 16 0
BBX 15 14 0 0
BITMAP
0100
0100
0100
0100
0100
0100
FFFE
0100
0100
0100
0100
0100
0100
7FFC
ENDCHAR
STARTCHAR U+2F21
ENCODING 12065
SWIDTH 1000 0
DWIDTH 16 0
BBX 15 15 0 -1
BITMAP
0400
0400
07F8
0408
0808
0810
1810
2420
4420
0240
0180
0180
0660
1818
E006
ENDCHAR
STARTCHAR U+2F22
ENCODING 12066
SWIDTH 1000 0
DWIDTH 16 0
BBX 15 15 0 -1
BITMAP
0200
0200
43F0
2410
1410
1810
1810
2420
4420
0240
0180
0180
0660
1818
E006
ENDCHAR
STARTCHAR U+2F23
ENCODING 12067
SWIDTH 1000 0
DWIDTH 16 0
BBX 12 15 1 -1
BITMAP
0200
0200
0200
07F0
0410
0810
1420
6220
0140
0080
0100
0200
0C00
3000
C000
ENDCHAR
STARTCHAR U+2F24
ENCODING 12068
SWIDTH 1000 0
DWIDTH 16 0
BBX 15 15 0 -1
BITMAP
0100
0100
0100
0100
0100
FFFE
0100
0280
0280
0440
0440
0820
1010
2008
C006
ENDCHAR
STARTCHAR U+2F25
ENCODING 12069
SWIDTH 1000 0
DWIDTH 16 0
BBX 15 15 0 -1
BITMAP
0200
0200
0200
0200
0400
FFFE
0420
0820
1020
3840
0680
0180
0260
1C10
E008
ENDCHAR
STARTCHAR U+2F26
ENCODING 12070
SWIDTH 1000 0
DWIDTH 16 0
BBX 15 14 0 -1
BITMAP
3FF0
0020
0040
0180
0100
0100
FFFE
0100
0100
0100
0100
0100
0100
0E00
ENDCHAR
STARTCHAR U+2F27
ENCODING 12071
SWIDTH 1000 0
DWIDTH 16 0
BBX 13 6 1 8
BITMAP
0200
0200
0200
FFF8
8008
8008
ENDCHAR
STARTCHAR U+2F28
ENCODING 12072
SWIDTH 1000 0
DWIDTH 16 0
BBX 15 15 0 -1
BITMAP
0020
0020
0020
0020
FFFE
0020
1020
0820
0420
0420
0020
0020
0020
0020
01C0
ENDCHAR
STARTCHAR U+2F29
ENCODING 12073
SWIDTH 1000 0
DWIDTH 16 0
BBX 15 15 0 -1
BITMAP
0100
0100
0100
0100
1110
1110
1110
2108
2108
4104
4102
8100
0100
0100
1E00
ENDCHAR
STARTCHAR U+2F2A
ENCODING 12074
SWIDTH 1000 0
DWIDTH 16 0
BBX 14 15 0 -1
BITMAP
0200
0200
0200
0200
FFFC
0200
0200
0280
0480
0480
0884
0884
1084
2084
C078
ENDCHAR
STARTCHAR U+2F2B
ENCODING 12075
SWIDTH 1000 0
DWIDTH 16 0
BBX 13 14 1 -1
BITMAP
3FF8
2008
2008
2008
2008
3FF8
2008
2000
2000
4000
4000
4000
8000
8000
ENDCHAR
STARTCHAR U+2F2C
ENCODING 12076
SWIDTH 1000 0
DWIDTH 16 0
BBX 14 15 0 -1
BITMAP
0100
0100
4104
4104
4104
4104
4104
4104
7FFC
4104
0200
0200
0400
1800
E000
ENDCHAR
STARTCHAR U+2F2D
ENCODING 12077
SWIDTH 1000 0
DWIDTH 16 0
BBX 13 15 1 -1
BITMAP
0200
0200
0200
8208
8208
8208
8208
8208
8208
8208
8208
8208
FFF8
8008
8008
ENDCHAR
STARTCHAR U+2F2E
ENCODING 12078
SWIDTH 1000 0
DWIDTH 16 0
BBX 13 14 1 0
BITMAP
1108
1108
1108
2210
2220
4220
4440
8440
4220
2220
2110
1108
1108
1108
ENDCHAR
STARTCHAR U+2F2F
ENCODING 12079
SWIDTH 1000 0
DWIDTH 16 0
BBX 15 12 0 0
BITMAP
7FFC
0100
0100
0100
0100
0100
0100
0100
0100
0100
0100
FFFE
ENDCHAR
STARTCHAR U+2F30
ENCODING 12080
SWIDTH 1000 0
DWIDTH 16 0
BBX 13 14 1 -1
BITMAP
FFE0
0020
0020
0020
0020
FFE0
8000
8000
8000
8008
8008
8008
8008
7FF0
ENDCHAR
STARTCHAR U+2F31
ENCODING 12081
SWIDTH 1000 0
DWIDTH 16 0
BBX 12 15 1 -1
BITMAP
0400
0400
0400
0400
FFF0
8410
8410
8410
8410
8410
8410
8410
84E0
0400
0400
ENDCHAR
STARTCHAR U+2F32
ENCODING 12082
SWIDTH 1000 0
DWIDTH 16 0
BBX 15 14 0 -1
BITMAP
3FF8
0100
0100
0100
0100
FFFE
0100
0100
0100
0100
0100
0100
0100
0100
ENDCHAR
STARTCHAR U+2F33
ENCODING 12083
SWIDTH 1000 0
DWIDTH 16 0
BBX 13 15 1 -1
BITMAP
0200
0200
0400
0400
0840
5040
2080
1880
0500
0220
0420
0810
11F0
FE08
0008
ENDCHAR
STARTCHAR U+2F34
ENCODING 12084
SWIDTH 1000 0
DWIDTH 16 0
BBX 15 15 0 -1
BITMAP
0080
0080
3FFE
2000
2000
2000
2000
2000
2000
4000
4000
4000
4000
8000
8000
ENDCHAR
STARTCHAR U+2F35
ENCODING 12085
SWIDTH 1000 0
DWIDTH 16 0
BBX 15 14 0 -1
BITMAP
7C00
0400
0800
1000
2000
7C00
0400
4400
4800
2800
1000
2C00
43FE
8000
ENDCHAR
STARTCHAR U+2F36
ENCODING 12086
SWIDTH 1000 0
DWIDTH 16 0
BBX 15 14 0 -1
BITMAP
0820
0820
0820
0820
0820
0820
FFFE
0820
0820
0820
1020
1020
2020
C020
ENDCHAR
STARTCHAR U+2F37
ENCODING 12087
SWIDTH 1000 0
DWIDTH 16 0
BBX 15 15 0 -1
BITMAP
0240
0230
0208
0200
03FC
FE00
0100
0100
0100
0080
0080
0042
0042
0024
0018
ENDCHAR
STARTCHAR U+2F38
ENCODING 12088
SWIDTH 1000 0
DWIDTH 16 0
BBX 13 14 1 -1
BITMAP
FFF0
0010
0010
0010
7FF0
4000
8000
FFF8
8008
0008
0008
0010
0010
01E0
ENDCHAR
STARTCHAR U+2F39
ENCODING 12089
SWIDTH 1000 0
DWIDTH 16 0
BBX 13 13 1 0
BITMAP
FFF8
0008
0008
0008
0008
0008
7FF8
0008
0008
0008
0008
0008
FFF8
ENDCHAR
STARTCHAR U+2F3A
ENCODING 12090
SWIDTH 1000 0
DWIDTH 16 0
BBX 13 15 1 -1
BITMAP
0040
0080
0300
0C10
7020
0040
0180
0600
7808
0010
0020
00C0
0300
1C00
E000
ENDCHAR
STARTCHAR U+2F3B
ENCODING 12091
SWIDTH 1000 0
DWIDTH 16 0
BBX 8 15 3 -1
BITMAP
02
02
04
08
31
C2
04
18
E8
08
08
08
08
08
08
ENDCHAR
STARTCHAR U+2F3C
ENCODING 12092
SWIDTH 1000 0
DWIDTH 16 0
BBX 15 15 0 -1
BITMAP
0300
0080
0040
0040
0800
0800
0808
4804
4804
4802
8802
8810
0810
0810
07E0
ENDCHAR
STARTCHAR U+2F3D
ENCODING 12093
SWIDTH 1000 0
DWIDTH 16 0
BBX 14 15 0 -1
BITMAP
0440
0420
0420
0400
04FC
FF00
0400
0208
0230
0140
0180
0284
0C44
3024
C018
ENDCHAR
STARTCHAR U+2F3E
ENCODING 12094
SWIDTH 1000 0
DWIDTH 16 0
BBX 14 15 0 -1
BITMAP
003C
1FC0
1000
1000
1FFC
1004
1004
1004
1FFC
2004
2000
2000
4000
4000
8000
ENDCHAR
STARTCHAR U+2F3F
ENCODING 12095
SWIDTH 1000 0
DWIDTH 16 0
BBX 15 15 0 -1
BITMAP
00F0
3F00
0100
0100
0100
3FF8
0100
0100
0100
FFFE
0100
0100
0100
0100
0E00
ENDCHAR
STARTCHAR U+2F40
ENCODING 12096
SWIDTH 1000 0
DWIDTH 16 0
BBX 15 15 0 -1
BITMAP
0100
0100
0100
7FFC
0100
0100
0100
3FF8
0810
0420
0240
0180
0240
1C30
E00E
ENDCHAR
STARTCHAR U+2F41
ENCODING 12097
SWIDTH 1000 0
DWIDTH 16 0
BBX 15 15 0 -1
BITMAP
0100
0100
0100
01FC
0100
0100
0100
3FF8
0810
0420
0240
0180
0240
1C30
E00E
ENDCHAR
STARTCHAR U+2F42
ENCODING 12098
SWIDTH 1000 0
DWIDTH 16 0
BBX 15 15 0 -1
BITMAP
0100
0100
0100
FFFE
1010
1010
0820
0820
0440
0280
0100
0280
0C60
3018
C006
ENDCHAR
STARTCHAR U+2F43
ENCODING 12099
SWIDTH 1000 0
DWIDTH 16 0
BBX 15 15 0 -1
BITMAP
0040
1040
0C40
0240
0040
2040
1840
0440
007E
03C0
FC40
0040
0040
0040
0040
ENDCHAR
STARTCHAR U+2F44
ENCODING 12100
SWIDTH 1000 0
DWIDTH 16 0
BBX 14 15 0 -1
BITMAP
00F0
3F00
2000
2000
2000
2000
3FFC
2080
2080
2080
4080
4080
4080
8080
8080
ENDCHAR
STARTCHAR U+2F45
ENCODING 12101
SWIDTH 1000 0
DWIDTH 16 0
BBX 15 15 0 -1
BITMAP
0100
0100
0100
FFFE
0400
0400
0400
07F8
0408
0808
0808
0808
1008
2008
C0F0
ENDCHAR
STARTCHAR U+2F46
ENCODING 12102
SWIDTH 1000 0
DWIDTH 16 0
BBX 15 14 0 -1
BITMAP
7FFC
0100
0100
0100
0100
FFFE
0100
0280
0280
0480
0482
0882
3082
C07C
ENDCHAR
STARTCHAR U+2F47
ENCODING 12103
SWIDTH 1000 0
DWIDTH 16 0
BBX 10 14 3 -1
BITMAP
FFC0
8040
8040
8040
8040
8040
FFC0
8040
8040
8040
8040
8040
FFC0
8040
ENDCHAR
STARTCHAR U+2F48
ENCODING 12104
SWIDTH 1000 0
DWIDTH 16 0
BBX 13 12 1 0
BITMAP
FFF8
8008
8008
8008
8008
FFC8
8008
8008
8008
8008
FFF8
8008
ENDCHAR
STARTCHAR U+2F49
ENCODING 12105
SWIDTH 1000 0
DWIDTH 16 0
BBX 12 14 1 -1
BITMAP
1FF0
1010
1010
1010
1FF0
1010
1010
1FF0
1010
2010
2010
4010
4010
81E0
ENDCHAR
STARTCHAR U+2F4A
ENCODING 12106
SWIDTH 1000 0
DWIDTH 16 0
BBX 15 15 0 -1
BITMAP
0100
0100
0100
0100
FFFE
0380
0580
0540
0940
1120
2110
4108
8106
0100
0100
ENDCHAR
STARTCHAR U+2F4B
ENCODING 12107
SWIDTH 1000 0
DWIDTH 16 0
BBX 15 15 0 -1
BITMAP
0800
0800
0800
0FFC
0804
1108
1110
2100
4100
0280
0280
0440
0820
3010
C00E
ENDCHAR
STARTCHAR U+2F4C
ENCODING 12108
SWIDTH 1000 0
DWIDTH 16 0
BBX 15 14 0 0
BITMAP
0100
0100
0100
0100
1100
1100
1100
11FC
1100
1100
1100
1100
1100
FFFE
ENDCHAR
STARTCHAR U+2F4D
ENCODING 12109
SWIDTH 1000 0
DWIDTH 16 0
BBX 15 14 0 -1
BITMAP
FFFE
0200
0200
03F0
0410
0810
0C20
1220
6140
0080
0100
0200
1C00
E000
ENDCHAR
STARTCHAR U+2F4E
ENCODING 12110
SWIDTH 1000 0
DWIDTH 16 0
BBX 15 14 0 -1
BITMAP
07E0
0420
0420
0422
0822
701C
0000
3FF8
0810
0420
0240
0180
0E60
F01E
ENDCHAR
STARTCHAR U+2F4F
ENCODING 12111
SWIDTH 1000 0
DWIDTH 16 0
BBX 15 14 0 -1
BITMAP
1FF8
1108
1108
1108
1108
FFFE
2210
2210
2210
4210
7FFC
4010
0010
00E0
ENDCHAR
STARTCHAR U+2F50
ENCODING 12112
SWIDTH 1000 0
DWIDTH 16 0
BBX 15 15 0 -1
BITMAP
2080
2080
2080
2080
2084
3E88
20B0
20C0
2080
2080
2082
2082
2E82
F082
007C
ENDCHAR
STARTCHAR U+2F51
ENCODING 12113
SWIDTH 1000 0
DWIDTH 16 0
BBX 15 15 0 -1
BITMAP
00F0
0700
7A00
0200
0278
0F80
7200
0200
027C
0F80
F200
0202
0202
0202
01FC
ENDCHAR
STARTCHAR U+2F52
ENCODING 12114
SWIDTH 1000 0
DWIDTH 16 0
BBX 15 15 0 -1
BITMAP
00F8
3F00
2100
2100
2100
2100
3FFC
2080
2080
2040
2040
2322
3C12
E00A
0004
ENDCHAR
STARTCHAR U+2F53
ENCODING 12115
SWIDTH 1000 0
DWIDTH 16 0
BBX 15 15 0 -1
BITMAP
1000
1000
1FFC
2000
2FF8
4000
8000
3FF0
0010
0010
0010
0012
0012
000A
0006
ENDCHAR
STARTCHAR U+2F54
ENCODING 12116
SWIDTH 1000 0
DWIDTH 16 0
BBX 15 15 0 -1
BITMAP
0100
0100
0100
0100
0108
F910
0920
09C0
1140
1120
2110
4108
8106
0100
0E00
ENDCHAR
STARTCHAR U+2F55
ENCODING 12117
SWIDTH 1000 0
DWIDTH 16 0
BBX 15 15 0 -1
BITMAP
0100
0100
0100
4104
2104
2108
1108
1110
0280
0240
0440
0820
1010
2008
C006
ENDCHAR
STARTCHAR U+2F56
ENCODING 12118
SWIDTH 1000 0
DWIDTH 16 0
BBX 15 15 0 -1
BITMAP
01F8
3E20
2220
2220
2220
2220
2210
2210
2210
2210
4208
4208
4208
8204
8202
ENDCHAR
STARTCHAR U+2F57
ENCODING 12119
SWIDTH 1000 0
DWIDTH 16 0
BBX 15 14 0 -1
BITMAP
0440
0820
1010
2008
C004
0820
0440
0440
0280
0100
0280
0C40
3030
C00E
ENDCHAR
STARTCHAR U+2F58
ENCODING 12120
SWIDTH 1000 0
DWIDTH 16 0
BBX 15 15 0 -1
BITMAP
0010
3820
0640
0180
0660
1818
E004
0820
0440
0280
0100
0280
0C40
3030
C00E
ENDCHAR
STARTCHAR U+2F59
ENCODING 12121
SWIDTH 1000 0
DWIDTH 16 0
BBX 10 15 2 -1
BITMAP
0040
2040
2040
2040
2040
3FC0
0040
0040
FFC0
1040
1040
2040
2040
4040
8040
ENDCHAR
STARTCHAR U+2F5A
ENCODING 12122
SWIDTH 1000 0
DWIDTH 16 0
BBX 14 15 1 -1
BITMAP
2080
2080
2080
2080
3FFC
2000
2000
2000
3FE0
2020
4020
4020
4020
8020
8020
ENDCHAR
STARTCHAR U+2F5B
ENCODING 12123
SWIDTH 1000 0
DWIDTH 16 0
BBX 15 14 0 -1
BITMAP
7FF8
0040
1040
2040
2040
4040
7FFE
0140
0240
0440
0840
3040
C040
0380
ENDCHAR
STARTCHAR U+2F5C
ENCODING 12124
SWIDTH 1000 0
DWIDTH 16 0
BBX 15 15 0 -1
BITMAP
0100
1100
1100
1100
3FF8
2100
4100
0100
FFFE
0100
0100
0100
0100
0100
0100
ENDCHAR
STARTCHAR U+2F5D
ENCODING 12125
SWIDTH 1000 0
DWIDTH 16 0
BBX 15 15 0 -1
BITMAP
0100
0120
0110
0108
0100
FFFE
0100
0100
0280
0240
0440
0820
1010
2008
C006
ENDCHAR
STARTCHAR U+2F5E
ENCODING 12126
SWIDTH 1000 0
DWIDTH 16 0
BBX 15 15 0 -1
BITMAP
0100
0100
0100
FFFE
0200
0200
3420
0840
0480
0310
0210
0408
08F8
FF04
0004
ENDCHAR
STARTCHAR U+2F5F
ENCODING 12127
SWIDTH 1000 0
DWIDTH 16 0
BBX 15 13 0 0
BITMAP
7FFC
0100
0100
0100
0100
0100
3FF8
0100
0120
0110
0108
0100
FFFE
ENDCHAR
STARTCHAR U+2F60
ENCODING 12128
SWIDTH 1000 0
DWIDTH 16 0
BBX 15 15 0 -1
BITMAP
00F8
3F20
2220
2220
2220
2210
2210
2210
2210
2248
2248
4224
4264
8392
8E12
ENDCHAR
STARTCHAR U+2F61
ENCODING 12129
SWIDTH 1000 0
DWIDTH 16 0
BBX 15 13 0 -1
BITMAP
FFFC
0800
0800
0FE0
0820
0820
0A20
0920
1140
1042
1042
11C2
FE3C
ENDCHAR
STARTCHAR U+2F62
ENCODING 12130
SWIDTH 1000 0
DWIDTH 16 0
BBX 15 15 0 -1
BITMAP
1010
1010
1010
1010
FFFE
1010
1010
1010
1FF0
1010
1010
1010
1010
1FF0
1010
ENDCHAR
STARTCHAR U+2F63
ENCODING 12131
SWIDTH 1000 0
DWIDTH 16 0
BBX 15 14 0 0
BITMAP
0100
1100
1100
1100
1FFC
2100
2100
4100
9FF8
0100
0100
0100
0100
FFFE
ENDCHAR
STARTCHAR U+2F64
ENCODING 12132
SWIDTH 1000 0
DWIDTH 16 0
BBX 13 14 1 -1
BITMAP
7FF8
4208
4208
4208
7FF8
4208
4208
7FF8
4208
4208
4208
4208
8208
8070
ENDCHAR
STARTCHAR U+2F65
ENCODING 12133
SWIDTH 1000 0
DWIDTH 16 0
BBX 13 14 1 -1
BITMAP
FFF8
8208
8208
8208
8208
8208
FFF8
8208
8208
8208
8208
8208
FFF8
8008
ENDCHAR
STARTCHAR U+2F66
ENCODING 12134
SWIDTH 1000 0
DWIDTH 16 0
BBX 15 14 0 -1
BITMAP
7FFC
0104
0104
0104
1100
1100
11F8
1100
1100
1100
2900
2700
41FE
8000
ENDCHAR
STARTCHAR U+2F67
ENCODING 12135
SWIDTH 1000 0
DWIDTH 16 0
BBX 14 15 0 -1
BITMAP
0100
0100
3FFC
2000
2000
A000
6000
2000
6000
A000
2000
4000
4000
8000
8000
ENDCHAR
STARTCHAR U+2F68
ENCODING 12136
SWIDTH 1000 0
DWIDTH 16 0
BBX 15 9 0 2
BITMAP
0010
7F20
0144
2288
1490
0860
1020
2018
C006
ENDCHAR
STARTCHAR U+2F69
ENCODING 12137
SWIDTH 1000 0
DWIDTH 16 0
BBX 11 15 2 -1
BITMAP
0400
0400
0800
FFE0
8020
8020
8020
8020
FFE0
8020
8020
8020
8020
FFE0
8020
ENDCHAR
STARTCHAR U+2F6A
ENCODING 12138
SWIDTH 1000 0
DWIDTH 16 0
BBX 15 15 0 -1
BITMAP
0080
0080
1FFC
1084
1084
1080
1FF8
1208
1210
1110
2120
20C0
40A0
4118
8E06
ENDCHAR
STARTCHAR U+2F6B
ENCODING 12139
SWIDTH 1000 0
DWIDTH 16 0
BBX 15 12 0 0
BITMAP
1FF8
1248
1248
1248
1248
1248
1248
1248
1248
1248
1248
FFFE
ENDCHAR
STARTCHAR U+2F6C
ENCODING 12140
SWIDTH 1000 0
DWIDTH 16 0
BBX 9 14 3 -1
BITMAP
FF80
8080
8080
8080
FF80
8080
8080
FF80
8080
8080
8080
8080
FF80
8080
ENDCHAR
STARTCHAR U+2F6D
ENCODING 12141
SWIDTH 1000 0
DWIDTH 16 0
BBX 15 14 0 -1
BITMAP
3FE0
0020
0C40
0280
0100
FFFE
0304
0508
0910
1100
2100
C100
0100
0E00
ENDCHAR
STARTCHAR U+2F6E
ENCODING 12142
SWIDTH 1000 0
DWIDTH 16 0
BBX 15 15 0 -1
BITMAP
0800
0800
0800
1FF8
1100
2100
4100
0100
FFFE
0100
0280
0440
0820
3018
C006
ENDCHAR
STARTCHAR U+2F6F
ENCODING 12143
SWIDTH 1000 0
DWIDTH 16 0
BBX 15 13 0 -1
BITMAP
7FFE
0200
0400
0400
0800
0FF8
1808
2808
4808
8808
0808
0FF8
0808
ENDCHAR
STARTCHAR U+2F70
ENCODING 12144
SWIDTH 1000 0
DWIDTH 16 0
BBX 15 13 0 -1
BITMAP
1FF0
0000
0000
0000
FFFE
0100
0100
0910
1108
2104
4102
0100
0E00
ENDCHAR
STARTCHAR U+2F71
ENCODING 12145
SWIDTH 1000 0
DWIDTH 16 0
BBX 13 15 1 -1
BITMAP
0200
0200
0200
0200
FFF8
8408
8408
8408
8888
8848
BFA8
8028
8008
8008
80F0
ENDCHAR
STARTCHAR U+2F72
ENCODING 12146
SWIDTH 1000 0
DWIDTH 16 0
BBX 15 15 0 -1
BITMAP
0030
01C0
3F00
0100
0100
0100
FFFE
0380
0540
0920
1110
2108
C106
0100
0100
ENDCHAR
STARTCHAR U+2F73
ENCODING 12147
SWIDTH 1000 0
DWIDTH 16 0
BBX 15 15 0 -1
BITMAP
0100
0100
7FFC
4004
4004
4004
0440
0440
0440
0820
0820
1010
2008
4004
8002
ENDCHAR
STARTCHAR U+2F74
ENCODING 12148
SWIDTH 1000 0
DWIDTH 16 0
BBX 15 14 0 0
BITMAP
0100
0100
0100
7FFC
0000
0010
1010
1010
0820
0820
0440
0440
0080
FFFE
ENDCHAR
STARTCHAR U+2F75
ENCODING 12149
SWIDTH 1000 0
DWIDTH 16 0
BBX 15 15 0 -1
BITMAP
0820
0820
1040
1040
3F7E
2488
4488
4508
8508
0408
0408
0408
0408
0408
0470
ENDCHAR
STARTCHAR U+2F76
ENCODING 12150
SWIDTH 1000 0
DWIDTH 16 0
BBX 15 15 0 -1
BITMAP
0100
0100
2110
1110
0920
0940
0100
FFFE
0380
0540
0920
1110
2108
C106
0100
ENDCHAR
STARTCHAR U+2F77
ENCODING 12151
SWIDTH 1000 0
DWIDTH 16 0
BBX 15 15 0 -1
BITMAP
0100
0100
0200
2420
1840
0480
0310
0408
7FF8
0104
0520
0910
3108
C106
0100
ENDCHAR
STARTCHAR U+2F78
ENCODING 12152
SWIDTH 1000 0
DWIDTH 16 0
BBX 15 15 0 -1
BITMAP
0800
0800
1FF8
1100
6100
0100
0100
FFFE
0100
2108
2108
2108
2108
3FF8
2008
ENDCHAR
STARTCHAR U+2F79
ENCODING 12153
SWIDTH 1000 0
DWIDTH 16 0
BBX 13 14 1 -1
BITMAP
FFF8
8848
8848
8A48
A948
9888
88C8
96A8
9328
A108
A208
8208
8408
8070
ENDCHAR
STARTCHAR U+2F7A
ENCODING 12154
SWIDTH 1000 0
DWIDTH 16 0
BBX 15 15 0 -1
BITMAP
1010
0820
0440
7FFC
0100
0100
3FF8
0100
0100
0100
FFFE
0100
0100
0100
0100
ENDCHAR
STARTCHAR U+2F7B
ENCODING 12155
SWIDTH 1000 0
DWIDTH 16 0
BBX 13 14 1 -1
BITMAP
FDF8
0408
0408
8508
4488
2448
0408
1428
2448
4488
8508
0408
0408
3870
ENDCHAR
STARTCHAR U+2F7C
ENCODING 12156
SWIDTH 1000 0
DWIDTH 16 0
BBX 15 15 0 -1
BITMAP
0100
0100
1FF4
0108
0110
0120
7FFE
0080
0300
1C18
E4E0
0700
0402
0402
03FC
ENDCHAR
STARTCHAR U+2F7D
ENCODING 12157
SWIDTH 1000 0
DWIDTH 16 0
BBX 15 14 0 -1
BITMAP
FFFE
0100
0100
0200
3FF8
2488
2488
2488
2488
2488
2488
2488
2488
2030
ENDCHAR
STARTCHAR U+2F7E
ENCODING 12158
SWIDTH 1000 0
DWIDTH 16 0
BBX 15 15 0 -1
BITMAP
0100
01FC
7F00
0100
0100
3FF8
0100
0100
FFFE
0340
0520
0910
3108
C106
0100
ENDCHAR
STARTCHAR U+2F7F
ENCODING 12159
SWIDTH 1000 0
DWIDTH 16 0
BBX 15 14 0 -1
BITMAP
FFFE
0820
0820
0FE0
0820
0820
0FE0
0820
083E
0BE0
FC20
0020
0020
0020
ENDCHAR
STARTCHAR U+2F80
ENCODING 12160
SWIDTH 1000 0
DWIDTH 16 0
BBX 15 15 0 -1
BITMAP
0100
3FF8
0108
0108
FFFE
0108
0108
3FF8
0100
7FFC
0100
0100
FFFE
0100
0100
ENDCHAR
STARTCHAR U+2F81
ENCODING 12161
SWIDTH 1000 0
DWIDTH 16 0
BBX 13 15 1 -1
BITMAP
0200
0200
0200
FFF8
8208
8508
88C8
B228
8208
8508
88C8
B028
8008
8008
8070
ENDCHAR
STARTCHAR U+2F82
ENCODING 12162
SWIDTH 1000 0
DWIDTH 16 0
BBX 14 14 0 -1
BITMAP
FFF8
8200
8200
8200
FFF0
8010
8010
8010
FFF0
8200
8200
8200
FFFC
8000
ENDCHAR
STARTCHAR U+2F83
ENCODING 12163
SWIDTH 1000 0
DWIDTH 16 0
BBX 11 15 2 -1
BITMAP
0400
0800
FFE0
8020
8020
8020
FFE0
8020
8020
FFE0
8020
8020
8020
FFE0
8020
ENDCHAR
STARTCHAR U+2F84
ENCODING 12164
SWIDTH 1000 0
DWIDTH 16 0
BBX 15 13 0 -1
BITMAP
7FFC
0400
0820
0810
10F0
7F08
0100
0100
3FF8
0100
0100
0100
FFFE
ENDCHAR
STARTCHAR U+2F85
ENCODING 12165
SWIDTH 1000 0
DWIDTH 16 0
BBX 12 15 2 -1
BITMAP
0400
1800
E1F0
8010
8010
8010
8010
F9F0
8010
8010
8010
8010
FFF0
8010
8010
ENDCHAR
STARTCHAR U+2F86
ENCODING 12166
SWIDTH 1000 0
DWIDTH 16 0
BBX 15 15 0 -1
BITMAP
01F0
3F00
0100
0100
0100
FFFE
0100
0100
0100
3FF8
2008
2008
2008
3FF8
2008
ENDCHAR
STARTCHAR U+2F87
ENCODING 12167
SWIDTH 1000 0
DWIDTH 16 0
BBX 15 15 0 -1
BITMAP
1010
1010
1010
1EFC
2210
2290
6290
5490
8C90
04FE
0810
1010
2010
4010
8010
ENDCHAR
STARTCHAR U+2F88
ENCODING 12168
SWIDTH 1000 0
DWIDTH 16 0
BBX 15 15 0 -1
BITMAP
0100
0200
1FF0
1010
1210
1110
1090
1010
FFFE
1110
1110
1110
2110
2010
40E0
ENDCHAR
STARTCHAR U+2F89
ENCODING 12169
SWIDTH 1000 0
DWIDTH 16 0
BBX 15 14 0 -1
BITMAP
3FF0
2010
2010
3FF0
2010
2010
3FF0
2208
2110
2120
20C0
2E20
F018
0006
ENDCHAR
STARTCHAR U+2F8A
ENCODING 12170
SWIDTH 1000 0
DWIDTH 16 0
BBX 15 15 0 -1
BITMAP
0400
0400
0FE0
1040
2080
FFF8
2108
2108
2108
3FF8
2000
2002
2002
2002
1FFC
ENDCHAR
STARTCHAR U+2F8B
ENCODING 12171
SWIDTH 1000 0
DWIDTH 16 0
BBX 14 15 0 -1
BITMAP
1020
1020
52A4
52A4
52A4
52A4
52A4
52A4
52A4
7EFC
1020
1020
2020
2020
C020
ENDCHAR
STARTCHAR U+2F8C
ENCODING 12172
SWIDTH 1000 0
DWIDTH 16 0
BBX 15 15 0 -1
BITMAP
0100
01F8
0100
0100
3FFE
2002
2102
2100
2100
21FC
3F00
2102
4102
4102
80FC
ENDCHAR
STARTCHAR U+2F8D
ENCODING 12173
SWIDTH 1000 0
DWIDTH 16 0
BBX 14 15 0 -1
BITMAP
0200
0200
0200
7FF0
4210
4210
4210
4210
7FF0
0200
0210
0208
03F8
FC04
0004
ENDCHAR
STARTCHAR U+2F8E
ENCODING 12174
SWIDTH 1000 0
DWIDTH 16 0
BBX 15 14 0 0
BITMAP
0200
0200
0400
3FF8
2488
2488
2488
2488
2488
2488
2488
2488
2488
FFFE
ENDCHAR
STARTCHAR U+2F8F
ENCODING 12175
SWIDTH 1000 0
DWIDTH 16 0
BBX 15 15 0 -1
BITMAP
0800
11FC
1000
2000
C400
0BFE
1010
3010
D010
1010
1010
1010
1010
1010
10E0
ENDCHAR
STARTCHAR U+2F90
ENCODING 12176
SWIDTH 1000 0
DWIDTH 16 0
BBX 15 15 0 -1
BITMAP
0100
0100
0100
7FFE
0100
0280
0484
0848
3850
C820
0810
0810
0988
0E04
7002
ENDCHAR
STARTCHAR U+2F91
ENCODING 12177
SWIDTH 1000 0
DWIDTH 16 0
BBX 15 14 0 -1
BITMAP
FFFE
0440
0440
0440
7FFC
4444
4444
4444
4444
47C4
4004
4004
4004
4004
ENDCHAR
STARTCHAR U+2F92
ENCODING 12178
SWIDTH 1000 0
DWIDTH 16 0
BBX 15 15 0 -1
BITMAP
1FF0
1010
1010
1FF0
1010
1010
1FF0
1010
1010
1010
1FF0
0442
0442
1842
E03C
ENDCHAR
STARTCHAR U+2F93
ENCODING 12179
SWIDTH 1000 0
DWIDTH 16 0
BBX 13 15 1 -1
BITMAP
0800
0FE0
1040
2080
7FF8
A108
2108
3FF8
2108
2108
3FF8
2008
4008
4008
8070
ENDCHAR
STARTCHAR U+2F94
ENCODING 12180
SWIDTH 1000 0
DWIDTH 16 0
BBX 15 14 0 -1
BITMAP
3FF8
0000
FFFE
0000
3FF8
0000
3FF8
0000
3FF8
2008
2008
2008
3FF8
2008
ENDCHAR
STARTCHAR U+2F95
ENCODING 12181
SWIDTH 1000 0
DWIDTH 16 0
BBX 15 15 0 -1
BITMAP
0440
0820
1010
610C
0280
0440
0820
3018
C006
1FF0
1010
1010
1010
1FF0
1010
ENDCHAR
STARTCHAR U+2F96
ENCODING 12182
SWIDTH 1000 0
DWIDTH 16 0
BBX 15 13 0 0
BITMAP
7FFC
0000
0000
1FF0
1010
1010
1010
1FF0
0820
0820
0440
0440
FFFE
ENDCHAR
STARTCHAR U+2F97
ENCODING 12183
SWIDTH 1000 0
DWIDTH 16 0
BBX 14 14 0 -1
BITMAP
FFFC
0240
0640
1924
61A8
02B0
0450
18D0
E148
0248
0C44
3044
C080
0700
ENDCHAR
STARTCHAR U+2F98
ENCODING 12184
SWIDTH 1000 0
DWIDTH 16 0
BBX 11 15 2 -1
BITMAP
01C0
0E00
F400
2260
1180
0E00
1900
E280
0C80
7140
0240
0C40
F040
0080
0700
ENDCHAR
STARTCHAR U+2F99
ENCODING 12185
SWIDTH 1000 0
DWIDTH 16 0
BBX 14 14 0 -1
BITMAP
3FF0
2010
2010
3FF0
2010
2010
3FF0
2010
2010
2010
3FF0
0840
3030
C00C
ENDCHAR
STARTCHAR U+2F9A
ENCODING 12186
SWIDTH 1000 0
DWIDTH 16 0
BBX 15 15 0 -1
BITMAP
0100
0100
3FF8
0100
0100
0100
FFFE
0440
2448
2444
4444
4842
8842
1040
2380
ENDCHAR
STARTCHAR U+2F9B
ENCODING 12187
SWIDTH 1000 0
DWIDTH 16 0
BBX 15 15 0 -1
BITMAP
0100
0100
3FF8
0100
0100
0100
FFFE
0100
1100
1100
11F8
3100
2900
4700
81FE
ENDCHAR
STARTCHAR U+2F9C
ENCODING 12188
SWIDTH 1000 0
DWIDTH 16 0
BBX 15 14 0 -1
BITMAP
3FF8
2008
2008
2008
3FF8
0100
0100
2100
21FC
2100
3100
4900
4700
80FE
ENDCHAR
STARTCHAR U+2F9D
ENCODING 12189
SWIDTH 1000 0
DWIDTH 16 0
BBX 15 15 0 -1
BITMAP
0100
0200
1FF0
1010
1FF0
1010
1FF0
1010
1016
7FF8
0070
0190
0E10
F010
00E0
ENDCHAR
STARTCHAR U+2F9E
ENCODING 12190
SWIDTH 1000 0
DWIDTH 16 0
BBX 15 15 0 -1
BITMAP
0100
0100
7FFC
0100
3FF8
2108
3FF8
2108
2108
3FF8
0100
FFFE
0100
0100
0100
ENDCHAR
STARTCHAR U+2F9F
ENCODING 12191
SWIDTH 1000 0
DWIDTH 16 0
BBX 15 15 0 -1
BITMAP
0100
0100
7FFC
0820
0820
0440
0440
FFFE
0100
0100
3FFC
0100
0100
0100
0100
ENDCHAR
STARTCHAR U+2FA0
ENCODING 12192
SWIDTH 1000 0
DWIDTH 16 0
BBX 15 14 0 -1
BITMAP
3FFC
2000
2000
2FF8
2000
2000
3FFE
2480
2444
4458
4420
4410
8788
9C06
ENDCHAR
STARTCHAR U+2FA1
ENCODING 12193
SWIDTH 1000 0
DWIDTH 16 0
BBX 15 15 0 -1
BITMAP
0030
01C0
3E18
00E0
3F0C
0070
0380
7C00
0100
2100
21FC
3100
4900
4700
80FE
ENDCHAR
STARTCHAR U+2FA2
ENCODING 12194
SWIDTH 1000 0
DWIDTH 16 0
BBX 13 14 1 -1
BITMAP
7FC0
4040
4040
7FC0
0000
FFE0
8420
8420
8420
FFE0
8000
8008
8008
7FF0
ENDCHAR
STARTCHAR U+2FA3
ENCODING 12195
SWIDTH 1000 0
DWIDTH 16 0
BBX 14 14 0 -1
BITMAP
FFFC
0480
0480
7FF8
4488
4488
4888
7078
4008
7FF8
4008
4008
7FF8
4008
ENDCHAR
STARTCHAR U+2FA4
ENCODING 12196
SWIDTH 1000 0
DWIDTH 16 0
BBX 15 15 0 -1
BITMAP
0038
01C0
7F00
0108
2108
1110
0920
0100
FFFE
0380
0540
0920
3118
C106
0100
ENDCHAR
STARTCHAR U+2FA5
ENCODING 12197
SWIDTH 1000 0
DWIDTH 16 0
BBX 15 14 0 -1
BITMAP
3FF8
2108
2108
3FF8
2108
2108
2108
3FF8
0100
0100
3FF8
0100
0100
FFFE
ENDCHAR
STARTCHAR U+2FA6
ENCODING 12198
SWIDTH 1000 0
DWIDTH 16 0
BBX 15 15 0 -1
BITMAP
0100
0280
0440
0820
1010
2FE8
C106
0100
0100
3FF8
0100
1110
1110
0920
7FFC
ENDCHAR
STARTCHAR U+2FA7
ENCODING 12199
SWIDTH 1000 0
DWIDTH 16 0
BBX 15 14 0 -1
BITMAP
1FFC
1000
1FF8
1000
1FF8
1000
1000
FFFE
1100
108C
10B0
1060
1E18
E006
ENDCHAR
STARTCHAR U+2FA8
ENCODING 12200
SWIDTH 1000 0
DWIDTH 16 0
BBX 13 14 1 -1
BITMAP
FDF8
8508
8508
FDF8
8508
8508
FDF8
8008
8008
8008
8008
8008
8008
8070
ENDCHAR
STARTCHAR U+2FA9
ENCODING 12201
SWIDTH 1000 0
DWIDTH 16 0
BBX 15 15 0 -1
BITMAP
0200
1FF0
1010
1010
1FF0
1000
1FF8
1008
1008
1FF8
0100
FFFE
0100
0100
0100
ENDCHAR
STARTCHAR U+2FAA
ENCODING 12202
SWIDTH 1000 0
DWIDTH 16 0
BBX 14 15 1 -1
BITMAP
0200
0200
3FF0
0210
FFFC
0210
0210
7FF0
0200
2310
16A0
0A40
3230
C20C
0C00
ENDCHAR
STARTCHAR U+2FAB
ENCODING 12203
SWIDTH 1000 0
DWIDTH 16 0
BBX 15 15 0 -1
BITMAP
0840
0840
1080
1FFE
3080
5080
9FF8
1080
1080
1FF8
1080
1080
1080
1FFE
1000
ENDCHAR
STARTCHAR U+2FAC
ENCODING 12204
SWIDTH 1000 0
DWIDTH 16 0
BBX 15 14 0 -1
BITMAP
FFFE
0100
0100
0100
7FFC
4104
5964
4514
4104
4104
5964
4514
4104
4118
ENDCHAR
STARTCHAR U+2FAD
ENCODING 12205
SWIDTH 1000 0
DWIDTH 16 0
BBX 15 15 0 -1
BITMAP
0100
7FFC
0100
3FF8
0100
FFFE
0000
1FF0
1110
1110
1FF0
1010
1010
1010
10E0
ENDCHAR
STARTCHAR U+2FAE
ENCODING 12206
SWIDTH 1000 0
DWIDTH 16 0
BBX 15 15 0 -1
BITMAP
0440
0440
0440
FC7E
0440
0440
7C7C
0440
0440
0440
FC7E
0440
0440
0440
0440
ENDCHAR
STARTCHAR U+2FAF
ENCODING 12207
SWIDTH 1000 0
DWIDTH 16 0
BBX 15 14 0 -1
BITMAP
FFFE
0100
0200
3FF8
2448
2448
27C8
2448
2448
27C8
2448
2448
3FF8
2008
ENDCHAR
STARTCHAR U+2FB0
ENCODING 12208
SWIDTH 1000 0
DWIDTH 16 0
BBX 15 15 0 -1
BITMAP
0420
0420
7FFE
0420
07E0
0100
1FF8
1108
1108
1FF8
0100
FFFE
0100
0100
0100
ENDCHAR
STARTCHAR U+2FB1
ENCODING 12209
SWIDTH 1000 0
DWIDTH 16 0
BBX 15 15 0 -1
BITMAP
0200
0200
3FF0
0410
FFFE
0000
3FF0
2010
3FF0
0100
FFF8
2100
7FFC
4100
0100
ENDCHAR
STARTCHAR U+2FB2
ENCODING 12210
SWIDTH 1000 0
DWIDTH 16 0
BBX 15 14 0 0
BITMAP
0480
0480
0480
7CFC
0480
0480
3CF8
0480
0480
7CFC
0480
0480
0480
FFFE
ENDCHAR
STARTCHAR U+2FB3
ENCODING 12211
SWIDTH 1000 0
DWIDTH 16 0
BBX 15 15 0 -1
BITMAP
0100
0100
7FFC
0820
0820
0440
FFFE
0000
1FF0
1010
1FF0
1010
1010
1FF0
1010
ENDCHAR
STARTCHAR U+2FB4
ENCODING 12212
SWIDTH 1000 0
DWIDTH 16 0
BBX 14 14 0 -1
BITMAP
FFFC
0200
0400
3FF0
2010
2010
3FF0
2010
3FF0
2010
2010
3FF0
1020
E01C
ENDCHAR
STARTCHAR U+2FB5
ENCODING 12213
SWIDTH 1000 0
DWIDTH 16 0
BBX 15 14 0 -1
BITMAP
3FF8
2008
21E8
2F08
2108
2FE8
2928
2928
2FE8
410A
412A
412A
9FEA
8014
ENDCHAR
STARTCHAR U+2FB6
ENCODING 12214
SWIDTH 1000 0
DWIDTH 16 0
BBX 15 14 0 -1
BITMAP
7FC0
0058
0A60
1258
F240
1222
1232
FFCE
1258
1260
2258
2222
4232
820E
ENDCHAR
STARTCHAR U+2FB7
ENCODING 12215
SWIDTH 1000 0
DWIDTH 16 0
BBX 15 15 0 -1
BITMAP
0100
0280
0440
0BA0
3018
DFE6
1020
1FE0
1020
1FE0
1108
1090
1060
1F18
7006
ENDCHAR
STARTCHAR U+2FB8
ENCODING 12216
SWIDTH 1000 0
DWIDTH 16 0
BBX 15 15 0 -1
BITMAP
0820
0440
0280
FFFE
0100
0200
3FF8
2008
3FF8
2008
3FF8
2008
2008
3FF8
2008
ENDCHAR
STARTCHAR U+2FB9
ENCODING 12217
SWIDTH 1000 0
DWIDTH 16 0
BBX 15 15 0 -1
BITMAP
0078
3F80
0100
0100
FFFE
0380
0D60
3118
DFF6
1010
1FF0
1010
1010
1FF0
1010
ENDCHAR
STARTCHAR U+2FBA
ENCODING 12218
SWIDTH 1000 0
DWIDTH 16 0
BBX 14 14 0 -1
BITMAP
3FFC
2100
3FF8
2100
3FF8
2100
2100
3FFC
0004
24A4
2494
4494
8004
0038
ENDCHAR
STARTCHAR U+2FBB
ENCODING 12219
SWIDTH 1000 0
DWIDTH 16 0
BBX 13 14 1 -1
BITMAP
3FE0
2020
27E0
2420
FFF8
8008
BFE8
2020
3FE0
2020
3FE0
2020
2020
23C0
ENDCHAR
STARTCHAR U+2FBC
ENCODING 12220
SWIDTH 1000 0
DWIDTH 16 0
BBX 15 15 0 -1
BITMAP
0100
0100
FFFE
0000
1FF0
1010
1FF0
0000
7FFC
4004
4FE4
4824
4FE4
4004
4038
ENDCHAR
STARTCHAR U+2FBD
ENCODING 12221
SWIDTH 1000 0
DWIDTH 16 0
BBX 15 15 0 -1
BITMAP
0004
3F08
2030
2040
3F00
2004
3F08
2030
2040
FF80
1202
1104
2108
2690
78E0
ENDCHAR
STARTCHAR U+2FBE
ENCODING 12222
SWIDTH 1000 0
DWIDTH 16 0
BBX 14 15 0 -1
BITMAP
BCF4
8844
8844
BCF4
8844
8844
BCF4
8004
8004
8004
8004
8004
8004
8004
8038
ENDCHAR
STARTCHAR U+2FBF
ENCODING 12223
SWIDTH 1000 0
DWIDTH 16 0
BBX 13 15 1 -1
BITMAP
0420
9248
8888
C528
A318
8CC8
B228
8108
FFF8
4000
40F0
7F00
4008
4008
3FF0
ENDCHAR
STARTCHAR U+2FC0
ENCODING 12224
SWIDTH 1000 0
DWIDTH 16 0
BBX 15 14 0 -1
BITMAP
FFFE
0000
1FF0
1010
1010
1FF0
0000
7FFC
4444
483C
77E4
4104
4104
4138
ENDCHAR
STARTCHAR U+2FC1
ENCODING 12225
SWIDTH 1000 0
DWIDTH 16 0
BBX 15 15 0 -1
BITMAP
0100
0200
3FF8
2108
2108
3FF8
2108
2108
3FF8
0520
0528
0948
11F6
2102
C0FC
ENDCHAR
STARTCHAR U+2FC2
ENCODING 12226
SWIDTH 1000 0
DWIDTH 16 0
BBX 15 15 0 -1
BITMAP
0400
07E0
0840
1080
7FF8
9108
1108
1FF8
1108
1108
1FF8
0000
2248
4244
8242
ENDCHAR
STARTCHAR U+2FC3
ENCODING 12227
SWIDTH 1000 0
DWIDTH 16 0
BBX 15 15 0 -1
BITMAP
0100
0200
3FF0
2010
3FF0
2010
3FF0
2000
3FFE
2000
3FFC
2004
4924
4924
8018
ENDCHAR
STARTCHAR U+2FC4
ENCODING 12228
SWIDTH 1000 0
DWIDTH 16 0
BBX 14 15 0 -1
BITMAP
0200
0200
03FC
0200
FFF8
8448
A288
9908
C628
A598
9848
A228
8108
FFF8
8008
ENDCHAR
STARTCHAR U+2FC5
ENCODING 12229
SWIDTH 1000 0
DWIDTH 16 0
BBX 15 15 0 -1
BITMAP
0080
0080
3FFE
2220
2220
3FFC
2224
2224
3FFC
2840
4F4C
4870
4842
8F42
B83C
ENDCHAR
STARTCHAR U+2FC6
ENCODING 12230
SWIDTH 1000 0
DWIDTH 16 0
BBX 15 15 0 -1
BITMAP
0100
0100
FFFE
1120
1120
2B58
4584
1970
E20E
07E0
0C20
3240
0180
0E60
7010
ENDCHAR
STARTCHAR U+2FC7
ENCODING 12231
SWIDTH 1000 0
DWIDTH 16 0
BBX 15 15 0 -1
BITMAP
0080
0080
3FFE
2000
2410
2410
3F7E
2410
5554
5554
5554
9554
A496
2490
0410
ENDCHAR
STARTCHAR U+2FC8
ENCODING 12232
SWIDTH 1000 0
DWIDTH 16 0
BBX 15 15 0 -1
BITMAP
0440
0440
7FFC
0440
07C0
0000
FFFE
0100
1FF0
1110
1FF0
1110
1FF0
0440
783C
ENDCHAR
STARTCHAR U+2FC9
ENCODING 12233
SWIDTH 1000 0
DWIDTH 16 0
BBX 15 15 0 -1
BITMAP
00F8
3F00
0100
FFFE
0340
1D38
E106
0280
FD7E
3130
0DC0
0100
1DE0
E11E
0E00
ENDCHAR
STARTCHAR U+2FCA
ENCODING 12234
SWIDTH 1000 0
DWIDTH 16 0
BBX 15 14 0 -1
BITMAP
3FF8
2108
2918
2768
2108
3FF8
0100
7FFC
0100
FFFE
0000
2488
4244
8242
ENDCHAR
STARTCHAR U+2FCB
ENCODING 12235
SWIDTH 1000 0
DWIDTH 16 0
BBX 15 15 0 -1
BITMAP
0280
2288
1290
0AA0
FFFE
1110
0920
3FF8
2548
2548
2548
2548
2948
2908
2130
ENDCHAR
STARTCHAR U+2FCC
ENCODING 12236
SWIDTH 1000 0
DWIDTH 16 0
BBX 15 14 0 -1
BITMAP
7FF0
4510
4510
7DF0
0500
FDF8
8508
FDF8
8508
8508
FDFA
8502
0502
03FC
ENDCHAR
STARTCHAR U+2FCD
ENCODING 12237
SWIDTH 1000 0
DWIDTH 16 0
BBX 14 14 0 -1
BITMAP
0FE0
4824
4FE4
4824
4FE4
4824
4FE4
4004
7C7C
0440
FC7C
2444
2444
C444
ENDCHAR
STARTCHAR U+2FCE
ENCODING 12238
SWIDTH 1000 0
DWIDTH 16 0
BBX 15 15 0 -1
BITMAP
0810
0810
FF10
08FE
7E10
0010
7EFC
4244
4244
7E28
2428
2410
1728
F844
0182
ENDCHAR
STARTCHAR U+2FCF
ENCODING 12239
SWIDTH 1000 0
DWIDTH 16 0
BBX 15 15 0 -1
BITMAP
0600
38F8
2008
3EF8
2008
3FF8
0000
2110
3190
2D70
3190
2D70
2112
39CA
C606
ENDCHAR
STARTCHAR U+2FD0
ENCODING 12240
SWIDTH 1000 0
DWIDTH 16 0
BBX 15 15 0 -1
BITMAP
0100
0200
1FF0
1010
1FF0
1010
3FF8
2108
3FF8
2108
3FF8
0000
FFFE
0820
7020
ENDCHAR
STARTCHAR U+2FD1
ENCODING 12241
SWIDTH 1000 0
DWIDTH 16 0
BBX 15 15 0 -1
BITMAP
0100
0100
FFFE
024C
7DB8
2528
4524
9D7A
1010
1FF0
1010
1FF0
2010
2010
4010
ENDCHAR
STARTCHAR U+2FD2
ENCODING 12242
SWIDTH 1000 0
DWIDTH 16 0
BBX 15 15 0 -1
BITMAP
0100
11F0
1100
1100
FFFE
0840
4C68
5298
7FF8
4848
4C48
52A8
5118
7FF8
4008
ENDCHAR
STARTCHAR U+2FD3
ENCODING 12243
SWIDTH 1000 0
DWIDTH 16 0
BBX 15 15 0 -1
BITMAP
1080
1080
FEFC
4480
28F8
FE08
00F8
7C80
44F8
7C80
44F8
7C80
44FA
4482
587C
ENDCHAR
STARTCHAR U+2FD4
ENCODING 12244
SWIDTH 1000 0
DWIDTH 16 0
BBX 15 15 0 -1
BITMAP
0800
1FC0
E080
3FF0
2510
3DF0
0500
75F8
1598
FF68
1568
FF9A
15FA
7502
03FC
ENDCHAR
STARTCHAR U+2FD5
ENCODING 12245
SWIDTH 1000 0
DWIDTH 16 0
BBX 15 15 0 -1
BITMAP
0100
0280
0440
1830
EFEE
0000
3BB8
2AA8
3BB8
0000
3FF8
2488
3FF8
2488
24B8
ENDCHAR
STARTCHAR U+3000
ENCODING 12288
SWIDTH 1000 0
DWIDTH 16 0
BBX 0 0 0 0
BITMAP
ENDCHAR
STARTCHAR U+3001
ENCODING 12289
SWIDTH 1000 0
DWIDTH 16 0
BBX 3 4 1 -1
BITMAP
80
C0
60
20
ENDCHAR
STARTCHAR U+3002
ENCODING 12290
SWIDTH 1000 0
DWIDTH 16 0
BBX 5 5 1 -1
BITMAP
70
88
88
88
70
ENDCHAR
STARTCHAR U+3003
ENCODING 12291
SWIDTH 1000 0
DWIDTH 16 0
BBX 8 8 4 2
BITMAP
08
09
11
12
22
44
88
10
ENDCHAR
STARTCHAR U+3004
ENCODING 12292
SWIDTH 1000 0
DWIDTH 16 0
BBX 15 15 0 -1
BITMAP
0700
1830
2028
4024
4124
81A2
8142
8D02
9302
9102
4C04
4204
2208
1C30
00C0
ENDCHAR
STARTCHAR U+3005
ENCODING 12293
SWIDTH 1000 0
DWIDTH 16 0
BBX 12 12 1 0
BITMAP
0400
0400
0FF0
0810
1020
2020
4040
8880
0500
0300
0080
0040
ENDCHAR
STARTCHAR U+3006
ENCODING 12294
SWIDTH 1000 0
DWIDTH 16 0
BBX 12 13 1 0
BITMAP
00F0
0010
0020
0040
1C80
2300
2280
4440
4800
5000
A000
C000
8000
ENDCHAR
STARTCHAR U+3007
ENCODING 12295
SWIDTH 1000 0
DWIDTH 16 0
BBX 14 13 1 0
BITMAP
0FC0
3030
4008
4008
8004
8004
8004
8004
8004
4008
4008
3030
0FC0
ENDCHAR
STARTCHAR U+3008
ENCODING 12296
SWIDTH 1000 0
DWIDTH 16 0
BBX 4 15 10 -1
BITMAP
10
10
20
20
40
40
80
80
80
40
40
20
20
10
10
ENDCHAR
STARTCHAR U+3009
ENCODING 12297
SWIDTH 1000 0
DWIDTH 16 0
BBX 4 15 1 -1
BITMAP
80
80
40
40
20
20
10
10
10
20
20
40
40
80
80
ENDCHAR
STARTCHAR U+300A
ENCODING 12298
SWIDTH 1000 0
DWIDTH 16 0
BBX 6 15 8 -1
BITMAP
14
14
28
28
50
50
A0
A0
A0
50
50
28
28
14
14
ENDCHAR
STARTCHAR U+300B
ENCODING 12299
SWIDTH 1000 0
DWIDTH 16 0
BBX 6 15 1 -1
BITMAP
A0
A0
50
50
28
28
14
14
14
28
28
50
50
A0
A0
ENDCHAR
STARTCHAR U+300C
ENCODING 12300
SWIDTH 1000 0
DWIDTH 16 0
BBX 4 14 10 0
BITMAP
F0
80
80
80
80
80
80
80
80
80
80
80
80
80
ENDCHAR
STARTCHAR U+300D
ENCODING 12301
SWIDTH 1000 0
DWIDTH 16 0
BBX 4 14 1 -1
BITMAP
10
10
10
10
10
10
10
10
10
10
10
10
10
F0
ENDCHAR
STARTCHAR U+300E
ENCODING 12302
SWIDTH 1000 0
DWIDTH 16 0
BBX 5 14 9 0
BITMAP
F8
88
B8
A0
A0
A0
A0
A0
A0
A0
A0
A0
A0
E0
ENDCHAR
STARTCHAR U+300F
ENCODING 12303
SWIDTH 1000 0
DWIDTH 16 0
BBX 5 14 1 -1
BITMAP
38
28
28
28
28
28
28
28
28
28
28
E8
88
F8
ENDCHAR
STARTCHAR U+3010
ENCODING 12304
SWIDTH 1000 0
DWIDTH 16 0
BBX 5 15 9 -1
BITMAP
F8
F0
F0
F0
E0
E0
E0
E0
E0
E0
E0
F0
F0
F0
F8
ENDCHAR
STARTCHAR U+3011
ENCODING 12305
SWIDTH 1000 0
DWIDTH 16 0
BBX 5 15 1 -1
BITMAP
F8
78
78
78
38
38
38
38
38
38
38
78
78
78
F8
ENDCHAR
STARTCHAR U+3012
ENCODING 12306
SWIDTH 1000 0
DWIDTH 16 0
BBX 11 13 2 0
BITMAP
FFE0
0000
0000
0000
0000
FFE0
0400
0400
0400
0400
0400
0400
0400
ENDCHAR
STARTCHAR U+3013
ENCODING 12307
SWIDTH 1000 0
DWIDTH 16 0
BBX 12 13 2 0
BITMAP
FFF0
FFF0
FFF0
FFF0
FFF0
0000
0000
0000
FFF0
FFF0
FFF0
FFF0
FFF0
ENDCHAR
STARTCHAR U+3014
ENCODING 12308
SWIDTH 1000 0
DWIDTH 16 0
BBX 4 15 10 -1
BITMAP
10
20
40
80
80
80
80
80
80
80
80
80
40
20
10
ENDCHAR
STARTCHAR U+3015
ENCODING 12309
SWIDTH 1000 0
DWIDTH 16 0
BBX 4 15 1 -1
BITMAP
80
40
20
10
10
10
10
10
10
10
10
10
20
40
80
ENDCHAR
STARTCHAR U+3016
ENCODING 12310
SWIDTH 1000 0
DWIDTH 16 0
BBX 5 15 9 -1
BITMAP
F8
90
90
90
A0
A0
A0
A0
A0
A0
A0
90
90
90
F8
ENDCHAR
STARTCHAR U+3017
ENCODING 12311
SWIDTH 1000 0
DWIDTH 16 0
BBX 5 15 1 -1
BITMAP
F8
48
48
48
28
28
28
28
28
28
28
48
48
48
F8
ENDCHAR
STARTCHAR U+301D
ENCODING 12317
SWIDTH 1000 0
DWIDTH 16 0
BBX 5 8 8 6
BITMAP
80
C0
60
90
C8
60
10
08
ENDCHAR
STARTCHAR U+301F
ENCODING 12319
SWIDTH 1000 0
DWIDTH 16 0
BBX 5 8 2 -1
BITMAP
80
40
30
98
48
30
18
08
ENDCHAR
STARTCHAR U+3020
ENCODING 12320
SWIDTH 1000 0
DWIDTH 16 0
BBX 15 13 0 0
BITMAP
3FF8
3FF8
0000
3FF8
3FF8
4104
8922
9552
8922
6C6C
2388
1830
07C0
ENDCHAR
STARTCHAR U+3021
ENCODING 12321
SWIDTH 1000 0
DWIDTH 16 0
BBX 1 15 7 -1
BITMAP
80
80
80
80
80
80
80
80
80
80
80
80
80
80
80
ENDCHAR
STARTCHAR U+3022
ENCODING 12322
SWIDTH 1000 0
DWIDTH 16 0
BBX 6 15 5 -1
BITMAP
04
84
84
84
84
84
84
84
84
84
84
84
84
84
04
ENDCHAR
STARTCHAR U+3023
ENCODING 12323
SWIDTH 1000 0
DWIDTH 16 0
BBX 11 15 2 -1
BITMAP
0020
8020
8420
8420
8420
8420
8420
8420
8420
8420
8420
8420
8420
8020
0020
ENDCHAR
STARTCHAR U+3024
ENCODING 12324
SWIDTH 1000 0
DWIDTH 16 0
BBX 13 14 1 0
BITMAP
0020
0020
0020
0040
3040
0C40
0280
0180
0140
0220
0410
0808
3000
C000
ENDCHAR
STARTCHAR U+3025
ENCODING 12325
SWIDTH 1000 0
DWIDTH 16 0
BBX 11 15 2 -1
BITMAP
1040
1040
2040
4080
F080
0900
0600
1980
2040
4020
4020
4020
4040
3180
0E00
ENDCHAR
STARTCHAR U+3026
ENCODING 12326
SWIDTH 1000 0
DWIDTH 16 0
BBX 15 14 0 0
BITMAP
0100
0100
0100
0100
0100
0100
0100
0100
0100
0100
0100
0100
0100
FFFE
ENDCHAR
STARTCHAR U+3027
ENCODING 12327
SWIDTH 1000 0
DWIDTH 16 0
BBX 15 14 0 0
BITMAP
0100
0100
0100
0100
0100
0100
0100
0100
0100
0100
FFFE
0000
0000
7FFC
ENDCHAR
STARTCHAR U+3028
ENCODING 12328
SWIDTH 1000 0
DWIDTH 16 0
BBX 15 15 0 -1
BITMAP
0100
0100
0100
0100
0100
0100
0100
0100
FFFE
0000
0000
7FFC
0000
0000
7FFC
ENDCHAR
STARTCHAR U+3029
ENCODING 12329
SWIDTH 1000 0
DWIDTH 16 0
BBX 15 15 0 -1
BITMAP
0100
0100
0100
3FF8
2008
2008
1010
1010
0820
0440
0280
0100
06C0
1830
E00E
ENDCHAR
STARTCHAR U+3036
ENCODING 12342
SWIDTH 1000 0
DWIDTH 16 0
BBX 15 15 0 -1
BITMAP
07C0
1830
2008
4004
5FF4
8002
8002
9FF2
8102
8102
4104
4104
2108
1830
07C0
ENDCHAR
STARTCHAR U+3038
ENCODING 12344
SWIDTH 1000 0
DWIDTH 16 0
BBX 15 15 0 -1
BITMAP
0100
0100
0100
0100
0100
0100
FFFE
0100
0100
0100
0100
0100
0100
0100
0100
ENDCHAR
STARTCHAR U+3039
ENCODING 12345
SWIDTH 1000 0
DWIDTH 16 0
BBX 15 15 0 -1
BITMAP
0820
0820
0820
0820
0820
0820
FFFE
0820
0820
0820
0820
0820
0820
0820
0820
ENDCHAR
STARTCHAR U+303A
ENCODING 12346
SWIDTH 1000 0
DWIDTH 16 0
BBX 15 15 0 -1
BITMAP
1010
1110
1110
1110
1110
1110
FFFE
1110
1110
1110
1110
1110
2110
2110
4010
ENDCHAR
STARTCHAR U+3041
ENCODING 12353
SWIDTH 1000 0
DWIDTH 16 0
BBX 12 12 1 -1
BITMAP
0800
0800
7FE0
0880
0FC0
38A0
4910
8A10
8C10
9820
6460
0180
ENDCHAR
STARTCHAR U+3042
ENCODING 12354
SWIDTH 1000 0
DWIDTH 16 0
BBX 14 15 0 -1
BITMAP
0400
0400
7FF8
0400
0410
07A0
1C70
2448
4484
8484
8504
8604
8C08
7210
00E0
ENDCHAR
STARTCHAR U+3043
ENCODING 12355
SWIDTH 1000 0
DWIDTH 16 0
BBX 11 9 2 0
BITMAP
8100
8080
8080
8040
8040
8020
8420
4820
3000
ENDCHAR
STARTCHAR U+3044
ENCODING 12356
SWIDTH 1000 0
DWIDTH 16 0
BBX 13 12 1 0
BITMAP
8040
8040
8020
8020
8010
8010
8010
8008
8208
4208
4400
3800
ENDCHAR
STARTCHAR U+3045
ENCODING 12357
SWIDTH 1000 0
DWIDTH 16 0
BBX 10 11 2 -1
BITMAP
3E00
0180
0000
3F00
C080
0040
0040
0040
0080
0300
3C00
ENDCHAR
STARTCHAR U+3046
ENCODING 12358
SWIDTH 1000 0
DWIDTH 16 0
BBX 12 13 1 0
BITMAP
3F00
00E0
0000
0000
1FC0
E020
0010
0010
0010
0020
0040
0180
7E00
ENDCHAR
STARTCHAR U+3047
ENCODING 12359
SWIDTH 1000 0
DWIDTH 16 0
BBX 11 10 2 0
BITMAP
3F80
0000
0000
7F80
0300
0400
1C00
2200
4200
81E0
ENDCHAR
STARTCHAR U+3048
ENCODING 12360
SWIDTH 1000 0
DWIDTH 16 0
BBX 13 13 1 0
BITMAP
1800
07C0
0000
0000
7FE0
00C0
0100
0200
0E00
1100
2100
4100
80F8
ENDCHAR
STARTCHAR U+3049
ENCODING 12361
SWIDTH 1000 0
DWIDTH 16 0
BBX 13 12 1 -1
BITMAP
0800
08C0
7E30
0808
0FC0
3820
4810
8810
8810
8820
7040
0380
ENDCHAR
STARTCHAR U+304A
ENCODING 12362
SWIDTH 1000 0
DWIDTH 16 0
BBX 15 15 0 -1
BITMAP
0400
0400
0430
7F8C
0402
0400
07E0
1C18
2404
4404
8404
8404
4408
3810
01E0
ENDCHAR
STARTCHAR U+304B
ENCODING 12363
SWIDTH 1000 0
DWIDTH 16 0
BBX 14 14 0 0
BITMAP
0800
0800
0840
0820
FF10
1090
1088
2088
2084
2080
4080
4100
8100
9E00
ENDCHAR
STARTCHAR U+304C
ENCODING 12364
SWIDTH 1000 0
DWIDTH 16 0
BBX 14 14 0 0
BITMAP
0810
0828
0814
0848
FF20
1090
1088
2088
2084
2080
4080
4100
8100
9E00
ENDCHAR
STARTCHAR U+304D
ENCODING 12365
SWIDTH 1000 0
DWIDTH 16 0
BBX 12 14 1 0
BITMAP
0800
0800
04E0
FF00
0200
0170
FF80
0080
0040
3FE0
4030
4000
4000
3FE0
ENDCHAR
STARTCHAR U+304E
ENCODING 12366
SWIDTH 1000 0
DWIDTH 16 0
BBX 14 14 0 0
BITMAP
0810
0848
0424
FFD0
0200
0170
FF80
0080
0040
3FE0
4030
4000
4000
3FE0
ENDCHAR
STARTCHAR U+304F
ENCODING 12367
SWIDTH 1000 0
DWIDTH 16 0
BBX 10 14 2 -1
BITMAP
0080
0100
0200
0C00
1000
6000
8000
8000
4000
3000
0C00
0200
0180
0040
ENDCHAR
STARTCHAR U+3050
ENCODING 12368
SWIDTH 1000 0
DWIDTH 16 0
BBX 13 14 1 -1
BITMAP
0080
0100
0200
0C20
1090
6048
8020
8000
4000
3000
0C00
0200
0180
0040
ENDCHAR
STARTCHAR U+3051
ENCODING 12369
SWIDTH 1000 0
DWIDTH 16 0
BBX 13 14 1 -1
BITMAP
4040
4040
8040
9FF8
8040
8040
8040
8040
8040
8040
8080
8080
8100
8600
ENDCHAR
STARTCHAR U+3052
ENCODING 12370
SWIDTH 1000 0
DWIDTH 16 0
BBX 14 15 0 -1
BITMAP
0028
4054
4054
8040
9FF8
8040
8040
8040
8040
8040
8040
8080
8080
8100
8600
ENDCHAR
STARTCHAR U+3053
ENCODING 12371
SWIDTH 1000 0
DWIDTH 16 0
BBX 12 12 1 0
BITMAP
7FE0
0000
0000
0000
0000
0000
0000
4000
8000
8000
6010
1FE0
ENDCHAR
STARTCHAR U+3054
ENCODING 12372
SWIDTH 1000 0
DWIDTH 16 0
BBX 14 14 0 0
BITMAP
0010
0048
7FE4
0010
0000
0000
0000
0000
0000
4000
8000
8000
6010
1FE0
ENDCHAR
STARTCHAR U+3055
ENCODING 12373
SWIDTH 1000 0
DWIDTH 16 0
BBX 13 14 1 0
BITMAP
0400
0400
0200
0138
FFC0
0080
0040
0020
1FD0
2038
4000
4000
2010
1FE0
ENDCHAR
STARTCHAR U+3056
ENCODING 12374
SWIDTH 1000 0
DWIDTH 16 0
BBX 15 14 0 0
BITMAP
0408
0424
0212
0138
FFC0
0080
0040
0020
1FD0
2038
4000
4000
2010
1FE0
ENDCHAR
STARTCHAR U+3057
ENCODING 12375
SWIDTH 1000 0
DWIDTH 16 0
BBX 12 13 1 0
BITMAP
8000
8000
8000
8000
8000
8000
8000
8000
8010
8020
8040
4180
3E00
ENDCHAR
STARTCHAR U+3058
ENCODING 12376
SWIDTH 1000 0
DWIDTH 16 0
BBX 12 13 1 0
BITMAP
8000
8100
8480
8240
8100
8000
8000
8000
8010
8020
8040
4180
3E00
ENDCHAR
STARTCHAR U+3059
ENCODING 12377
SWIDTH 1000 0
DWIDTH 16 0
BBX 14 15 0 -1
BITMAP
0080
0080
0080
FFFC
0080
0080
0E80
1180
1080
1180
0E80
0080
0100
0200
0C00
ENDCHAR
STARTCHAR U+305A
ENCODING 12378
SWIDTH 1000 0
DWIDTH 16 0
BBX 15 15 0 -1
BITMAP
00A8
0094
008A
FFF8
0080
0080
0E80
1180
1080
1180
0E80
0080
0100
0200
0C00
ENDCHAR
STARTCHAR U+305B
ENCODING 12379
SWIDTH 1000 0
DWIDTH 16 0
BBX 14 13 0 0
BITMAP
1020
1020
1020
1020
FFFC
1020
1020
1020
1020
11C0
1000
0800
07F0
ENDCHAR
STARTCHAR U+305C
ENCODING 12380
SWIDTH 1000 0
DWIDTH 16 0
BBX 15 14 0 0
BITMAP
0014
102A
102A
1020
1020
FFFC
1020
1020
1020
1020
11C0
1000
0800
07F0
ENDCHAR
STARTCHAR U+305D
ENCODING 12381
SWIDTH 1000 0
DWIDTH 16 0
BBX 14 14 0 -1
BITMAP
1FF0
0060
0080
0300
0400
1FFC
F8C0
0300
0400
0800
0800
0800
0400
03F0
ENDCHAR
STARTCHAR U+305E
ENCODING 12382
SWIDTH 1000 0
DWIDTH 16 0
BBX 15 14 0 -1
BITMAP
1FF0
0064
0092
030A
0408
1FFC
F8C0
0300
0400
0800
0800
0800
0400
03F0
ENDCHAR
STARTCHAR U+305F
ENCODING 12383
SWIDTH 1000 0
DWIDTH 16 0
BBX 13 14 1 0
BITMAP
1000
1000
1000
FF80
1000
2000
23F8
2000
2000
4000
4200
4400
8400
83F8
ENDCHAR
STARTCHAR U+3060
ENCODING 12384
SWIDTH 1000 0
DWIDTH 16 0
BBX 14 14 0 0
BITMAP
1010
1048
1024
FF10
1000
2000
23F8
2000
2000
4000
4200
4400
8400
83F8
ENDCHAR
STARTCHAR U+3061
ENCODING 12385
SWIDTH 1000 0
DWIDTH 16 0
BBX 12 14 1 0
BITMAP
0400
0400
0800
FFE0
1000
1000
2000
2FC0
7020
4010
0010
0010
0060
3F80
ENDCHAR
STARTCHAR U+3062
ENCODING 12386
SWIDTH 1000 0
DWIDTH 16 0
BBX 14 14 0 0
BITMAP
0410
0448
0824
FFF0
1000
1000
2000
2FC0
7020
4010
0010
0010
0060
3F80
ENDCHAR
STARTCHAR U+3063
ENCODING 12387
SWIDTH 1000 0
DWIDTH 16 0
BBX 12 8 1 0
BITMAP
1FC0
E020
0010
0010
0010
0020
00C0
1F00
ENDCHAR
STARTCHAR U+3064
ENCODING 12388
SWIDTH 1000 0
DWIDTH 16 0
BBX 14 11 0 0
BITMAP
0FE0
F010
0008
0004
0004
0004
0004
0008
0010
00E0
1F00
ENDCHAR
STARTCHAR U+3065
ENCODING 12389
SWIDTH 1000 0
DWIDTH 16 0
BBX 15 14 0 0
BITMAP
0008
0024
0012
0FE8
F010
0008
0004
0004
0004
0004
0008
0010
00E0
1F00
ENDCHAR
STARTCHAR U+3066
ENCODING 12390
SWIDTH 1000 0
DWIDTH 16 0
BBX 14 12 0 0
BITMAP
FFFC
00C0
0100
0200
0400
0800
0800
0800
0800
0400
0600
01F0
ENDCHAR
STARTCHAR U+3067
ENCODING 12391
SWIDTH 1000 0
DWIDTH 16 0
BBX 15 12 0 0
BITMAP
FFFC
00C0
0108
0224
0412
0808
0800
0800
0800
0400
0600
01F0
ENDCHAR
STARTCHAR U+3068
ENCODING 12392
SWIDTH 1000 0
DWIDTH 16 0
BBX 12 14 1 0
BITMAP
0800
0800
0800
0800
0800
09F0
0E00
3000
4000
8000
8000
8000
6000
1FF0
ENDCHAR
STARTCHAR U+3069
ENCODING 12393
SWIDTH 1000 0
DWIDTH 16 0
BBX 14 14 0 0
BITMAP
0810
0848
0824
0810
0800
09F0
0E00
3000
4000
8000
8000
8000
6000
1FF0
ENDCHAR
STARTCHAR U+306A
ENCODING 12394
SWIDTH 1000 0
DWIDTH 16 0
BBX 14 15 0 -1
BITMAP
0400
0400
0800
FF78
0804
1000
1040
2040
2040
4040
47C0
8860
0850
0888
0700
ENDCHAR
STARTCHAR U+306B
ENCODING 12395
SWIDTH 1000 0
DWIDTH 16 0
BBX 12 13 1 0
BITMAP
4000
4000
4FF0
8000
8000
8000
8000
8000
8000
8800
8800
8400
83F0
ENDCHAR
STARTCHAR U+306C
ENCODING 12396
SWIDTH 1000 0
DWIDTH 16 0
BBX 15 14 0 0
BITMAP
0040
2040
2080
2FE0
3098
2108
5104
5204
9404
8804
88F4
990C
950C
60F2
ENDCHAR
STARTCHAR U+306D
ENCODING 12397
SWIDTH 1000 0
DWIDTH 16 0
BBX 15 15 0 -1
BITMAP
1000
1000
1000
1070
1188
F204
1404
1804
3004
3004
51E4
9218
921C
11F2
1000
ENDCHAR
STARTCHAR U+306E
ENCODING 12398
SWIDTH 1000 0
DWIDTH 16 0
BBX 14 13 0 -1
BITMAP
07C0
1930
2108
4108
4204
8204
8204
8404
8404
8808
4808
3030
01C0
ENDCHAR
STARTCHAR U+306F
ENCODING 12399
SWIDTH 1000 0
DWIDTH 16 0
BBX 13 13 1 0
BITMAP
4040
4040
8040
9FF8
8040
8040
8040
8040
8040
8FC0
9060
9050
8F88
ENDCHAR
STARTCHAR U+3070
ENCODING 12400
SWIDTH 1000 0
DWIDTH 16 0
BBX 15 14 0 0
BITMAP
0014
404A
404A
8040
9FF8
8040
8040
8040
8040
8040
8FC0
9060
9050
8F88
ENDCHAR
STARTCHAR U+3071
ENCODING 12401
SWIDTH 1000 0
DWIDTH 16 0
BBX 15 14 0 0
BITMAP
000C
4052
4052
804C
9FF8
8040
8040
8040
8040
8040
8FC0
9060
9050
8F88
ENDCHAR
STARTCHAR U+3072
ENCODING 12402
SWIDTH 1000 0
DWIDTH 16 0
BBX 15 12 0 0
BITMAP
FE20
0820
1010
2010
2018
4014
4012
4020
4020
4040
2080
1F00
ENDCHAR
STARTCHAR U+3073
ENCODING 12403
SWIDTH 1000 0
DWIDTH 16 0
BBX 15 14 0 0
BITMAP
0014
000A
FE2A
0820
1010
2010
2018
4014
4012
4020
4020
4040
2080
1F00
ENDCHAR
STARTCHAR U+3074
ENCODING 12404
SWIDTH 1000 0
DWIDTH 16 0
BBX 15 14 0 0
BITMAP
000C
0012
FE32
082C
1010
2010
2018
4014
4012
4020
4020
4040
2080
1F00
ENDCHAR
STARTCHAR U+3075
ENCODING 12405
SWIDTH 1000 0
DWIDTH 16 0
BBX 14 13 0 0
BITMAP
0E00
01C0
0020
0000
0400
0300
2090
2048
4048
4044
8044
9084
0F00
ENDCHAR
STARTCHAR U+3076
ENCODING 12406
SWIDTH 1000 0
DWIDTH 16 0
BBX 15 13 0 0
BITMAP
0E28
01D4
000A
0000
0400
0300
2090
2048
4048
4044
8044
9084
0F00
ENDCHAR
STARTCHAR U+3077
ENCODING 12407
SWIDTH 1000 0
DWIDTH 16 0
BBX 15 13 0 0
BITMAP
0E0C
01D2
0012
000C
0400
0300
2090
2048
4048
4044
8044
9084
0F00
ENDCHAR
STARTCHAR U+3078
ENCODING 12408
SWIDTH 1000 0
DWIDTH 16 0
BBX 14 11 0 0
BITMAP
0C00
1200
1100
2080
4080
4040
8020
0010
0010
0008
0004
ENDCHAR
STARTCHAR U+3079
ENCODING 12409
SWIDTH 1000 0
DWIDTH 16 0
BBX 15 12 0 0
BITMAP
0008
0C24
1212
1108
2080
4080
4040
8020
0010
0010
0008
0004
ENDCHAR
STARTCHAR U+307A
ENCODING 12410
SWIDTH 1000 0
DWIDTH 16 0
BBX 14 12 0 0
BITMAP
0018
0C24
1224
1118
2080
4080
4040
8020
0010
0010
0008
0004
ENDCHAR
STARTCHAR U+307B
ENCODING 12411
SWIDTH 1000 0
DWIDTH 16 0
BBX 13 13 1 0
BITMAP
4000
5FF8
8040
8040
8040
9FF8
8040
8040
8040
8FC0
9060
9050
8F88
ENDCHAR
STARTCHAR U+307C
ENCODING 12412
SWIDTH 1000 0
DWIDTH 16 0
BBX 14 14 0 0
BITMAP
0050
4028
5FF4
8040
8040
8040
9FF8
8040
8040
8040
8FC0
9060
9050
8F88
ENDCHAR
STARTCHAR U+307D
ENCODING 12413
SWIDTH 1000 0
DWIDTH 16 0
BBX 14 14 0 0
BITMAP
0018
4024
5FE4
8058
8040
8040
9FF8
8040
8040
8040
8FC0
9060
9050
8F88
ENDCHAR
STARTCHAR U+307E
ENCODING 12414
SWIDTH 1000 0
DWIDTH 16 0
BBX 12 15 1 -1
BITMAP
0200
0200
0200
FFF0
0200
0200
FFF0
0200
0200
0200
7E00
8380
8240
8220
7C10
ENDCHAR
STARTCHAR U+307F
ENCODING 12415
SWIDTH 1000 0
DWIDTH 16 0
BBX 15 13 0 -1
BITMAP
1F80
0080
0100
0108
0208
0FC8
3438
440C
8812
8810
9020
6040
0180
ENDCHAR
STARTCHAR U+3080
ENCODING 12416
SWIDTH 1000 0
DWIDTH 16 0
BBX 13 15 1 -1
BITMAP
1000
1000
1040
FF20
1010
1008
7008
9000
9000
9020
9010
6010
2010
2020
1FC0
ENDCHAR
STARTCHAR U+3081
ENCODING 12417
SWIDTH 1000 0
DWIDTH 16 0
BBX 14 14 0 -1
BITMAP
2040
2040
2040
27C0
38B0
3108
5104
9204
9204
8C04
8808
9410
6020
00C0
ENDCHAR
STARTCHAR U+3082
ENCODING 12418
SWIDTH 1000 0
DWIDTH 16 0
BBX 14 15 0 -1
BITMAP
0800
0800
0800
7F80
1000
1010
1008
FF88
1004
1004
1004
1004
1008
0810
07E0
ENDCHAR
STARTCHAR U+3083
ENCODING 12419
SWIDTH 1000 0
DWIDTH 16 0
BBX 12 12 1 -1
BITMAP
0400
2200
23E0
2C10
7010
9010
1020
13C0
0800
0800
0400
0400
ENDCHAR
STARTCHAR U+3084
ENCODING 12420
SWIDTH 1000 0
DWIDTH 16 0
BBX 14 15 0 -1
BITMAP
0100
2100
2080
2080
13F0
1C08
7004
9004
0804
0818
09E0
0800
0400
0400
0400
ENDCHAR
STARTCHAR U+3085
ENCODING 12421
SWIDTH 1000 0
DWIDTH 16 0
BBX 11 12 2 -1
BITMAP
0200
8700
9AC0
A240
A220
C220
8220
A220
9440
0F80
1800
6000
ENDCHAR
STARTCHAR U+3086
ENCODING 12422
SWIDTH 1000 0
DWIDTH 16 0
BBX 13 15 1 -1
BITMAP
0100
8100
87C0
8930
9110
A108
A108
C108
C108
8108
9210
8A20
07C0
0C00
3000
ENDCHAR
STARTCHAR U+3087
ENCODING 12423
SWIDTH 1000 0
DWIDTH 16 0
BBX 11 11 2 0
BITMAP
0400
0400
0400
07C0
0400
0400
0400
7C00
8700
84C0
7820
ENDCHAR
STARTCHAR U+3088
ENCODING 12424
SWIDTH 1000 0
DWIDTH 16 0
BBX 13 14 1 0
BITMAP
0200
0200
0200
0200
03F0
0200
0200
0200
0200
7E00
8380
8260
8210
7C08
ENDCHAR
STARTCHAR U+3089
ENCODING 12425
SWIDTH 1000 0
DWIDTH 16 0
BBX 11 13 2 0
BITMAP
7E00
0180
0000
4000
4000
8000
8F80
B040
C020
0020
0020
00C0
7F00
ENDCHAR
STARTCHAR U+308A
ENCODING 12426
SWIDTH 1000 0
DWIDTH 16 0
BBX 11 14 2 -1
BITMAP
4780
4840
9040
A020
A020
C020
C020
8020
8020
0040
0040
0080
0700
7800
ENDCHAR
STARTCHAR U+308B
ENCODING 12427
SWIDTH 1000 0
DWIDTH 16 0
BBX 12 12 1 0
BITMAP
7FC0
0080
0100
0600
0800
1FC0
6020
8010
3810
4420
4460
3F80
ENDCHAR
STARTCHAR U+308C
ENCODING 12428
SWIDTH 1000 0
DWIDTH 16 0
BBX 15 15 0 -1
BITMAP
1000
1000
1000
10E0
F110
1210
1410
1810
3010
3020
5020
5020
9022
901C
1000
ENDCHAR
STARTCHAR U+308D
ENCODING 12429
SWIDTH 1000 0
DWIDTH 16 0
BBX 13 12 1 0
BITMAP
3FE0
0080
0100
0600
0800
17E0
7810
C008
0008
0008
0030
7FC0
ENDCHAR
STARTCHAR U+308E
ENCODING 12430
SWIDTH 1000 0
DWIDTH 16 0
BBX 12 12 1 -1
BITMAP
1000
1000
F3C0
1C20
1810
3010
3010
5010
5010
9020
90C0
1300
ENDCHAR
STARTCHAR U+308F
ENCODING 12431
SWIDTH 1000 0
DWIDTH 16 0
BBX 14 15 0 -1
BITMAP
1000
1000
1000
F1E0
1618
1808
1004
3004
3004
5004
5004
9008
9010
9060
1380
ENDCHAR
STARTCHAR U+3090
ENCODING 12432
SWIDTH 1000 0
DWIDTH 16 0
BBX 14 14 0 -1
BITMAP
3F80
0080
0100
0100
0FE0
1218
2208
4404
8404
89E4
8A14
9208
9210
61E0
ENDCHAR
STARTCHAR U+3091
ENCODING 12433
SWIDTH 1000 0
DWIDTH 16 0
BBX 15 14 0 -1
BITMAP
3FE0
00C0
0300
0400
1FE0
6010
0C08
1208
1210
0FE0
1800
3878
4484
8302
ENDCHAR
STARTCHAR U+3092
ENCODING 12434
SWIDTH 1000 0
DWIDTH 16 0
BBX 13 15 1 -1
BITMAP
0400
0400
0400
FFE0
0800
1E00
1118
2160
4180
4700
8900
1100
1100
1000
0FF0
ENDCHAR
STARTCHAR U+3093
ENCODING 12435
SWIDTH 1000 0
DWIDTH 16 0
BBX 14 14 0 0
BITMAP
0400
0400
0400
0800
0800
1000
1000
2604
2904
3104
6108
4108
8110
80E0
ENDCHAR
STARTCHAR U+3094
ENCODING 12436
SWIDTH 1000 0
DWIDTH 16 0
BBX 15 13 0 0
BITMAP
3F00
00E0
0008
0014
1FCA
E024
0010
0010
0010
0020
0040
0180
7E00
ENDCHAR
STARTCHAR U+3095
ENCODING 12437
SWIDTH 1000 0
DWIDTH 16 0
BBX 11 11 2 0
BITMAP
1000
1000
1080
FE40
2140
2120
2120
4100
4100
8200
9C00
ENDCHAR
STARTCHAR U+3096
ENCODING 12438
SWIDTH 1000 0
DWIDTH 16 0
BBX 11 11 2 0
BITMAP
4080
4080
9FE0
8080
8080
8080
8080
8100
8100
8200
8C00
ENDCHAR
STARTCHAR U+309B
ENCODING 12443
SWIDTH 1000 0
DWIDTH 16 0
BBX 5 4 0 10
BITMAP
20
90
48
20
ENDCHAR
STARTCHAR U+309C
ENCODING 12444
SWIDTH 1000 0
DWIDTH 16 0
BBX 5 5 0 9
BITMAP
70
88
88
88
70
ENDCHAR
STARTCHAR U+309D
ENCODING 12445
SWIDTH 1000 0
DWIDTH 16 0
BBX 7 10 4 1
BITMAP
80
80
40
40
20
10
0C
06
18
60
ENDCHAR
STARTCHAR U+309E
ENCODING 12446
SWIDTH 1000 0
DWIDTH 16 0
BBX 8 11 3 1
BITMAP
04
92
89
44
40
20
10
0C
06
18
60
ENDCHAR
STARTCHAR U+30A1
ENCODING 12449
SWIDTH 1000 0
DWIDTH 16 0
BBX 12 11 1 -1
BITMAP
FFF0
0010
0420
0420
0440
0480
0500
0800
0800
1000
6000
ENDCHAR
STARTCHAR U+30A2
ENCODING 12450
SWIDTH 1000 0
DWIDTH 16 0
BBX 13 13 1 0
BITMAP
FFF8
0008
0008
0410
0410
0420
0440
0480
0800
0800
1000
2000
C000
ENDCHAR
STARTCHAR U+30A3
ENCODING 12451
SWIDTH 1000 0
DWIDTH 16 0
BBX 10 12 2 -1
BITMAP
0040
0080
0100
0200
0400
1C00
6400
8400
0400
0400
0400
0400
ENDCHAR
STARTCHAR U+30A4
ENCODING 12452
SWIDTH 1000 0
DWIDTH 16 0
BBX 13 15 1 -1
BITMAP
0008
0010
0020
0040
0080
0180
0280
0C80
3080
C080
0080
0080
0080
0080
0080
ENDCHAR
STARTCHAR U+30A5
ENCODING 12453
SWIDTH 1000 0
DWIDTH 16 0
BBX 11 12 2 -1
BITMAP
0400
0400
FFE0
8020
8020
8020
8040
0040
0080
0300
0C00
7000
ENDCHAR
STARTCHAR U+30A6
ENCODING 12454
SWIDTH 1000 0
DWIDTH 16 0
BBX 12 15 1 -1
BITMAP
0400
0400
0400
FFF0
8010
8010
8010
8010
8020
0020
0040
0080
0100
0E00
7000
ENDCHAR
STARTCHAR U+30A7
ENCODING 12455
SWIDTH 1000 0
DWIDTH 16 0
BBX 12 9 1 0
BITMAP
7FE0
0400
0400
0400
0400
0400
0400
0400
FFF0
ENDCHAR
STARTCHAR U+30A8
ENCODING 12456
SWIDTH 1000 0
DWIDTH 16 0
BBX 15 12 0 0
BITMAP
7FFC
0100
0100
0100
0100
0100
0100
0100
0100
0100
0100
FFFE
ENDCHAR
STARTCHAR U+30A9
ENCODING 12457
SWIDTH 1000 0
DWIDTH 16 0
BBX 11 12 2 -1
BITMAP
0100
0100
FFE0
0300
0500
0500
0900
1100
2100
4100
8100
0E00
ENDCHAR
STARTCHAR U+30AA
ENCODING 12458
SWIDTH 1000 0
DWIDTH 16 0
BBX 14 15 0 -1
BITMAP
0020
0020
0020
0020
FFFC
0060
00A0
0120
0220
0420
0820
1020
6020
8020
03C0
ENDCHAR
STARTCHAR U+30AB
ENCODING 12459
SWIDTH 1000 0
DWIDTH 16 0
BBX 12 14 1 0
BITMAP
0400
0400
0400
FFF0
0410
0410
0810
0810
0810
1010
1010
2010
4020
83C0
ENDCHAR
STARTCHAR U+30AC
ENCODING 12460
SWIDTH 1000 0
DWIDTH 16 0
BBX 14 14 0 0
BITMAP
0450
0428
0414
FFF0
0410
0410
0810
0810
0810
1010
1010
2010
4020
83C0
ENDCHAR
STARTCHAR U+30AD
ENCODING 12461
SWIDTH 1000 0
DWIDTH 16 0
BBX 14 15 0 -1
BITMAP
0400
0400
0400
07F0
FE00
0200
0200
0200
03FC
FF00
0100
0100
0100
0100
0100
ENDCHAR
STARTCHAR U+30AE
ENCODING 12462
SWIDTH 1000 0
DWIDTH 16 0
BBX 15 15 0 -1
BITMAP
0408
0414
040A
07F4
FE00
0200
0200
0200
03FC
FF00
0100
0100
0100
0100
0100
ENDCHAR
STARTCHAR U+30AF
ENCODING 12463
SWIDTH 1000 0
DWIDTH 16 0
BBX 12 15 1 -1
BITMAP
0400
0400
0800
0FF0
1010
1010
2020
4020
8040
0040
0080
0100
0600
1800
E000
ENDCHAR
STARTCHAR U+30B0
ENCODING 12464
SWIDTH 1000 0
DWIDTH 16 0
BBX 14 15 0 -1
BITMAP
0450
0428
0814
0FF0
1010
1010
2020
4020
8040
0040
0080
0100
0600
1800
E000
ENDCHAR
STARTCHAR U+30B1
ENCODING 12465
SWIDTH 1000 0
DWIDTH 16 0
BBX 14 14 0 -1
BITMAP
0800
0800
1000
1FFC
2040
2040
4040
8080
0080
0100
0100
0200
0C00
3000
ENDCHAR
STARTCHAR U+30B2
ENCODING 12466
SWIDTH 1000 0
DWIDTH 16 0
BBX 15 15 0 -1
BITMAP
0028
0814
080A
1000
1FFC
2040
2040
4040
8080
0080
0100
0100
0200
0C00
3000
ENDCHAR
STARTCHAR U+30B3
ENCODING 12467
SWIDTH 1000 0
DWIDTH 16 0
BBX 12 12 1 -1
BITMAP
FFF0
0010
0010
0010
0010
0010
0010
0010
0010
0010
FFF0
0010
ENDCHAR
STARTCHAR U+30B4
ENCODING 12468
SWIDTH 1000 0
DWIDTH 16 0
BBX 14 15 0 -1
BITMAP
0050
0028
0014
FFF0
0010
0010
0010
0010
0010
0010
0010
0010
0010
FFF0
0010
ENDCHAR
STARTCHAR U+30B5
ENCODING 12469
SWIDTH 1000 0
DWIDTH 16 0
BBX 14 14 0 0
BITMAP
1020
1020
1020
1020
FFFC
1020
1020
1020
1020
1040
0040
0080
0300
1C00
ENDCHAR
STARTCHAR U+30B6
ENCODING 12470
SWIDTH 1000 0
DWIDTH 16 0
BBX 15 14 0 0
BITMAP
1028
1034
102A
1024
FFFC
1020
1020
1020
1020
1040
0040
0080
0300
1C00
ENDCHAR
STARTCHAR U+30B7
ENCODING 12471
SWIDTH 1000 0
DWIDTH 16 0
BBX 13 13 1 0
BITMAP
3000
0C00
0200
C008
3008
0808
0010
0010
0020
0040
0180
0E00
7000
ENDCHAR
STARTCHAR U+30B8
ENCODING 12472
SWIDTH 1000 0
DWIDTH 16 0
BBX 14 14 0 0
BITMAP
0050
3028
0C14
0200
C008
3008
0808
0010
0010
0020
0040
0180
0E00
7000
ENDCHAR
STARTCHAR U+30B9
ENCODING 12473
SWIDTH 1000 0
DWIDTH 16 0
BBX 14 12 0 0
BITMAP
7FE0
0020
0020
0040
0040
0080
0080
0140
0220
0C10
3008
C004
ENDCHAR
STARTCHAR U+30BA
ENCODING 12474
SWIDTH 1000 0
DWIDTH 16 0
BBX 15 14 0 0
BITMAP
0028
0014
7FEA
0020
0020
0040
0040
0080
0080
0140
0220
0C10
3008
C004
ENDCHAR
STARTCHAR U+30BB
ENCODING 12475
SWIDTH 1000 0
DWIDTH 16 0
BBX 13 13 1 0
BITMAP
1000
1000
1078
1388
3C08
D010
1010
1020
1040
1180
1000
1000
0FF8
ENDCHAR
STARTCHAR U+30BC
ENCODING 12476
SWIDTH 1000 0
DWIDTH 16 0
BBX 15 14 0 0
BITMAP
0028
1014
100A
1078
1388
3C08
D010
1010
1020
1040
1180
1000
1000
0FF8
ENDCHAR
STARTCHAR U+30BD
ENCODING 12477
SWIDTH 1000 0
DWIDTH 16 0
BBX 11 12 2 0
BITMAP
8020
8020
4020
4020
2040
2040
0080
0080
0100
0600
1800
E000
ENDCHAR
STARTCHAR U+30BE
ENCODING 12478
SWIDTH 1000 0
DWIDTH 16 0
BBX 13 14 1 0
BITMAP
00A0
0050
8028
8020
4020
4020
2040
2040
0080
0080
0100
0600
1800
E000
ENDCHAR
STARTCHAR U+30BF
ENCODING 12479
SWIDTH 1000 0
DWIDTH 16 0
BBX 13 15 1 -1
BITMAP
0200
0200
0400
07F8
0808
1008
2008
4810
8610
0120
00C0
0080
0100
0E00
7000
ENDCHAR
STARTCHAR U+30C0
ENCODING 12480
SWIDTH 1000 0
DWIDTH 16 0
BBX 15 15 0 -1
BITMAP
0228
0214
040A
07F8
0808
1008
2008
4810
8610
0120
00C0
0080
0100
0E00
7000
ENDCHAR
STARTCHAR U+30C1
ENCODING 12481
SWIDTH 1000 0
DWIDTH 16 0
BBX 14 15 0 -1
BITMAP
0018
01E0
7F00
0100
0100
0100
FFFC
0100
0100
0100
0200
0200
0400
1800
6000
ENDCHAR
STARTCHAR U+30C2
ENCODING 12482
SWIDTH 1000 0
DWIDTH 16 0
BBX 15 15 0 -1
BITMAP
0018
01E0
7F08
0114
010A
0104
FFFC
0100
0100
0100
0200
0200
0400
1800
6000
ENDCHAR
STARTCHAR U+30C3
ENCODING 12483
SWIDTH 1000 0
DWIDTH 16 0
BBX 11 11 2 0
BITMAP
1000
8820
4420
2420
2020
0040
0040
0080
0100
0600
3800
ENDCHAR
STARTCHAR U+30C4
ENCODING 12484
SWIDTH 1000 0
DWIDTH 16 0
BBX 13 12 1 0
BITMAP
0808
8408
4408
4208
2210
2010
0020
0020
0040
0180
0600
3800
ENDCHAR
STARTCHAR U+30C5
ENCODING 12485
SWIDTH 1000 0
DWIDTH 16 0
BBX 15 14 0 0
BITMAP
0028
0014
080A
8400
4408
4208
2210
2010
0020
0020
0040
0180
0600
3800
ENDCHAR
STARTCHAR U+30C6
ENCODING 12486
SWIDTH 1000 0
DWIDTH 16 0
BBX 14 13 0 -1
BITMAP
7FF8
0000
0000
0000
FFFC
0100
0100
0100
0200
0200
0400
0800
3000
ENDCHAR
STARTCHAR U+30C7
ENCODING 12487
SWIDTH 1000 0
DWIDTH 16 0
BBX 15 15 0 -1
BITMAP
0008
0024
7FF2
0008
0000
0000
FFFC
0100
0100
0100
0200
0200
0400
0800
3000
ENDCHAR
STARTCHAR U+30C8
ENCODING 12488
SWIDTH 1000 0
DWIDTH 16 0
BBX 10 15 2 -1
BITMAP
8000
8000
8000
8000
8000
E000
9C00
8300
80C0
8000
8000
8000
8000
8000
8000
ENDCHAR
STARTCHAR U+30C9
ENCODING 12489
SWIDTH 1000 0
DWIDTH 16 0
BBX 11 15 2 -1
BITMAP
8080
8240
8120
8080
8000
E000
9C00
8300
80C0
8000
8000
8000
8000
8000
8000
ENDCHAR
STARTCHAR U+30CA
ENCODING 12490
SWIDTH 1000 0
DWIDTH 16 0
BBX 14 15 0 -1
BITMAP
0100
0100
0100
0100
0100
FFFC
0100
0100
0100
0100
0200
0200
0400
1800
6000
ENDCHAR
STARTCHAR U+30CB
ENCODING 12491
SWIDTH 1000 0
DWIDTH 16 0
BBX 13 11 1 0
BITMAP
7FF0
0000
0000
0000
0000
0000
0000
0000
0000
0000
FFF8
ENDCHAR
STARTCHAR U+30CC
ENCODING 12492
SWIDTH 1000 0
DWIDTH 16 0
BBX 13 13 1 0
BITMAP
3FF8
0008
0008
0010
1010
0C20
0240
0180
01C0
0220
0C10
3000
C000
ENDCHAR
STARTCHAR U+30CD
ENCODING 12493
SWIDTH 1000 0
DWIDTH 16 0
BBX 14 15 0 -1
BITMAP
0200
0200
0200
7FF0
0020
0040
0080
0100
0200
0E40
3230
C208
0204
0200
0200
ENDCHAR
STARTCHAR U+30CE
ENCODING 12494
SWIDTH 1000 0
DWIDTH 16 0
BBX 11 13 2 0
BITMAP
0020
0020
0020
0020
0040
0040
0080
0080
0100
0200
0C00
3000
C000
ENDCHAR
STARTCHAR U+30CF
ENCODING 12495
SWIDTH 1000 0
DWIDTH 16 0
BBX 14 12 0 0
BITMAP
0840
0840
0820
0820
1010
1010
1008
2008
2008
4004
4004
8000
ENDCHAR
STARTCHAR U+30D0
ENCODING 12496
SWIDTH 1000 0
DWIDTH 16 0
BBX 15 14 0 0
BITMAP
0008
0014
084A
0844
0820
0820
1010
1010
1008
2008
2008
4004
4004
8000
ENDCHAR
STARTCHAR U+30D1
ENCODING 12497
SWIDTH 1000 0
DWIDTH 16 0
BBX 15 14 0 0
BITMAP
000C
0012
0852
084C
0820
0820
1010
1010
1008
2008
2008
4004
4004
8000
ENDCHAR
STARTCHAR U+30D2
ENCODING 12498
SWIDTH 1000 0
DWIDTH 16 0
BBX 11 13 2 0
BITMAP
8000
8000
8000
80C0
8300
9C00
E000
8000
8000
8000
8000
8000
7FE0
ENDCHAR
STARTCHAR U+30D3
ENCODING 12499
SWIDTH 1000 0
DWIDTH 16 0
BBX 13 14 1 0
BITMAP
00A0
8050
8028
8000
80C0
8300
9C00
E000
8000
8000
8000
8000
8000
7FE0
ENDCHAR
STARTCHAR U+30D4
ENCODING 12500
SWIDTH 1000 0
DWIDTH 16 0
BBX 13 14 1 0
BITMAP
0030
8048
8048
8030
8080
8300
9C00
E000
8000
8000
8000
8000
8000
7FE0
ENDCHAR
STARTCHAR U+30D5
ENCODING 12501
SWIDTH 1000 0
DWIDTH 16 0
BBX 12 12 1 0
BITMAP
FFF0
0010
0010
0010
0020
0020
0040
0040
0080
0300
0C00
7000
ENDCHAR
STARTCHAR U+30D6
ENCODING 12502
SWIDTH 1000 0
DWIDTH 16 0
BBX 15 14 0 0
BITMAP
0028
0014
FFFA
0010
0010
0010
0020
0020
0040
0040
0080
0300
0C00
7000
ENDCHAR
STARTCHAR U+30D7
ENCODING 12503
SWIDTH 1000 0
DWIDTH 16 0
BBX 15 14 0 0
BITMAP
000C
0012
FFF2
001C
0010
0010
0020
0020
0040
0040
0080
0300
0C00
7000
ENDCHAR
STARTCHAR U+30D8
ENCODING 12504
SWIDTH 1000 0
DWIDTH 16 0
BBX 15 11 0 0
BITMAP
0600
0900
1100
1080
2040
4020
4010
8010
0008
0004
0002
ENDCHAR
STARTCHAR U+30D9
ENCODING 12505
SWIDTH 1000 0
DWIDTH 16 0
BBX 15 13 0 0
BITMAP
0008
0024
0612
0908
1100
1080
2040
4020
4010
8010
0008
0004
0002
ENDCHAR
STARTCHAR U+30DA
ENCODING 12506
SWIDTH 1000 0
DWIDTH 16 0
BBX 15 13 0 0
BITMAP
0018
0024
0624
0918
1100
1080
2040
4020
4010
8010
0008
0004
0002
ENDCHAR
STARTCHAR U+30DB
ENCODING 12507
SWIDTH 1000 0
DWIDTH 16 0
BBX 14 15 0 -1
BITMAP
0100
0100
0100
0100
7FFC
0100
0100
1120
1110
2108
2108
4104
8104
0100
0E00
ENDCHAR
STARTCHAR U+30DC
ENCODING 12508
SWIDTH 1000 0
DWIDTH 16 0
BBX 15 15 0 -1
BITMAP
0128
0114
010A
0100
7FFC
0100
0100
1120
1110
2108
2108
4104
8104
0100
0E00
ENDCHAR
STARTCHAR U+30DD
ENCODING 12509
SWIDTH 1000 0
DWIDTH 16 0
BBX 15 15 0 -1
BITMAP
010C
0112
0112
010C
7FFC
0100
0100
1120
1110
2108
2108
4104
8104
0100
0E00
ENDCHAR
STARTCHAR U+30DE
ENCODING 12510
SWIDTH 1000 0
DWIDTH 16 0
BBX 13 11 1 0
BITMAP
FFF8
0008
0010
0010
2020
1840
0480
0300
0100
0080
0080
ENDCHAR
STARTCHAR U+30DF
ENCODING 12511
SWIDTH 1000 0
DWIDTH 16 0
BBX 11 12 2 0
BITMAP
7000
0F00
00E0
0000
7000
0F00
00C0
0000
E000
1C00
0380
0060
ENDCHAR
STARTCHAR U+30E0
ENCODING 12512
SWIDTH 1000 0
DWIDTH 16 0
BBX 14 14 0 -1
BITMAP
0200
0200
0200
0400
0400
0800
0840
0820
1020
1010
2008
21F8
FE04
0004
ENDCHAR
STARTCHAR U+30E1
ENCODING 12513
SWIDTH 1000 0
DWIDTH 16 0
BBX 12 13 1 0
BITMAP
0020
0020
0040
2040
1880
0700
0180
0240
0420
0810
1000
6000
8000
ENDCHAR
STARTCHAR U+30E2
ENCODING 12514
SWIDTH 1000 0
DWIDTH 16 0
BBX 14 12 0 0
BITMAP
7FF8
0400
0400
0400
0400
FFFC
0400
0400
0400
0400
0400
03F8
ENDCHAR
STARTCHAR U+30E3
ENCODING 12515
SWIDTH 1000 0
DWIDTH 16 0
BBX 11 12 2 -1
BITMAP
1000
1000
1000
13E0
FC20
0820
0840
0840
0880
0900
0800
0800
ENDCHAR
STARTCHAR U+30E4
ENCODING 12516
SWIDTH 1000 0
DWIDTH 16 0
BBX 13 15 1 -1
BITMAP
0800
0800
0800
0800
09F8
FE08
0808
0810
0810
0420
0440
0480
0400
0400
0400
ENDCHAR
STARTCHAR U+30E5
ENCODING 12517
SWIDTH 1000 0
DWIDTH 16 0
BBX 12 9 1 0
BITMAP
7FC0
0040
0040
0040
0080
0080
0080
0080
FFF0
ENDCHAR
STARTCHAR U+30E6
ENCODING 12518
SWIDTH 1000 0
DWIDTH 16 0
BBX 14 12 0 0
BITMAP
7FF0
0010
0010
0010
0010
0020
0020
0020
0020
0020
0020
FFFC
ENDCHAR
STARTCHAR U+30E7
ENCODING 12519
SWIDTH 1000 0
DWIDTH 16 0
BBX 10 10 2 0
BITMAP
FFC0
0040
0040
0040
7FC0
0040
0040
0040
FFC0
0040
ENDCHAR
STARTCHAR U+30E8
ENCODING 12520
SWIDTH 1000 0
DWIDTH 16 0
BBX 12 12 1 0
BITMAP
FFF0
0010
0010
0010
0010
7FF0
0010
0010
0010
0010
FFF0
0010
ENDCHAR
STARTCHAR U+30E9
ENCODING 12521
SWIDTH 1000 0
DWIDTH 16 0
BBX 12 14 1 -1
BITMAP
7FE0
0000
0000
0000
FFF0
0010
0010
0010
0020
0020
0040
0080
0300
7C00
ENDCHAR
STARTCHAR U+30EA
ENCODING 12522
SWIDTH 1000 0
DWIDTH 16 0
BBX 10 14 2 -1
BITMAP
8040
8040
8040
8040
8040
8040
8040
8040
8040
0080
0080
0100
0600
7800
ENDCHAR
STARTCHAR U+30EB
ENCODING 12523
SWIDTH 1000 0
DWIDTH 16 0
BBX 14 13 0 0
BITMAP
0900
0900
0900
0900
0900
0904
1104
1108
1108
2110
2120
4140
8180
ENDCHAR
STARTCHAR U+30EC
ENCODING 12524
SWIDTH 1000 0
DWIDTH 16 0
BBX 12 13 1 0
BITMAP
8000
8000
8000
8000
8000
8010
8020
8040
8080
8100
8600
9800
E000
ENDCHAR
STARTCHAR U+30ED
ENCODING 12525
SWIDTH 1000 0
DWIDTH 16 0
BBX 12 12 1 0
BITMAP
FFF0
8010
8010
8010
8010
8010
8010
8010
8010
8010
FFF0
8010
ENDCHAR
STARTCHAR U+30EE
ENCODING 12526
SWIDTH 1000 0
DWIDTH 16 0
BBX 10 11 2 -1
BITMAP
FFC0
8040
8040
8040
8080
0080
0100
0100
0200
0C00
7000
ENDCHAR
STARTCHAR U+30EF
ENCODING 12527
SWIDTH 1000 0
DWIDTH 16 0
BBX 12 14 1 -1
BITMAP
FFF0
8010
8010
8010
8010
8020
0020
0020
0040
0040
0080
0300
0C00
7000
ENDCHAR
STARTCHAR U+30F0
ENCODING 12528
SWIDTH 1000 0
DWIDTH 16 0
BBX 14 15 0 -1
BITMAP
0040
0040
0040
7FF8
1040
1040
1040
1040
1040
1040
FFFC
0040
0040
0040
0040
ENDCHAR
STARTCHAR U+30F1
ENCODING 12529
SWIDTH 1000 0
DWIDTH 16 0
BBX 14 12 0 0
BITMAP
7FF8
0008
0010
0210
0220
0240
0280
0200
0200
0200
0200
FFFC
ENDCHAR
STARTCHAR U+30F2
ENCODING 12530
SWIDTH 1000 0
DWIDTH 16 0
BBX 12 13 1 0
BITMAP
FFF0
0010
0010
0010
0010
7FF0
0020
0020
0040
0080
0300
0C00
7000
ENDCHAR
STARTCHAR U+30F3
ENCODING 12531
SWIDTH 1000 0
DWIDTH 16 0
BBX 12 12 1 0
BITMAP
8000
6010
1810
0410
0020
0020
0040
0080
0100
0600
1800
E000
ENDCHAR
STARTCHAR U+30F4
ENCODING 12532
SWIDTH 1000 0
DWIDTH 16 0
BBX 14 15 0 -1
BITMAP
0450
0428
0414
FFF0
8010
8010
8010
8010
8020
0020
0040
0080
0100
0E00
7000
ENDCHAR
STARTCHAR U+30F5
ENCODING 12533
SWIDTH 1000 0
DWIDTH 16 0
BBX 11 12 2 -1
BITMAP
0400
0400
7FE0
0420
0420
0420
0820
0820
0820
1020
2020
C3C0
ENDCHAR
STARTCHAR U+30F6
ENCODING 12534
SWIDTH 1000 0
DWIDTH 16 0
BBX 12 12 1 -1
BITMAP
1000
1000
1FF0
2080
4080
8080
0100
0100
0200
0400
1800
6000
ENDCHAR
STARTCHAR U+30F7
ENCODING 12535
SWIDTH 1000 0
DWIDTH 16 0
BBX 14 15 0 -1
BITMAP
0050
0028
FFF4
8010
8010
8010
8020
0020
0020
0040
0040
0080
0300
0C00
7000
ENDCHAR
STARTCHAR U+30F8
ENCODING 12536
SWIDTH 1000 0
DWIDTH 16 0
BBX 15 15 0 -1
BITMAP
0048
0054
004A
7FFC
1040
1040
1040
1040
1040
1040
FFFC
0040
0040
0040
0040
ENDCHAR
STARTCHAR U+30F9
ENCODING 12537
SWIDTH 1000 0
DWIDTH 16 0
BBX 15 14 0 0
BITMAP
0028
0014
7FFA
0008
0010
0210
0220
0240
0280
0200
0200
0200
0200
FFFC
ENDCHAR
STARTCHAR U+30FA
ENCODING 12538
SWIDTH 1000 0
DWIDTH 16 0
BBX 14 15 0 -1
BITMAP
0050
0028
FFF4
0010
0010
0010
0010
7FF0
0020
0020
0040
0080
0300
0C00
7000
ENDCHAR
STARTCHAR U+30FB
ENCODING 12539
SWIDTH 1000 0
DWIDTH 16 0
BBX 4 4 6 4
BITMAP
60
F0
F0
60
ENDCHAR
STARTCHAR U+30FC
ENCODING 12540
SWIDTH 1000 0
DWIDTH 16 0
BBX 12 1 2 6
BITMAP
FFF0
ENDCHAR
STARTCHAR U+30FD
ENCODING 12541
SWIDTH 1000 0
DWIDTH 16 0
BBX 9 8 3 2
BITMAP
8000
4000
3000
0800
0400
0200
0100
0080
ENDCHAR
STARTCHAR U+30FE
ENCODING 12542
SWIDTH 1000 0
DWIDTH 16 0
BBX 10 9 2 2
BITMAP
0100
8480
4240
3100
0800
0400
0200
0100
0080
ENDCHAR
STARTCHAR U+3105
ENCODING 12549
SWIDTH 1000 0
DWIDTH 16 0
BBX 11 15 2 -1
BITMAP
1000
1000
2000
2000
4000
FFE0
8020
0020
0020
0020
0020
0020
0020
0040
0780
ENDCHAR
STARTCHAR U+3106
ENCODING 12550
SWIDTH 1000 0
DWIDTH 16 0
BBX 12 15 1 -1
BITMAP
0400
0400
0800
1000
3FF0
0010
3020
0820
0440
0280
0100
0280
0C40
3020
C010
ENDCHAR
STARTCHAR U+3107
ENCODING 12551
SWIDTH 1000 0
DWIDTH 16 0
BBX 12 13 2 -1
BITMAP
FFF0
8010
8010
8010
8010
8010
8010
8010
8010
8010
8010
8010
8010
ENDCHAR
STARTCHAR U+3108
ENCODING 12552
SWIDTH 1000 0
DWIDTH 16 0
BBX 13 13 1 -1
BITMAP
FFF8
8000
8000
8000
8000
8000
8000
8000
8000
8000
8000
4000
3FF8
ENDCHAR
STARTCHAR U+3109
ENCODING 12553
SWIDTH 1000 0
DWIDTH 16 0
BBX 12 15 1 -1
BITMAP
0800
0800
1000
1000
2000
7FF0
4410
0410
0810
0810
1010
1010
2010
4020
83C0
ENDCHAR
STARTCHAR U+310A
ENCODING 12554
SWIDTH 1000 0
DWIDTH 16 0
BBX 14 15 0 -1
BITMAP
0200
0200
0200
0200
0400
FFFC
0400
0840
0820
1020
1010
2008
21F8
FE04
0004
ENDCHAR
STARTCHAR U+310B
ENCODING 12555
SWIDTH 1000 0
DWIDTH 16 0
BBX 12 14 1 -1
BITMAP
FF00
0100
0200
0200
0400
0FF0
0810
0010
0010
0010
0010
0010
0020
03C0
ENDCHAR
STARTCHAR U+310C
ENCODING 12556
SWIDTH 1000 0
DWIDTH 16 0
BBX 12 15 1 -1
BITMAP
0100
2100
2100
2200
4200
4200
FFF0
8410
0410
0810
0810
1010
1010
2020
C3C0
ENDCHAR
STARTCHAR U+310D
ENCODING 12557
SWIDTH 1000 0
DWIDTH 16 0
BBX 13 15 1 -1
BITMAP
0210
0210
0420
0840
1080
2100
4200
8400
8400
4200
3180
0840
0420
0210
0108
ENDCHAR
STARTCHAR U+310E
ENCODING 12558
SWIDTH 1000 0
DWIDTH 16 0
BBX 14 13 1 -1
BITMAP
FFFC
0200
0200
0400
0400
0FF0
0810
0010
0010
0010
0010
0020
03C0
ENDCHAR
STARTCHAR U+310F
ENCODING 12559
SWIDTH 1000 0
DWIDTH 16 0
BBX 13 13 1 -1
BITMAP
7FF8
2000
2000
2000
2000
2000
2000
2000
4000
4000
4000
8000
8000
ENDCHAR
STARTCHAR U+3110
ENCODING 12560
SWIDTH 1000 0
DWIDTH 16 0
BBX 9 15 3 -1
BITMAP
0080
0080
4080
4080
4080
4080
4080
4080
4180
4680
5880
E080
0080
0080
0080
ENDCHAR
STARTCHAR U+3111
ENCODING 12561
SWIDTH 1000 0
DWIDTH 16 0
BBX 10 15 3 -1
BITMAP
0100
0200
0400
0800
1000
2000
4000
8000
4000
3000
0C00
0200
0100
0080
0040
ENDCHAR
STARTCHAR U+3112
ENCODING 12562
SWIDTH 1000 0
DWIDTH 16 0
BBX 13 14 1 -1
BITMAP
FFF8
0200
0200
0200
0200
0200
0200
0200
0200
0200
0200
0200
0200
0200
ENDCHAR
STARTCHAR U+3113
ENCODING 12563
SWIDTH 1000 0
DWIDTH 16 0
BBX 15 14 0 0
BITMAP
0100
0100
2108
2108
2108
2108
2108
2108
2108
3FF8
0100
0100
0100
FFFE
ENDCHAR
STARTCHAR U+3114
ENCODING 12564
SWIDTH 1000 0
DWIDTH 16 0
BBX 11 15 2 -1
BITMAP
0080
0100
0600
1820
6040
0080
0100
0600
1A00
E200
0200
0200
0200
0200
0200
ENDCHAR
STARTCHAR U+3115
ENCODING 12565
SWIDTH 1000 0
DWIDTH 16 0
BBX 13 13 1 -1
BITMAP
7FF8
0008
0008
0008
3FF8
2000
2000
2000
4000
4000
4000
8000
8000
ENDCHAR
STARTCHAR U+3116
ENCODING 12566
SWIDTH 1000 0
DWIDTH 16 0
BBX 11 13 2 -1
BITMAP
FFE0
8020
8020
9020
8820
8420
8220
8220
8120
8120
8020
8020
FFE0
ENDCHAR
STARTCHAR U+3117
ENCODING 12567
SWIDTH 1000 0
DWIDTH 16 0
BBX 13 13 1 -1
BITMAP
FFF8
0208
0208
0208
0208
0208
0208
0208
0270
0200
0200
0200
0200
ENDCHAR
STARTCHAR U+3118
ENCODING 12568
SWIDTH 1000 0
DWIDTH 16 0
BBX 14 15 1 -1
BITMAP
0200
0200
0200
FFFC
0400
0400
0800
0FF0
0810
0010
0010
0020
0020
0040
0080
ENDCHAR
STARTCHAR U+3119
ENCODING 12569
SWIDTH 1000 0
DWIDTH 16 0
BBX 13 15 1 -1
BITMAP
0400
0400
0400
0400
0400
0800
0800
0880
1040
1040
2020
2010
43F0
FC08
0008
ENDCHAR
STARTCHAR U+311A
ENCODING 12570
SWIDTH 1000 0
DWIDTH 16 0
BBX 13 15 1 -1
BITMAP
0008
C008
2010
1010
0820
0440
0480
0100
0200
0200
0200
0200
0200
0200
0200
ENDCHAR
STARTCHAR U+311B
ENCODING 12571
SWIDTH 1000 0
DWIDTH 16 0
BBX 13 14 1 -1
BITMAP
FFF8
0200
0200
0200
0200
0E00
1200
2000
4000
4000
4010
2020
1040
0F80
ENDCHAR
STARTCHAR U+311C
ENCODING 12572
SWIDTH 1000 0
DWIDTH 16 0
BBX 13 15 1 -1
BITMAP
0200
0200
0200
FFF8
0200
0200
0200
1E00
2200
4000
4000
4010
2020
1040
0F80
ENDCHAR
STARTCHAR U+311D
ENCODING 12573
SWIDTH 1000 0
DWIDTH 16 0
BBX 15 14 0 0
BITMAP
0820
0820
0820
0820
0820
FFFE
0820
0820
0820
0820
0800
0800
0400
03FC
ENDCHAR
STARTCHAR U+311E
ENCODING 12574
SWIDTH 1000 0
DWIDTH 16 0
BBX 14 14 1 -1
BITMAP
FFFC
0100
1100
1100
2200
2200
7FF0
4410
0410
0810
0820
1020
2040
C080
ENDCHAR
STARTCHAR U+311F
ENCODING 12575
SWIDTH 1000 0
DWIDTH 16 0
BBX 15 14 0 -1
BITMAP
0600
0A00
3200
C200
0200
0100
0100
0100
0080
0040
0020
0010
0008
0006
ENDCHAR
STARTCHAR U+3120
ENCODING 12576
SWIDTH 1000 0
DWIDTH 16 0
BBX 13 15 1 -1
BITMAP
0200
0200
0400
0400
0840
1040
2080
7F00
0200
0440
0820
1010
2070
4388
FC08
ENDCHAR
STARTCHAR U+3121
ENCODING 12577
SWIDTH 1000 0
DWIDTH 16 0
BBX 14 13 1 0
BITMAP
7FF8
0008
0008
0010
3010
0C20
0340
0080
0140
0220
0C10
3008
C004
ENDCHAR
STARTCHAR U+3122
ENCODING 12578
SWIDTH 1000 0
DWIDTH 16 0
BBX 13 14 1 -1
BITMAP
FFE0
0020
1020
1040
2040
2000
7FF8
4008
0008
0008
0010
0010
0020
0040
ENDCHAR
STARTCHAR U+3123
ENCODING 12579
SWIDTH 1000 0
DWIDTH 16 0
BBX 11 15 2 -1
BITMAP
1000
1000
2000
2000
4000
4000
FFE0
8020
0020
0020
0040
0040
0080
0080
0100
ENDCHAR
STARTCHAR U+3124
ENCODING 12580
SWIDTH 1000 0
DWIDTH 16 0
BBX 15 15 0 -1
BITMAP
0100
0100
0100
0100
0100
7FFE
0200
0280
0280
0480
0480
0880
1080
207E
C000
ENDCHAR
STARTCHAR U+3125
ENCODING 12581
SWIDTH 1000 0
DWIDTH 16 0
BBX 13 14 1 0
BITMAP
0400
0400
0400
0400
0400
0800
0800
0800
1000
1000
2000
2000
4000
FFF8
ENDCHAR
STARTCHAR U+3126
ENCODING 12582
SWIDTH 1000 0
DWIDTH 16 0
BBX 15 14 0 -1
BITMAP
0840
0840
0840
0840
0840
0840
0840
0840
0840
1040
1040
2040
4020
801E
ENDCHAR
STARTCHAR U+3127
ENCODING 12583
SWIDTH 1000 0
DWIDTH 16 0
BBX 14 1 1 7
BITMAP
FFFC
ENDCHAR
STARTCHAR U+3128
ENCODING 12584
SWIDTH 1000 0
DWIDTH 16 0
BBX 14 15 0 -1
BITMAP
0008
0008
0010
3010
0820
0620
0140
0080
00C0
0120
0210
0408
0804
3004
C000
ENDCHAR
STARTCHAR U+3129
ENCODING 12585
SWIDTH 1000 0
DWIDTH 16 0
BBX 11 13 2 0
BITMAP
8020
8020
8020
8020
8020
8020
8020
8020
8020
8020
8020
8020
FFE0
ENDCHAR
STARTCHAR U+312A
ENCODING 12586
SWIDTH 1000 0
DWIDTH 16 0
BBX 14 13 1 -1
BITMAP
FFFC
0200
0200
0200
03F0
0410
0410
0410
0810
0810
1010
2010
C0E0
ENDCHAR
STARTCHAR U+312B
ENCODING 12587
SWIDTH 1000 0
DWIDTH 16 0
BBX 14 13 1 -1
BITMAP
FFFC
0480
0480
0480
0480
0480
0480
0480
0880
0880
1080
2080
C07C
ENDCHAR
STARTCHAR U+312C
ENCODING 12588
SWIDTH 1000 0
DWIDTH 16 0
BBX 14 15 1 -1
BITMAP
0100
0100
0100
3FFC
2000
2000
2000
2000
2000
2000
2000
2000
4000
4000
8000
ENDCHAR
STARTCHAR U+312D
ENCODING 12589
SWIDTH 1000 0
DWIDTH 16 0
BBX 15 14 0 -1
BITMAP
FFFE
0100
0100
0100
3FF8
2108
2108
2108
2108
2108
2108
2108
0100
0100
ENDCHAR
STARTCHAR U+312E
ENCODING 12590
SWIDTH 1000 0
DWIDTH 16 0
BBX 13 15 1 -1
BITMAP
0600
0600
0000
FFF8
0200
0200
0E00
3200
4000
4000
4000
4010
4020
3040
0F80
ENDCHAR
STARTCHAR U+312F
ENCODING 12591
SWIDTH 1000 0
DWIDTH 16 0
BBX 12 14 1 -1
BITMAP
FF00
0100
0200
0400
0800
1FF0
0410
0410
0410
0410
0410
0420
05C0
0400
ENDCHAR
STARTCHAR U+3220
ENCODING 12832
SWIDTH 1000 0
DWIDTH 16 0
BBX 15 15 0 -1
BITMAP
2008
4004
4004
8002
8002
8002
8002
9FF2
8002
8002
8002
8002
4004
4004
2008
ENDCHAR
STARTCHAR U+3221
ENCODING 12833
SWIDTH 1000 0
DWIDTH 16 0
BBX 15 15 0 -1
BITMAP
2008
4004
4004
8002
8FE2
8002
8002
8002
8002
8002
9FF2
8002
4004
4004
2008
ENDCHAR
STARTCHAR U+3222
ENCODING 12834
SWIDTH 1000 0
DWIDTH 16 0
BBX 15 15 0 -1
BITMAP
2008
4004
4004
8FE2
8002
8002
8002
87C2
8002
8002
8002
9FF2
4004
4004
2008
ENDCHAR
STARTCHAR U+3223
ENCODING 12835
SWIDTH 1000 0
DWIDTH 16 0
BBX 15 15 0 -1
BITMAP
2008
4004
4004
9FF2
9292
9292
9292
9492
9472
9812
9012
9FF2
4004
4004
2008
ENDCHAR
STARTCHAR U+3224
ENCODING 12836
SWIDTH 1000 0
DWIDTH 16 0
BBX 15 15 0 -1
BITMAP
2008
4004
4004
9FF2
8102
8102
8102
8FE2
8222
8222
8222
9FF2
4004
4004
2008
ENDCHAR
STARTCHAR U+3225
ENCODING 12837
SWIDTH 1000 0
DWIDTH 16 0
BBX 15 15 0 -1
BITMAP
2008
4004
4104
8102
8102
9FF2
8002
8002
8442
8442
8822
9012
4004
4004
2008
ENDCHAR
STARTCHAR U+3226
ENCODING 12838
SWIDTH 1000 0
DWIDTH 16 0
BBX 15 15 0 -1
BITMAP
2008
4004
4404
8402
8402
84F2
8702
9C02
8402
8422
8422
83C2
4004
4004
2008
ENDCHAR
STARTCHAR U+3227
ENCODING 12839
SWIDTH 1000 0
DWIDTH 16 0
BBX 15 15 0 -1
BITMAP
2008
4004
4044
8442
8442
8442
8442
8442
8822
8822
9012
9012
4004
4004
2008
ENDCHAR
STARTCHAR U+3228
ENCODING 12840
SWIDTH 1000 0
DWIDTH 16 0
BBX 15 15 0 -1
BITMAP
2008
4004
4204
8202
8202
9FC2
8242
8242
8442
8452
8852
8822
4004
4004
2008
ENDCHAR
STARTCHAR U+3229
ENCODING 12841
SWIDTH 1000 0
DWIDTH 16 0
BBX 15 15 0 -1
BITMAP
2008
4004
4104
8102
8102
8102
9FF2
8102
8102
8102
8102
8102
4004
4004
2008
ENDCHAR
STARTCHAR U+322A
ENCODING 12842
SWIDTH 1000 0
DWIDTH 16 0
BBX 15 15 0 -1
BITMAP
2008
4004
4FE4
8822
8822
8822
8FE2
8822
8822
8822
8FE2
8822
5024
50C4
2008
ENDCHAR
STARTCHAR U+322B
ENCODING 12843
SWIDTH 1000 0
DWIDTH 16 0
BBX 15 15 0 -1
BITMAP
2008
4004
4104
8102
A112
9112
9122
9122
8282
8282
8442
8442
4824
7014
2008
ENDCHAR
STARTCHAR U+322C
ENCODING 12844
SWIDTH 1000 0
DWIDTH 16 0
BBX 15 15 0 -1
BITMAP
2008
4004
4104
8102
8112
BD22
8542
8582
8982
8942
9122
9112
610C
4604
2008
ENDCHAR
STARTCHAR U+322D
ENCODING 12845
SWIDTH 1000 0
DWIDTH 16 0
BBX 15 15 0 -1
BITMAP
2008
4004
4104
8102
8102
BFFA
8382
8382
8542
8542
8922
9112
610C
4104
2008
ENDCHAR
STARTCHAR U+322E
ENCODING 12846
SWIDTH 1000 0
DWIDTH 16 0
BBX 15 15 0 -1
BITMAP
2008
4004
4384
8442
9832
AFEA
8102
8102
9FF2
8102
9112
8922
4544
7FFC
2008
ENDCHAR
STARTCHAR U+322F
ENCODING 12847
SWIDTH 1000 0
DWIDTH 16 0
BBX 15 15 0 -1
BITMAP
2008
4004
4104
8102
8102
8102
9FF2
8102
8102
8102
8102
8102
4104
7FFC
2008
ENDCHAR
STARTCHAR U+3230
ENCODING 12848
SWIDTH 1000 0
DWIDTH 16 0
BBX 15 15 0 -1
BITMAP
2008
4004
4FE4
8822
8822
8822
8822
8FE2
8822
8822
8822
8822
4FE4
4824
2008
ENDCHAR
STARTCHAR U+3231
ENCODING 12849
SWIDTH 1000 0
DWIDTH 16 0
BBX 15 15 0 -1
BITMAP
2008
5044
5144
9142
FDFA
9242
B842
B7FA
D0E2
D152
9152
924A
5444
5044
2008
ENDCHAR
STARTCHAR U+3232
ENCODING 12850
SWIDTH 1000 0
DWIDTH 16 0
BBX 15 15 0 -1
BITMAP
2008
4204
4204
BFFA
8402
8402
8FF2
8C12
97F2
A412
87F2
8412
4414
4464
2008
ENDCHAR
STARTCHAR U+3233
ENCODING 12851
SWIDTH 1000 0
DWIDTH 16 0
BBX 15 15 0 -1
BITMAP
2008
4004
4844
8842
BC42
8442
89F2
8842
9C42
AA42
8842
8842
4844
4BF4
2008
ENDCHAR
STARTCHAR U+3234
ENCODING 12852
SWIDTH 1000 0
DWIDTH 16 0
BBX 15 15 0 -1
BITMAP
2008
4104
43F4
8412
9A22
8142
8182
8202
9FF2
8412
8412
8412
47F4
4414
2008
ENDCHAR
STARTCHAR U+3235
ENCODING 12853
SWIDTH 1000 0
DWIDTH 16 0
BBX 15 15 0 -1
BITMAP
2008
4844
6844
A9F2
A842
BC42
CBFA
8822
8DFA
9822
A9A2
8862
4824
48C4
2008
ENDCHAR
STARTCHAR U+3236
ENCODING 12854
SWIDTH 1000 0
DWIDTH 16 0
BBX 15 15 0 -1
BITMAP
2008
4004
7E14
A212
A2FA
BE12
A232
A232
BE52
A252
A292
BE92
5414
6264
2008
ENDCHAR
STARTCHAR U+3237
ENCODING 12855
SWIDTH 1000 0
DWIDTH 16 0
BBX 15 15 0 -1
BITMAP
2008
5004
53F4
9212
FE12
8612
8A12
93F2
B942
D542
9142
924A
524C
5434
2008
ENDCHAR
STARTCHAR U+3238
ENCODING 12856
SWIDTH 1000 0
DWIDTH 16 0
BBX 15 15 0 -1
BITMAP
2008
4004
5214
8922
8922
BFFA
A00A
A20A
9FF2
8212
8412
8412
4814
70E4
2008
ENDCHAR
STARTCHAR U+3239
ENCODING 12857
SWIDTH 1000 0
DWIDTH 16 0
BBX 15 15 0 -1
BITMAP
2008
4904
4944
9122
9112
913A
B7C2
D082
9082
908A
908A
904A
5054
5024
2008
ENDCHAR
STARTCHAR U+323A
ENCODING 12858
SWIDTH 1000 0
DWIDTH 16 0
BBX 15 15 0 -1
BITMAP
2008
401C
5DE4
9442
964A
954A
9552
9442
97FA
9442
9C42
9042
4044
4184
2008
ENDCHAR
STARTCHAR U+323B
ENCODING 12859
SWIDTH 1000 0
DWIDTH 16 0
BBX 15 15 0 -1
BITMAP
2008
4004
5224
8942
BFF2
A012
AFD2
8042
8182
8102
BFF2
8102
4104
4604
2008
ENDCHAR
STARTCHAR U+323C
ENCODING 12860
SWIDTH 1000 0
DWIDTH 16 0
BBX 15 15 0 -1
BITMAP
2008
4004
5F24
9442
9F7A
9182
9F02
947A
9F02
8002
9FFA
924A
524C
7FFC
2008
ENDCHAR
STARTCHAR U+323D
ENCODING 12861
SWIDTH 1000 0
DWIDTH 16 0
BBX 15 15 0 -1
BITMAP
2008
4004
4184
8242
8422
8892
B08E
8482
84F2
8482
8482
8482
4484
5FFC
2008
ENDCHAR
STARTCHAR U+323E
ENCODING 12862
SWIDTH 1000 0
DWIDTH 16 0
BBX 15 15 0 -1
BITMAP
2008
7104
49FC
824A
8C52
90A2
A31A
9FF2
9012
9FF2
9012
9FF2
4444
5834
2008
ENDCHAR
STARTCHAR U+323F
ENCODING 12863
SWIDTH 1000 0
DWIDTH 16 0
BBX 15 15 0 -1
BITMAP
2008
4004
5084
93F2
9092
BD12
9262
9002
9222
97FA
92AA
92AA
54CC
55DC
2008
ENDCHAR
STARTCHAR U+3240
ENCODING 12864
SWIDTH 1000 0
DWIDTH 16 0
BBX 15 15 0 -1
BITMAP
2008
4804
4F7C
998A
9552
AA22
8C12
B7EE
8002
BFFA
8082
8CB2
708C
4304
2008
ENDCHAR
STARTCHAR U+3241
ENCODING 12865
SWIDTH 1000 0
DWIDTH 16 0
BBX 15 15 0 -1
BITMAP
2008
4444
4444
8842
8BFA
9842
98E2
A8E2
8952
8952
8A4A
8A4A
4844
4844
2008
ENDCHAR
STARTCHAR U+3242
ENCODING 12866
SWIDTH 1000 0
DWIDTH 16 0
BBX 15 15 0 -1
BITMAP
2008
4084
4104
8FF2
8812
8812
8FF2
8812
8812
8FF2
8812
8812
4FF4
4814
2008
ENDCHAR
STARTCHAR U+3243
ENCODING 12867
SWIDTH 1000 0
DWIDTH 16 0
BBX 15 15 0 -1
BITMAP
2008
4004
5FF4
8202
8442
8822
9FF2
8112
8102
9FF2
8102
8102
4104
7FFC
2008
ENDCHAR
STARTCHAR U+3251
ENCODING 12881
SWIDTH 1000 0
DWIDTH 16 0
BBX 15 15 0 -1
BITMAP
07C0
1830
2008
4CE4
5224
9222
9222
8222
8C22
9022
5024
5024
3E28
1830
07C0
ENDCHAR
STARTCHAR U+3252
ENCODING 12882
SWIDTH 1000 0
DWIDTH 16 0
BBX 15 15 0 -1
BITMAP
07C0
1830
2008
4C64
5294
9292
9292
8212
8C62
9082
5084
5084
3EF8
1830
07C0
ENDCHAR
STARTCHAR U+3253
ENCODING 12883
SWIDTH 1000 0
DWIDTH 16 0
BBX 15 15 0 -1
BITMAP
07C0
1830
2008
4C64
5294
9292
9212
8262
8C12
9012
5094
5094
3E68
1830
07C0
ENDCHAR
ENDFONT
